  0
SECTION
  2
HEADER
  9
$ACADVER
  1
AC1009
  9
$DWGCODEPAGE
  3
ansi_1252
  9
$INSBASE
 10
0.0
 20
0.0
 30
0.0
  9
$EXTMIN
 10
-1584.078118936987
 20
4.769503717054919
 30
0.0
  9
$EXTMAX
 10
-1376.078118936987
 20
102.769503717055
 30
0.0
  9
$LIMMIN
 10
0.0
 20
0.0
  9
$LIMMAX
 10
12.0
 20
9.0
  9
$ORTHOMODE
 70
     0
  9
$REGENMODE
 70
     1
  9
$FILLMODE
 70
     1
  9
$QTEXTMODE
 70
     0
  9
$MIRRTEXT
 70
     1
  9
$DRAGMODE
 70
     2
  9
$LTSCALE
 40
1.0
  9
$OSMODE
 70
    37
  9
$ATTMODE
 70
     1
  9
$TEXTSIZE
 40
0.2
  9
$TRACEWID
 40
0.05
  9
$TEXTSTYLE
  7
STANDARD
  9
$CLAYER
  8
0
  9
$CELTYPE
  6
BYLAYER
  9
$CECOLOR
 62
   256
  9
$DIMSCALE
 40
1.0
  9
$DIMASZ
 40
0.18
  9
$DIMEXO
 40
0.0625
  9
$DIMDLI
 40
0.38
  9
$DIMRND
 40
0.0
  9
$DIMDLE
 40
0.0
  9
$DIMEXE
 40
0.18
  9
$DIMTP
 40
0.0
  9
$DIMTM
 40
0.0
  9
$DIMTXT
 40
0.18
  9
$DIMCEN
 40
0.09
  9
$DIMTSZ
 40
0.0
  9
$DIMTOL
 70
     0
  9
$DIMLIM
 70
     0
  9
$DIMTIH
 70
     1
  9
$DIMTOH
 70
     1
  9
$DIMSE1
 70
     0
  9
$DIMSE2
 70
     0
  9
$DIMTAD
 70
     0
  9
$DIMZIN
 70
     0
  9
$DIMBLK
  1

  9
$DIMASO
 70
     1
  9
$DIMSHO
 70
     1
  9
$DIMPOST
  1

  9
$DIMAPOST
  1

  9
$DIMALT
 70
     0
  9
$DIMALTD
 70
     2
  9
$DIMALTF
 40
25.4
  9
$DIMLFAC
 40
1.0
  9
$DIMTOFL
 70
     0
  9
$DIMTVP
 40
0.0
  9
$DIMTIX
 70
     0
  9
$DIMSOXD
 70
     0
  9
$DIMSAH
 70
     0
  9
$DIMBLK1
  1

  9
$DIMBLK2
  1

  9
$DIMSTYLE
  2
STANDARD_ACAD
  9
$DIMCLRD
 70
     0
  9
$DIMCLRE
 70
     0
  9
$DIMCLRT
 70
     0
  9
$DIMTFAC
 40
1.0
  9
$DIMGAP
 40
0.09
  9
$LUNITS
 70
     2
  9
$LUPREC
 70
     3
  9
$SKETCHINC
 40
0.1
  9
$FILLETRAD
 40
0.0
  9
$AUNITS
 70
     0
  9
$AUPREC
 70
     0
  9
$MENU
  1
.
  9
$ELEVATION
 40
0.0
  9
$PELEVATION
 40
0.0
  9
$THICKNESS
 40
0.0
  9
$LIMCHECK
 70
     0
  9
$CHAMFERA
 40
0.0
  9
$CHAMFERB
 40
0.0
  9
$SKPOLY
 70
     0
  9
$TDCREATE
 40
2460455.785441157
  9
$TDUPDATE
 40
2460455.785455868
  9
$TDINDWG
 40
0.0000000116
  9
$TDUSRTIMER
 40
0.0000000116
  9
$USRTIMER
 70
     1
  9
$ANGBASE
 50
0.0
  9
$ANGDIR
 70
     0
  9
$PDMODE
 70
     0
  9
$PDSIZE
 40
0.0
  9
$PLINEWID
 40
0.0
  9
$COORDS
 70
     1
  9
$SPLFRAME
 70
     0
  9
$SPLINETYPE
 70
     6
  9
$SPLINESEGS
 70
     8
  9
$ATTDIA
 70
     0
  9
$ATTREQ
 70
     1
  9
$HANDLING
 70
     1
  9
$HANDSEED
  5
143
  9
$SURFTAB1
 70
     6
  9
$SURFTAB2
 70
     6
  9
$SURFTYPE
 70
     6
  9
$SURFU
 70
     6
  9
$SURFV
 70
     6
  9
$UCSNAME
  2

  9
$UCSORG
 10
0.0
 20
0.0
 30
0.0
  9
$UCSXDIR
 10
1.0
 20
0.0
 30
0.0
  9
$UCSYDIR
 10
0.0
 20
1.0
 30
0.0
  9
$PUCSNAME
  2

  9
$PUCSORG
 10
0.0
 20
0.0
 30
0.0
  9
$PUCSXDIR
 10
1.0
 20
0.0
 30
0.0
  9
$PUCSYDIR
 10
0.0
 20
1.0
 30
0.0
  9
$USERI1
 70
     0
  9
$USERI2
 70
     0
  9
$USERI3
 70
     0
  9
$USERI4
 70
     0
  9
$USERI5
 70
     0
  9
$USERR1
 40
0.0
  9
$USERR2
 40
0.0
  9
$USERR3
 40
0.0
  9
$USERR4
 40
0.0
  9
$USERR5
 40
0.0
  9
$WORLDVIEW
 70
     1
  9
$SHADEDGE
 70
     3
  9
$SHADEDIF
 70
    70
  9
$TILEMODE
 70
     1
  9
$MAXACTVP
 70
    64
  9
$PLIMCHECK
 70
     0
  9
$PEXTMIN
 10
1.000000000000000E+20
 20
1.000000000000000E+20
 30
1.000000000000000E+20
  9
$PEXTMAX
 10
-1.000000000000000E+20
 20
-1.000000000000000E+20
 30
-1.000000000000000E+20
  9
$PLIMMIN
 10
0.0
 20
0.0
  9
$PLIMMAX
 10
12.0
 20
9.0
  9
$UNITMODE
 70
     0
  9
$VISRETAIN
 70
     1
  9
$PLINEGEN
 70
     0
  9
$PSLTSCALE
 70
     1
  0
ENDSEC
  0
SECTION
  2
TABLES
  0
TABLE
  2
VPORT
 70
     1
  0
VPORT
  2
*ACTIVE
 70
     0
 10
0.0
 20
0.0
 11
1.0
 21
1.0
 12
10.42990654205607
 22
4.5
 13
0.0
 23
0.0
 14
0.5
 24
0.5
 15
0.5
 25
0.5
 16
0.0
 26
0.0
 36
1.0
 17
0.0
 27
0.0
 37
0.0
 40
9.0
 41
1.972972972850329
 42
50.0
 43
0.0
 44
0.0
 50
0.0
 51
0.0
 71
     0
 72
   100
 73
     1
 74
     3
 75
     0
 76
     0
 77
     0
 78
     0
  0
ENDTAB
  0
TABLE
  2
LTYPE
 70
     1
  0
LTYPE
  2
CONTINUOUS
 70
     0
  3
Solid line
 72
    65
 73
     0
 40
0.0
  0
ENDTAB
  0
TABLE
  2
LAYER
 70
     2
  0
LAYER
  2
0
 70
     0
 62
     7
  6
CONTINUOUS
  0
LAYER
  2
KIT
 70
     0
 62
     7
  6
CONTINUOUS
  0
ENDTAB
  0
TABLE
  2
STYLE
 70
     1
  0
STYLE
  2
STANDARD
 70
     0
 40
0.0
 41
1.0
 50
0.0
 71
     0
 42
0.2
  3
txt
  4

  0
ENDTAB
  0
TABLE
  2
VIEW
 70
     0
  0
ENDTAB
  0
TABLE
  2
UCS
 70
     0
  0
ENDTAB
  0
TABLE
  2
APPID
 70
     2
  0
APPID
  2
ACAD
 70
     0
  0
APPID
  2
RHINO
 70
     0
  0
ENDTAB
  0
TABLE
  2
DIMSTYLE
 70
     1
  0
DIMSTYLE
  2
STANDARD_ACAD
 70
     0
  3

  4

  5

  6

  7

 40
1.0
 41
0.18
 42
0.0625
 43
0.38
 44
0.18
 45
0.0
 46
0.0
 47
0.0
 48
0.0
140
0.18
141
0.09
142
0.0
143
25.4
144
1.0
145
0.0
146
1.0
147
0.09
 71
     0
 72
     0
 73
     1
 74
     1
 75
     0
 76
     0
 77
     0
 78
     0
170
     0
171
     2
172
     0
173
     0
174
     0
175
     0
176
     0
177
     0
178
     0
  0
ENDTAB
  0
ENDSEC
  0
SECTION
  2
BLOCKS
  0
BLOCK
  8
0
  2
$MODEL_SPACE
 70
     0
 10
0.0
 20
0.0
 30
0.0
  3
$MODEL_SPACE
  1

  0
ENDBLK
  5
21
  8
0
  0
BLOCK
 67
     1
  8
0
  2
$PAPER_SPACE
 70
     0
 10
0.0
 20
0.0
 30
0.0
  3
$PAPER_SPACE
  1

  0
ENDBLK
  5
1D
 67
     1
  8
0
  0
ENDSEC
  0
SECTION
  2
ENTITIES
  0
ARC
  5
60
  8
KIT
 10
-1574.078118936987
 20
91.7695037170547
 30
0.0
 40
3.999999999999779
 50
359.9999968036856
 51
180.0000037114946
  0
LINE
  5
61
  8
KIT
 10
-1578.078118936987
 20
91.7695034579435
 30
0.0
 11
-1578.078118936987
 21
83.76950409090841
 31
0.0
  0
ARC
  5
62
  8
KIT
 10
-1574.078118936987
 20
83.76950371705493
 30
0.0
 40
4.000000000000017
 50
179.9999946449433
 51
0.0000050211625401
  0
LINE
  5
63
  8
KIT
 10
-1570.078118936987
 20
83.7695040675982
 30
0.0
 11
-1570.078118936987
 21
91.76950349390987
 31
0.0
  0
LINE
  5
64
  8
KIT
 10
-1498.078118936987
 20
91.76950349390987
 30
0.0
 11
-1498.078118936987
 21
83.76950406759823
 31
0.0
  0
ARC
  5
65
  8
KIT
 10
-1494.078118936987
 20
83.76950371705493
 30
0.0
 40
3.999999999999788
 50
179.9999949788371
 51
0.0000053550566616
  0
LINE
  5
66
  8
KIT
 10
-1490.078118936987
 20
83.76950409090841
 30
0.0
 11
-1490.078118936987
 21
91.7695034579435
 31
0.0
  0
ARC
  5
67
  8
KIT
 10
-1494.078118936987
 20
91.76950371705448
 30
0.0
 40
4.000000000000463
 50
359.9999962885087
 51
180.0000031963111
  0
ARC
  5
68
  8
KIT
 10
-1532.977098422553
 20
49.66848320262091
 30
0.0
 40
11.89897948556592
 50
269.9999999999978
 51
0.000000000001916
  0
LINE
  5
69
  8
KIT
 10
-1521.078118936987
 20
49.6684832026213
 30
0.0
 11
-1521.078118936987
 21
52.87052423148862
 31
0.0
  0
ARC
  5
6A
  8
KIT
 10
-1532.977098422553
 20
52.87052423148884
 30
0.0
 40
11.89897948556631
 50
359.9999999999989
 51
90.0
  0
LINE
  5
6B
  8
KIT
 10
-1532.977098422553
 20
64.76950371705496
 30
0.0
 11
-1535.17913945142
 21
64.76950371705496
 31
0.0
  0
ARC
  5
6C
  8
KIT
 10
-1535.17913945142
 20
52.87052423148873
 30
0.0
 40
11.89897948556623
 50
90.0
 51
180.0000000000005
  0
LINE
  5
6D
  8
KIT
 10
-1547.078118936987
 20
52.87052423148862
 30
0.0
 11
-1547.078118936987
 21
49.6684832026213
 31
0.0
  0
ARC
  5
6E
  8
KIT
 10
-1535.17913945142
 20
49.66848320262125
 30
0.0
 40
11.89897948556654
 50
179.9999999999997
 51
269.9999999999989
  0
LINE
  5
6F
  8
KIT
 10
-1535.17913945142
 20
37.76950371705493
 30
0.0
 11
-1532.977098422553
 21
37.76950371705499
 31
0.0
  0
LINE
  5
70
  8
KIT
 10
-1500.078118933195
 20
63.75742700464653
 30
0.0
 11
-1500.078118933195
 21
54.78158042946336
 31
0.0
  0
ARC
  5
71
  8
KIT
 10
-1460.782455211333
 20
54.78158042943755
 30
0.0
 40
39.29566372186173
 50
179.9999999999624
 51
181.3842510366333
  0
ARC
  5
72
  8
KIT
 10
-1494.107944588565
 20
53.97628864143618
 30
0.0
 40
5.960446052019137
 50
181.3842510366011
 51
190.491477012372
  0
ARC
  5
73
  8
KIT
 10
-1496.47018591679
 20
53.53883654361476
 30
0.0
 40
3.558041333687548
 50
190.4914770123675
 51
202.8330780113444
  0
ARC
  5
74
  8
KIT
 10
-1497.93950688403
 20
52.92019247862918
 30
0.0
 40
1.963793992804576
 50
202.8330780114157
 51
247.1669219886001
  0
ARC
  5
75
  8
KIT
 10
-1497.320862819053
 20
54.38951344583906
 30
0.0
 40
3.558041333656615
 50
247.1669219886057
 51
259.5085229876887
  0
ARC
  5
76
  8
KIT
 10
-1496.88341072122
 20
56.75175477413097
 30
0.0
 40
5.960446052056279
 50
259.5085229876686
 51
268.6157489633824
  0
ARC
  5
77
  8
KIT
 10
-1496.078118933196
 20
90.07724415273529
 30
0.0
 40
39.29566372327192
 50
268.6157489633794
 51
270.0000000000007
  0
LINE
  5
78
  8
KIT
 10
-1496.078118933195
 20
50.78158042946336
 30
0.0
 11
-1487.344175256859
 21
50.76950371705493
 31
0.0
  0
ARC
  5
79
  8
KIT
 10
1487.622291918432
 20
39.50018508595674
 30
0.0
 40
11.2727499434105
 50
91.41372140839358
 51
95.01870716842414
210
0.0
220
0.0
230
-1.0
  0
ARC
  5
7A
  8
KIT
 10
1487.026569419353
 20
46.28381386640798
 30
0.0
 40
4.46301391865338
 50
95.0187071684242
 51
104.1081306276627
210
0.0
220
0.0
230
-1.0
  0
ARC
  5
7B
  8
KIT
 10
1486.688641823696
 20
47.62835246226015
 30
0.0
 40
3.076659311908385
 50
104.1081306276576
 51
115.0902413057431
210
0.0
220
0.0
230
-1.0
  0
ARC
  5
7C
  8
KIT
 10
1486.224064396319
 20
48.62055896197852
 30
0.0
 40
1.981074571182623
 50
115.0902413057858
 51
132.072716200387
210
0.0
220
0.0
230
-1.0
  0
ARC
  5
7D
  8
KIT
 10
1486.167349690341
 20
48.68338648876352
 30
0.0
 40
1.896435005989006
 50
132.072716200446
 51
149.4183920400303
210
0.0
220
0.0
230
-1.0
  0
ARC
  5
7E
  8
KIT
 10
1486.813997312876
 20
48.30124027240413
 30
0.0
 40
2.647560081065265
 50
149.4183920399887
 51
161.889322235384
210
0.0
220
0.0
230
-1.0
  0
ARC
  5
7F
  8
KIT
 10
1487.89150552217
 20
47.94883403027137
 30
0.0
 40
3.78123291772972
 50
161.8893222353172
 51
172.3053188317394
210
0.0
220
0.0
230
-1.0
  0
ARC
  5
80
  8
KIT
 10
1493.119000275081
 20
47.24254314872994
 30
0.0
 40
9.056225638203998
 50
172.3053188317583
 51
176.6642085273851
210
0.0
220
0.0
230
-1.0
  0
LINE
  5
81
  8
KIT
 10
-1484.078118936987
 20
47.76950371705493
 30
0.0
 11
-1484.078118936987
 21
15.44800145468997
 31
0.0
  0
ARC
  5
82
  8
KIT
 10
1495.204040082242
 20
15.44800145469104
 30
0.0
 40
11.12592114525501
 50
180.0000000000055
 51
201.4502382339998
210
0.0
220
0.0
230
-1.0
  0
ARC
  5
83
  8
KIT
 10
1494.77419195517
 20
15.27911088039286
 30
0.0
 40
10.66408411941782
 50
201.4502382340102
 51
223.8065105760214
210
0.0
220
0.0
230
-1.0
  0
ARC
  5
84
  8
KIT
 10
1494.499519964568
 20
15.01564999144933
 30
0.0
 40
10.28348414250752
 50
223.8065105760257
 51
246.4043688490521
210
0.0
220
0.0
230
-1.0
  0
ARC
  5
85
  8
KIT
 10
1494.320759624106
 20
14.60639868076854
 30
0.0
 40
9.836894963713538
 50
246.4043688490596
 51
270.0
210
0.0
220
0.0
230
-1.0
  0
LINE
  5
86
  8
KIT
 10
-1494.320759624106
 20
4.769503717054931
 30
0.0
 11
-1573.835478249868
 21
4.769503717054931
 31
0.0
  0
ARC
  5
87
  8
KIT
 10
1573.835478249868
 20
14.60639868076777
 30
0.0
 40
9.836894963712838
 50
269.9999999999987
 51
293.5956311509422
210
0.0
220
0.0
230
-1.0
  0
ARC
  5
88
  8
KIT
 10
1573.656717909412
 20
15.01564999144032
 30
0.0
 40
10.28348414249682
 50
293.5956311509379
 51
316.1934894239869
210
0.0
220
0.0
230
-1.0
  0
ARC
  5
89
  8
KIT
 10
1573.3820459188
 20
15.2791108803948
 30
0.0
 40
10.66408411942233
 50
316.1934894239878
 51
338.5497617659883
210
0.0
220
0.0
230
-1.0
  0
ARC
  5
8A
  8
KIT
 10
1572.952197791732
 20
15.44800145469102
 30
0.0
 40
11.125921145255
 50
338.5497617660002
 51
359.9999999999945
210
0.0
220
0.0
230
-1.0
  0
LINE
  5
8B
  8
KIT
 10
-1584.078118936987
 20
15.44800145468997
 30
0.0
 11
-1584.078118936987
 21
47.76950371705493
 31
0.0
  0
ARC
  5
8C
  8
KIT
 10
1575.037237599049
 20
47.24254314874801
 30
0.0
 40
9.056225638047003
 50
3.335791472558293
 51
7.694681168260485
210
0.0
220
0.0
230
-1.0
  0
ARC
  5
8D
  8
KIT
 10
1580.264732351804
 20
47.94883403027137
 30
0.0
 40
3.781232917729271
 50
7.694681168261509
 51
18.11067776468457
210
0.0
220
0.0
230
-1.0
  0
ARC
  5
8E
  8
KIT
 10
1581.342240561049
 20
48.30124027238071
 30
0.0
 40
2.647560081119843
 50
18.11067776476202
 51
30.58160795990138
210
0.0
220
0.0
230
-1.0
  0
ARC
  5
8F
  8
KIT
 10
1581.988888183641
 20
48.6833864887692
 30
0.0
 40
1.896435005979238
 50
30.58160795994324
 51
47.92728379962107
210
0.0
220
0.0
230
-1.0
  0
ARC
  5
90
  8
KIT
 10
1581.932173477667
 20
48.62055896199693
 30
0.0
 40
1.98107457116073
 50
47.92728379951919
 51
64.90975869430983
210
0.0
220
0.0
230
-1.0
  0
ARC
  5
91
  8
KIT
 10
1581.46759605028
 20
47.62835246226484
 30
0.0
 40
3.076659311903492
 50
64.90975869424703
 51
75.89186937235003
210
0.0
220
0.0
230
-1.0
  0
ARC
  5
92
  8
KIT
 10
1581.12966845462
 20
46.2838138664034
 30
0.0
 40
4.463013918658003
 50
75.89186937234616
 51
84.98129283157517
210
0.0
220
0.0
230
-1.0
  0
ARC
  5
93
  8
KIT
 10
1580.533945955542
 20
39.5001850859495
 30
0.0
 40
11.27274994341774
 50
84.98129283157911
 51
88.58627859160734
210
0.0
220
0.0
230
-1.0
  0
LINE
  5
94
  8
KIT
 10
-1580.812062617115
 20
50.76950371705493
 30
0.0
 11
-1572.078118940779
 21
50.78158042946336
 31
0.0
  0
ARC
  5
95
  8
KIT
 10
-1572.078118940778
 20
90.07724415283255
 30
0.0
 40
39.29566372336919
 50
269.9999999999993
 51
271.3842510366172
  0
ARC
  5
96
  8
KIT
 10
-1571.272827152754
 20
56.75175477412747
 30
0.0
 40
5.9604460520528
 50
271.3842510366163
 51
280.4914770123332
  0
ARC
  5
97
  8
KIT
 10
-1570.835375054923
 20
54.38951344584442
 30
0.0
 40
3.558041333662257
 50
280.4914770123243
 51
292.8330780113878
  0
ARC
  5
98
  8
KIT
 10
-1570.216730989943
 20
52.92019247862805
 30
0.0
 40
1.96379399280328
 50
292.8330780113943
 51
337.1669219886046
  0
ARC
  5
99
  8
KIT
 10
-1571.686051957146
 20
53.53883654360345
 30
0.0
 40
3.558041333648161
 50
337.1669219885862
 51
349.5085229876998
  0
ARC
  5
9A
  8
KIT
 10
-1574.048293285445
 20
53.97628864143842
 30
0.0
 40
5.960446052054651
 50
349.508522987669
 51
358.6157489633853
  0
ARC
  5
9B
  8
KIT
 10
-1607.373782667319
 20
54.78158042950345
 30
0.0
 40
39.29566372654017
 50
358.6157489634353
 51
359.9999999999415
  0
LINE
  5
9C
  8
KIT
 10
-1568.078118940779
 20
54.78158042946336
 30
0.0
 11
-1568.078118940779
 21
63.75742700464653
 31
0.0
  0
ARC
  5
9D
  8
KIT
 10
-1607.373782661075
 20
63.75742700468179
 30
0.0
 40
39.29566372029649
 50
359.9999999999486
 51
1.384251036674649
  0
ARC
  5
9E
  8
KIT
 10
-1574.048293285373
 20
64.56271879267881
 30
0.0
 40
5.960446051982643
 50
1.384251036559995
 51
10.49147701238625
  0
ARC
  5
9F
  8
KIT
 10
-1571.686051957129
 20
65.0001708905105
 30
0.0
 40
3.558041333630404
 50
10.49147701228475
 51
22.83307801146125
  0
ARC
  5
A0
  8
KIT
 10
-1570.216730989942
 20
65.61881495548313
 30
0.0
 40
1.963793992801498
 50
22.83307801137342
 51
67.16692198862695
  0
ARC
  5
A1
  8
KIT
 10
-1570.835375054922
 20
64.1494939882667
 30
0.0
 40
3.558041333660782
 50
67.16692198861412
 51
79.50852298768623
  0
ARC
  5
A2
  8
KIT
 10
-1571.272827152754
 20
61.78725265998588
 30
0.0
 40
5.960446052049322
 50
79.50852298766061
 51
88.61574896338513
  0
ARC
  5
A3
  8
KIT
 10
-1572.078118940777
 20
28.46176328137151
 30
0.0
 40
39.29566372327499
 50
88.61574896338149
 51
90.00000000000266
  0
LINE
  5
A4
  8
KIT
 10
-1572.078118940779
 20
67.7574270046465
 30
0.0
 11
-1580.812062743368
 21
67.76950371705493
 31
0.0
  0
ARC
  5
A5
  8
KIT
 10
1580.533946025027
 20
79.03882074340635
 30
0.0
 40
11.27274834055275
 50
271.4137218980684
 51
275.0187080547097
210
0.0
220
0.0
230
-1.0
  0
ARC
  5
A6
  8
KIT
 10
1581.129668517871
 20
72.25519323806319
 30
0.0
 40
4.463013586560629
 50
275.0187080547161
 51
284.1081318969294
210
0.0
220
0.0
230
-1.0
  0
ARC
  5
A7
  8
KIT
 10
1581.467596106668
 20
70.910654795507
 30
0.0
 40
3.076659130160205
 50
284.1081318969149
 51
295.0902429071131
210
0.0
220
0.0
230
-1.0
  0
ARC
  5
A8
  8
KIT
 10
1581.932173499573
 20
69.91844844162628
 30
0.0
 40
1.981074536128478
 50
295.0902429070887
 51
312.0727176184155
210
0.0
220
0.0
230
-1.0
  0
ARC
  5
A9
  8
KIT
 10
1581.988888175832
 20
69.85562095089699
 30
0.0
 40
1.896435017612746
 50
312.0727176183283
 51
329.4183930610334
210
0.0
220
0.0
230
-1.0
  0
ARC
  5
AA
  8
KIT
 10
1581.342240502063
 20
70.23776718198621
 30
0.0
 40
2.647560144290755
 50
329.4183930609956
 51
341.8893227492864
210
0.0
220
0.0
230
-1.0
  0
ARC
  5
AB
  8
KIT
 10
1580.264732279608
 20
70.5901734177213
 30
0.0
 40
3.781232991474693
 50
341.8893227492704
 51
352.3053189573773
210
0.0
220
0.0
230
-1.0
  0
ARC
  5
AC
  8
KIT
 10
1575.037237519865
 20
71.29646428850667
 30
0.0
 40
9.056225717279618
 50
352.3053189574409
 51
356.6642085367295
210
0.0
220
0.0
230
-1.0
  0
LINE
  5
AD
  8
KIT
 10
-1584.078118936987
 20
70.76950371705493
 30
0.0
 11
-1584.078118936987
 21
92.09100597941998
 31
0.0
  0
ARC
  5
AE
  8
KIT
 10
1572.952197791769
 20
92.09100597942603
 30
0.0
 40
11.12592114521772
 50
359.9999999999688
 51
21.45023823403603
210
0.0
220
0.0
230
-1.0
  0
ARC
  5
AF
  8
KIT
 10
1573.382045918797
 20
92.25989655371347
 30
0.0
 40
10.66408411942569
 50
21.45023823401428
 51
43.80651057600728
210
0.0
220
0.0
230
-1.0
  0
ARC
  5
B0
  8
KIT
 10
1573.65671790941
 20
92.52335744266662
 30
0.0
 40
10.28348414250036
 50
43.80651057601713
 51
66.40436884905819
210
0.0
220
0.0
230
-1.0
  0
ARC
  5
B1
  8
KIT
 10
1573.835478249868
 20
92.93260875334269
 30
0.0
 40
9.836894963712284
 50
66.40436884905785
 51
90.00000000000132
210
0.0
220
0.0
230
-1.0
  0
LINE
  5
B2
  8
KIT
 10
-1573.835478249868
 20
102.769503717055
 30
0.0
 11
-1494.320759624106
 21
102.769503717055
 31
0.0
  0
ARC
  5
B3
  8
KIT
 10
1494.320759624107
 20
92.93260875333713
 30
0.0
 40
9.83689496371791
 50
90.0000000000053
 51
113.5956311509365
210
0.0
220
0.0
230
-1.0
  0
ARC
  5
B4
  8
KIT
 10
1494.49951996456
 20
92.52335744267049
 30
0.0
 40
10.28348414249562
 50
113.595631150934
 51
136.1934894239867
210
0.0
220
0.0
230
-1.0
  0
ARC
  5
B5
  8
KIT
 10
1494.774191955165
 20
92.25989655372086
 30
0.0
 40
10.664084119412
 50
136.1934894239769
 51
158.5497617659993
210
0.0
220
0.0
230
-1.0
  0
ARC
  5
B6
  8
KIT
 10
1495.204040082242
 20
92.09100597941892
 30
0.0
 40
11.12592114525523
 50
158.5497617660005
 51
179.9999999999946
210
0.0
220
0.0
230
-1.0
  0
LINE
  5
B7
  8
KIT
 10
-1484.078118936987
 20
92.09100597941998
 30
0.0
 11
-1484.078118936987
 21
70.76950371705493
 31
0.0
  0
ARC
  5
B8
  8
KIT
 10
1493.119000353484
 20
71.29646428845231
 30
0.0
 40
9.05622571665292
 50
183.3357914631572
 51
187.6946810427479
210
0.0
220
0.0
230
-1.0
  0
ARC
  5
B9
  8
KIT
 10
1487.89150559434
 20
70.59017341771408
 30
0.0
 40
3.781232991448261
 50
187.6946810425664
 51
198.110677250746
210
0.0
220
0.0
230
-1.0
  0
ARC
  5
BA
  8
KIT
 10
1486.813997371896
 20
70.23776718198064
 30
0.0
 40
2.647560144275007
 50
198.110677250699
 51
210.5816069390663
210
0.0
220
0.0
230
-1.0
  0
ARC
  5
BB
  8
KIT
 10
1486.167349698171
 20
69.8556209509203
 30
0.0
 40
1.896435017649861
 50
210.5816069391226
 51
227.9272823814808
210
0.0
220
0.0
230
-1.0
  0
ARC
  5
BC
  8
KIT
 10
1486.224064374402
 20
69.91844844162738
 30
0.0
 40
1.981074536129752
 50
227.9272823815916
 51
244.9097570929069
210
0.0
220
0.0
230
-1.0
  0
ARC
  5
BD
  8
KIT
 10
1486.688641767312
 20
70.91065479552302
 30
0.0
 40
3.076659130177148
 50
244.9097570929178
 51
255.8918681030511
210
0.0
220
0.0
230
-1.0
  0
ARC
  5
BE
  8
KIT
 10
1487.026569356104
 20
72.25519323806613
 30
0.0
 40
4.463013586563688
 50
255.8918681030684
 51
264.9812919452756
210
0.0
220
0.0
230
-1.0
  0
ARC
  5
BF
  8
KIT
 10
1487.622291848945
 20
79.0388207433775
 30
0.0
 40
11.27274834052387
 50
264.9812919452855
 51
268.5862781019372
210
0.0
220
0.0
230
-1.0
  0
LINE
  5
C0
  8
KIT
 10
-1487.344175130606
 20
67.76950371705493
 30
0.0
 11
-1496.078118933195
 21
67.7574270046465
 31
0.0
  0
ARC
  5
C1
  8
KIT
 10
-1496.078118933192
 20
28.46176328117376
 30
0.0
 40
39.29566372347274
 50
90.00000000000432
 51
91.38425103661852
  0
ARC
  5
C2
  8
KIT
 10
-1496.883410721216
 20
61.78725265994991
 30
0.0
 40
5.960446052085301
 50
91.38425103664369
 51
100.4914770123131
  0
ARC
  5
C3
  8
KIT
 10
-1497.320862819054
 20
64.14949398827505
 30
0.0
 40
3.558041333652154
 50
100.491477012306
 51
112.8330780114081
  0
ARC
  5
C4
  8
KIT
 10
-1497.939506884034
 20
65.61881495548522
 30
0.0
 40
1.96379399279862
 50
112.8330780113364
 51
157.1669219886593
  0
ARC
  5
C5
  8
KIT
 10
-1496.470185916771
 20
65.00017089049032
 30
0.0
 40
3.558041333706957
 50
157.1669219887057
 51
169.5085229876144
  0
ARC
  5
C6
  8
KIT
 10
-1494.107944588566
 20
64.56271879267368
 30
0.0
 40
5.960446052017547
 50
169.5085229876266
 51
178.6157489633991
  0
ARC
  5
C7
  8
KIT
 10
-1460.782455208224
 20
63.7574270046347
 30
0.0
 40
39.29566372497106
 50
178.6157489634214
 51
179.9999999999827
  0
CIRCLE
  5
C8
  8
KIT
 10
-1574.078118936987
 20
15.76950371705505
 30
0.0
 40
3.99999999999985
  0
CIRCLE
  5
C9
  8
KIT
 10
-1494.078118936987
 20
15.76950371705481
 30
0.0
 40
3.999999999999968
  0
CIRCLE
  5
CA
  8
KIT
 10
-1549.561380353985
 20
66.53148366532766
 30
0.0
 40
1.5
  0
CIRCLE
  5
CB
  8
KIT
 10
-1518.561380353985
 20
66.53148366532766
 30
0.0
 40
1.499999999999773
  0
CIRCLE
  5
CC
  8
KIT
 10
-1549.561380353985
 20
35.53148366532714
 30
0.0
 40
1.500000000000227
  0
CIRCLE
  5
CD
  8
KIT
 10
-1518.561380353985
 20
35.53148366532747
 30
0.0
 40
1.500000000000227
  0
CIRCLE
  5
CE
  8
KIT
 10
-1386.078118936987
 20
15.76950371705487
 30
0.0
 40
4.000000000000271
  0
CIRCLE
  5
CF
  8
KIT
 10
-1466.078118936987
 20
15.769503717055
 30
0.0
 40
3.999999999999893
  0
LINE
  5
D0
  8
KIT
 10
-1392.078118933195
 20
63.7574270046465
 30
0.0
 11
-1392.078118933195
 21
54.78158042946333
 31
0.0
  0
ARC
  5
D1
  8
KIT
 10
-1352.782455211333
 20
54.78158042943752
 30
0.0
 40
39.29566372186173
 50
179.9999999999624
 51
181.3842510366333
  0
ARC
  5
D2
  8
KIT
 10
-1386.107944588495
 20
53.9762886414435
 30
0.0
 40
5.960446052089553
 50
181.3842510366554
 51
190.4914770123182
  0
ARC
  5
D3
  8
KIT
 10
-1388.470185916862
 20
53.53883654359311
 30
0.0
 40
3.558041333612285
 50
190.4914770122373
 51
202.8330780114763
  0
ARC
  5
D4
  8
KIT
 10
-1389.939506884032
 20
52.92019247862663
 30
0.0
 40
1.963793992801493
 50
202.833078011373
 51
247.1669219886269
  0
ARC
  5
D5
  8
KIT
 10
-1389.320862819047
 20
54.38951344585656
 30
0.0
 40
3.558041333675029
 50
247.1669219886313
 51
259.5085229876505
  0
ARC
  5
D6
  8
KIT
 10
-1388.88341072122
 20
56.75175477412842
 30
0.0
 40
5.960446052053787
 50
259.5085229876708
 51
268.6157489633883
  0
ARC
  5
D7
  8
KIT
 10
-1388.078118933196
 20
90.07724415295577
 30
0.0
 40
39.29566372349241
 50
268.6157489633875
 51
270.000000000001
  0
LINE
  5
D8
  8
KIT
 10
-1388.078118933195
 20
50.78158042946336
 30
0.0
 11
-1379.344175256859
 21
50.76950371705496
 31
0.0
  0
ARC
  5
D9
  8
KIT
 10
1379.62229191843
 20
39.50018508600411
 30
0.0
 40
11.27274994336313
 50
91.41372140838911
 51
95.01870716843483
210
0.0
220
0.0
230
-1.0
  0
ARC
  5
DA
  8
KIT
 10
1379.026569419356
 20
46.28381386639357
 30
0.0
 40
4.463013918668009
 50
95.01870716844286
 51
104.1081306276517
210
0.0
220
0.0
230
-1.0
  0
ARC
  5
DB
  8
KIT
 10
1378.688641823692
 20
47.62835246227208
 30
0.0
 40
3.076659311895962
 50
104.1081306276503
 51
115.0902413057765
210
0.0
220
0.0
230
-1.0
  0
ARC
  5
DC
  8
KIT
 10
1378.224064396312
 20
48.62055896198854
 30
0.0
 40
1.981074571170554
 50
115.0902413057314
 51
132.0727162004371
210
0.0
220
0.0
230
-1.0
  0
ARC
  5
DD
  8
KIT
 10
1378.167349690356
 20
48.68338648875113
 30
0.0
 40
1.896435006008743
 50
132.0727162005555
 51
149.4183920399521
210
0.0
220
0.0
230
-1.0
  0
ARC
  5
DE
  8
KIT
 10
1378.81399731294
 20
48.30124027237514
 30
0.0
 40
2.647560081134961
 50
149.4183920401541
 51
161.8893222352194
210
0.0
220
0.0
230
-1.0
  0
ARC
  5
DF
  8
KIT
 10
1379.891505522143
 20
47.94883403027868
 30
0.0
 40
3.781232917701706
 50
161.8893222352961
 51
172.3053188317942
210
0.0
220
0.0
230
-1.0
  0
ARC
  5
E0
  8
KIT
 10
1385.119000275081
 20
47.24254314872988
 30
0.0
 40
9.056225638204001
 50
172.3053188317581
 51
176.6642085273847
210
0.0
220
0.0
230
-1.0
  0
LINE
  5
E1
  8
KIT
 10
-1376.078118936987
 20
47.76950371705493
 30
0.0
 11
-1376.078118936987
 21
15.44800145468997
 31
0.0
  0
ARC
  5
E2
  8
KIT
 10
1387.204040082242
 20
15.44800145469104
 30
0.0
 40
11.12592114525501
 50
180.0000000000055
 51
201.4502382339998
210
0.0
220
0.0
230
-1.0
  0
ARC
  5
E3
  8
KIT
 10
1386.774191955164
 20
15.27911088038866
 30
0.0
 40
10.66408411941119
 50
201.4502382339998
 51
223.8065105760239
210
0.0
220
0.0
230
-1.0
  0
ARC
  5
E4
  8
KIT
 10
1386.499519964562
 20
15.01564999144251
 30
0.0
 40
10.28348414249902
 50
223.8065105760185
 51
246.4043688490644
210
0.0
220
0.0
230
-1.0
  0
ARC
  5
E5
  8
KIT
 10
1386.320759624107
 20
14.60639868076988
 30
0.0
 40
9.836894963714965
 50
246.4043688490603
 51
269.9999999999974
210
0.0
220
0.0
230
-1.0
  0
LINE
  5
E6
  8
KIT
 10
-1386.320759624106
 20
4.769503717054931
 30
0.0
 11
-1465.835478249868
 21
4.769503717054931
 31
0.0
  0
ARC
  5
E7
  8
KIT
 10
1465.835478249868
 20
14.60639868076789
 30
0.0
 40
9.83689496371296
 50
269.9999999999987
 51
293.5956311509419
210
0.0
220
0.0
230
-1.0
  0
ARC
  5
E8
  8
KIT
 10
1465.656717909406
 20
15.01564999144825
 30
0.0
 40
10.28348414250657
 50
293.5956311509516
 51
316.1934894239777
210
0.0
220
0.0
230
-1.0
  0
ARC
  5
E9
  8
KIT
 10
1465.382045918808
 20
15.27911088038957
 30
0.0
 40
10.66408411941284
 50
316.1934894239774
 51
338.5497617659977
210
0.0
220
0.0
230
-1.0
  0
ARC
  5
EA
  8
KIT
 10
1464.952197791756
 20
15.44800145468622
 30
0.0
 40
11.12592114523044
 50
338.5497617659763
 51
0.0000000000190274
210
0.0
220
0.0
230
-1.0
  0
LINE
  5
EB
  8
KIT
 10
-1476.078118936987
 20
15.44800145468992
 30
0.0
 11
-1476.078118936987
 21
47.76950371705493
 31
0.0
  0
ARC
  5
EC
  8
KIT
 10
1467.037237599208
 20
47.24254314876626
 30
0.0
 40
9.05622563788773
 50
3.335791472501389
 51
7.694681168280141
210
0.0
220
0.0
230
-1.0
  0
ARC
  5
ED
  8
KIT
 10
1472.264732351803
 20
47.94883403027106
 30
0.0
 40
3.781232917731115
 50
7.694681168262514
 51
18.11067776468091
210
0.0
220
0.0
230
-1.0
  0
ARC
  5
EE
  8
KIT
 10
1473.342240561099
 20
48.30124027240436
 30
0.0
 40
2.647560081064309
 50
18.11067776461731
 51
30.58160796001539
210
0.0
220
0.0
230
-1.0
  0
ARC
  5
EF
  8
KIT
 10
1473.988888183634
 20
48.68338648876363
 30
0.0
 40
1.896435005988503
 50
30.58160795997132
 51
47.92728379955862
210
0.0
220
0.0
230
-1.0
  0
ARC
  5
F0
  8
KIT
 10
1473.932173477654
 20
48.62055896197713
 30
0.0
 40
1.981074571184182
 50
47.92728379961765
 51
64.90975869420622
210
0.0
220
0.0
230
-1.0
  0
ARC
  5
F1
  8
KIT
 10
1473.467596050279
 20
47.62835246226388
 30
0.0
 40
3.076659311904554
 50
64.90975869424226
 51
75.89186937234194
210
0.0
220
0.0
230
-1.0
  0
ARC
  5
F2
  8
KIT
 10
1473.129668454618
 20
46.28381386638971
 30
0.0
 40
4.463013918671836
 50
75.89186937235769
 51
84.98129283155852
210
0.0
220
0.0
230
-1.0
  0
ARC
  5
F3
  8
KIT
 10
1472.533945955541
 20
39.50018508594194
 30
0.0
 40
11.27274994342533
 50
84.98129283157785
 51
88.58627859160366
210
0.0
220
0.0
230
-1.0
  0
LINE
  5
F4
  8
KIT
 10
-1472.812062617115
 20
50.76950371705493
 30
0.0
 11
-1464.078118940779
 21
50.78158042946336
 31
0.0
  0
ARC
  5
F5
  8
KIT
 10
-1464.078118940778
 20
90.07724415285655
 30
0.0
 40
39.29566372339319
 50
269.9999999999997
 51
271.3842510366167
  0
ARC
  5
F6
  8
KIT
 10
-1463.272827152754
 20
56.75175477412978
 30
0.0
 40
5.960446052055114
 50
271.3842510366179
 51
280.4914770123335
  0
ARC
  5
F7
  8
KIT
 10
-1462.835375054922
 20
54.38951344584508
 30
0.0
 40
3.558041333662824
 50
280.4914770123151
 51
292.83307801138
  0
ARC
  5
F8
  8
KIT
 10
-1462.216730989941
 20
52.92019247862515
 30
0.0
 40
1.963793992799663
 50
292.8330780113595
 51
337.1669219886513
  0
ARC
  5
F9
  8
KIT
 10
-1463.686051957183
 20
53.53883654361448
 30
0.0
 40
3.558041333686388
 50
337.1669219886526
 51
349.5085229876332
  0
ARC
  5
FA
  8
KIT
 10
-1466.048293285336
 20
53.97628864142573
 30
0.0
 40
5.960446051945918
 50
349.5085229875996
 51
358.6157489634822
  0
ARC
  5
FB
  8
KIT
 10
-1499.373782661084
 20
54.78158042942812
 30
0.0
 40
39.2956637203049
 50
358.6157489633255
 51
0.0000000000513452
  0
LINE
  5
FC
  8
KIT
 10
-1460.078118940779
 20
54.78158042946333
 30
0.0
 11
-1460.078118940779
 21
63.7574270046465
 31
0.0
  0
ARC
  5
FD
  8
KIT
 10
-1499.373782664206
 20
63.75742700464408
 30
0.0
 40
39.29566372342697
 50
0.0000000000035328
 51
1.384251036619515
  0
ARC
  5
FE
  8
KIT
 10
-1466.048293285375
 20
64.56271879267881
 30
0.0
 40
5.960446051984919
 50
1.384251036560559
 51
10.49147701238415
  0
ARC
  5
FF
  8
KIT
 10
-1463.686051957148
 20
65.00017089050607
 30
0.0
 40
3.558041333650475
 50
10.49147701230076
 51
22.83307801140766
  0
ARC
  5
100
  8
KIT
 10
-1462.216730989942
 20
65.61881495548319
 30
0.0
 40
1.963793992801785
 50
22.8330780113762
 51
67.16692198862326
  0
ARC
  5
101
  8
KIT
 10
-1462.835375054924
 20
64.14949398826283
 30
0.0
 40
3.558041333665146
 50
67.16692198861591
 51
79.50852298766942
  0
ARC
  5
102
  8
KIT
 10
-1463.272827152753
 20
61.78725265998517
 30
0.0
 40
5.960446052050065
 50
79.50852298766861
 51
88.61574896339187
  0
ARC
  5
103
  8
KIT
 10
-1464.078118940778
 20
28.46176328104283
 30
0.0
 40
39.29566372360366
 50
88.61574896339074
 51
90.00000000000034
  0
LINE
  5
104
  8
KIT
 10
-1464.078118940779
 20
67.7574270046465
 30
0.0
 11
-1472.812062743368
 21
67.76950371705493
 31
0.0
  0
ARC
  5
105
  8
KIT
 10
1472.533946025029
 20
79.0388207433775
 30
0.0
 40
11.27274834052386
 50
271.4137218980628
 51
275.0187080547145
210
0.0
220
0.0
230
-1.0
  0
ARC
  5
106
  8
KIT
 10
1473.129668517873
 20
72.25519323805221
 30
0.0
 40
4.463013586549541
 50
275.0187080547051
 51
284.1081318969411
210
0.0
220
0.0
230
-1.0
  0
ARC
  5
107
  8
KIT
 10
1473.467596106657
 20
70.91065479553686
 30
0.0
 40
3.076659130191711
 50
284.1081318969683
 51
295.0902429070534
210
0.0
220
0.0
230
-1.0
  0
ARC
  5
108
  8
KIT
 10
1473.93217349957
 20
69.91844844163143
 30
0.0
 40
1.981074536134391
 50
295.0902429071029
 51
312.0727176183843
210
0.0
220
0.0
230
-1.0
  0
ARC
  5
109
  8
KIT
 10
1473.988888175832
 20
69.85562095089585
 30
0.0
 40
1.896435017612532
 50
312.0727176183711
 51
329.41839306107
210
0.0
220
0.0
230
-1.0
  0
ARC
  5
10A
  8
KIT
 10
1473.342240502094
 20
70.23776718197223
 30
0.0
 40
2.647560144256642
 50
329.4183930609101
 51
341.8893227493623
210
0.0
220
0.0
230
-1.0
  0
ARC
  5
10B
  8
KIT
 10
1472.264732279555
 20
70.59017341773352
 30
0.0
 40
3.781232991529286
 50
341.8893227493456
 51
352.3053189573022
210
0.0
220
0.0
230
-1.0
  0
ARC
  5
10C
  8
KIT
 10
1467.037237519708
 20
71.2964642885248
 30
0.0
 40
9.056225717437298
 50
352.3053189574599
 51
356.6642085366727
210
0.0
220
0.0
230
-1.0
  0
LINE
  5
10D
  8
KIT
 10
-1476.078118936987
 20
70.76950371705493
 30
0.0
 11
-1476.078118936987
 21
92.09100597941998
 31
0.0
  0
ARC
  5
10E
  8
KIT
 10
1464.952197791745
 20
92.09100597942131
 30
0.0
 40
11.12592114524227
 50
359.9999999999931
 51
21.45023823401233
210
0.0
220
0.0
230
-1.0
  0
ARC
  5
10F
  8
KIT
 10
1465.38204591881
 20
92.25989655372132
 30
0.0
 40
10.66408411941097
 50
21.45023823400007
 51
43.80651057602438
210
0.0
220
0.0
230
-1.0
  0
ARC
  5
110
  8
KIT
 10
1465.656717909406
 20
92.52335744266004
 30
0.0
 40
10.2834841425082
 50
43.80651057602605
 51
66.40436884904962
210
0.0
220
0.0
230
-1.0
  0
ARC
  5
111
  8
KIT
 10
1465.835478249868
 20
92.93260875334062
 30
0.0
 40
9.836894963714341
 50
66.40436884906019
 51
90.0
210
0.0
220
0.0
230
-1.0
  0
LINE
  5
112
  8
KIT
 10
-1465.835478249868
 20
102.769503717055
 30
0.0
 11
-1386.320759624106
 21
102.769503717055
 31
0.0
  0
ARC
  5
113
  8
KIT
 10
1386.320759624106
 20
92.9326087533426
 30
0.0
 40
9.836894963712382
 50
89.99999999999868
 51
113.595631150942
210
0.0
220
0.0
230
-1.0
  0
ARC
  5
114
  8
KIT
 10
1386.499519964562
 20
92.52335744266836
 30
0.0
 40
10.28348414249807
 50
113.5956311509364
 51
136.1934894239836
210
0.0
220
0.0
230
-1.0
  0
ARC
  5
115
  8
KIT
 10
1386.774191955165
 20
92.25989655372086
 30
0.0
 40
10.66408411941177
 50
136.1934894239764
 51
158.549761765999
210
0.0
220
0.0
230
-1.0
  0
ARC
  5
116
  8
KIT
 10
1387.20404008223
 20
92.09100597942131
 30
0.0
 40
11.12592114524249
 50
158.5497617659881
 51
180.0000000000069
210
0.0
220
0.0
230
-1.0
  0
LINE
  5
117
  8
KIT
 10
-1376.078118936987
 20
92.09100597941998
 30
0.0
 11
-1376.078118936987
 21
70.76950371705493
 31
0.0
  0
ARC
  5
118
  8
KIT
 10
1385.11900035333
 20
71.29646428843449
 30
0.0
 40
9.056225716498439
 50
183.3357914631012
 51
187.6946810427661
210
0.0
220
0.0
230
-1.0
  0
ARC
  5
119
  8
KIT
 10
1379.891505594339
 20
70.59017341771388
 30
0.0
 40
3.781232991447108
 50
187.6946810425657
 51
198.1106772507485
210
0.0
220
0.0
230
-1.0
  0
ARC
  5
11A
  8
KIT
 10
1378.813997371927
 20
70.23776718199463
 30
0.0
 40
2.647560144308745
 50
198.1106772507786
 51
210.5816069389861
210
0.0
220
0.0
230
-1.0
  0
ARC
  5
11B
  8
KIT
 10
1378.167349698153
 20
69.8556209509062
 30
0.0
 40
1.896435017627421
 50
210.5816069390286
 51
227.9272823815994
210
0.0
220
0.0
230
-1.0
  0
ARC
  5
11C
  8
KIT
 10
1378.224064374404
 20
69.91844844163012
 30
0.0
 40
1.981074536133159
 50
227.9272823816009
 51
244.9097570928876
210
0.0
220
0.0
230
-1.0
  0
ARC
  5
11D
  8
KIT
 10
1378.688641767312
 20
70.91065479552405
 30
0.0
 40
3.076659130178197
 50
244.9097570929223
 51
255.8918681030557
210
0.0
220
0.0
230
-1.0
  0
ARC
  5
11E
  8
KIT
 10
1379.026569356103
 20
72.2551932380638
 30
0.0
 40
4.463013586561317
 50
255.8918681030669
 51
264.9812919452788
210
0.0
220
0.0
230
-1.0
  0
ARC
  5
11F
  8
KIT
 10
1379.622291848943
 20
79.03882074334858
 30
0.0
 40
11.27274834049492
 50
264.9812919452807
 51
268.5862781019416
210
0.0
220
0.0
230
-1.0
  0
LINE
  5
120
  8
KIT
 10
-1379.344175130606
 20
67.76950371705493
 30
0.0
 11
-1388.078118933195
 21
67.7574270046465
 31
0.0
  0
ARC
  5
121
  8
KIT
 10
-1388.078118933196
 20
28.46176328090792
 30
0.0
 40
39.29566372373858
 50
89.99999999999801
 51
91.38425103660317
  0
ARC
  5
122
  8
KIT
 10
-1388.883410721221
 20
61.78725265998365
 30
0.0
 40
5.96044605205163
 50
91.38425103660559
 51
100.4914770123286
  0
ARC
  5
123
  8
KIT
 10
-1389.320862819048
 20
64.14949398825637
 30
0.0
 40
3.55804133367183
 50
100.4914770123367
 51
112.8330780113706
  0
ARC
  5
124
  8
KIT
 10
-1389.939506884033
 20
65.61881495548471
 30
0.0
 40
1.963793992799883
 50
112.833078011364
 51
157.1669219886508
  0
ARC
  5
125
  8
KIT
 10
-1388.470185916809
 20
65.00017089050186
 30
0.0
 40
3.558041333667572
 50
157.1669219886363
 51
169.5085229876813
  0
ARC
  5
126
  8
KIT
 10
-1386.107944588601
 20
64.56271879267906
 30
0.0
 40
5.960446051982411
 50
169.5085229876139
 51
178.6157489634413
  0
ARC
  5
127
  8
KIT
 10
-1352.782455214449
 20
63.75742700471004
 30
0.0
 40
39.29566371874603
 50
178.6157489633118
 51
180.0000000000927
  0
LINE
  5
128
  8
KIT
 10
-1390.078118936987
 20
91.76950349390984
 30
0.0
 11
-1390.078118936987
 21
83.76950406759823
 31
0.0
  0
ARC
  5
129
  8
KIT
 10
-1386.078118936987
 20
83.76950371705539
 30
0.0
 40
3.99999999999956
 50
179.9999949788436
 51
0.0000053550501479
  0
LINE
  5
12A
  8
KIT
 10
-1382.078118936987
 20
83.76950409090841
 30
0.0
 11
-1382.078118936987
 21
91.7695034579435
 31
0.0
  0
ARC
  5
12B
  8
KIT
 10
-1386.078118936987
 20
91.7695037170547
 30
0.0
 40
4.000000000000235
 50
359.9999962885054
 51
180.0000031963148
  0
ARC
  5
12C
  8
KIT
 10
-1466.078118936987
 20
91.76950371705493
 30
0.0
 40
3.999999999999779
 50
359.999996803682
 51
180.0000037114979
  0
LINE
  5
12D
  8
KIT
 10
-1470.078118936987
 20
91.7695034579435
 30
0.0
 11
-1470.078118936987
 21
83.76950409090841
 31
0.0
  0
ARC
  5
12E
  8
KIT
 10
-1466.078118936987
 20
83.76950371705516
 30
0.0
 40
4.000000000000244
 50
179.9999946449466
 51
0.0000050211592832
  0
LINE
  5
12F
  8
KIT
 10
-1462.078118936987
 20
83.7695040675982
 30
0.0
 11
-1462.078118936987
 21
91.76950349390984
 31
0.0
  0
LINE
  5
130
  8
KIT
 10
-1447.848275994342
 20
23.76950371705493
 30
0.0
 11
-1404.274484713628
 21
23.76950371705493
 31
0.0
  0
ARC
  5
131
  8
KIT
 10
-1404.274484713628
 20
27.86934548432057
 30
0.0
 40
4.099841767265609
 50
269.9999999999905
 51
317.2855769234342
  0
ARC
  5
132
  8
KIT
 10
-1404.634580285843
 20
28.20179998736666
 30
0.0
 40
4.589938510495992
 50
317.285576923438
 51
359.9999999999933
  0
LINE
  5
133
  8
KIT
 10
-1400.044641775348
 20
28.20179998736614
 30
0.0
 11
-1400.044641775348
 21
73.86116734328891
 31
0.0
  0
ARC
  5
134
  8
KIT
 10
-1404.634580285842
 20
73.86116734328868
 30
0.0
 40
4.589938510494449
 50
0.0000000000028383
 51
42.71442307657469
  0
ARC
  5
135
  8
KIT
 10
-1404.274484713628
 20
74.19362184633421
 30
0.0
 40
4.099841767265886
 50
42.7144230765661
 51
90.00000000000635
  0
LINE
  5
136
  8
KIT
 10
-1404.274484713628
 20
78.29346361360012
 30
0.0
 11
-1447.848275994342
 21
78.29346361360012
 31
0.0
  0
ARC
  5
137
  8
KIT
 10
-1447.848275994341
 20
74.19362184633236
 30
0.0
 40
4.099841767267762
 50
90.00000000000635
 51
137.2855769234218
  0
ARC
  5
138
  8
KIT
 10
-1447.488180422129
 20
73.86116734328957
 30
0.0
 40
4.589938510492853
 50
137.2855769234218
 51
180.0000000000082
  0
LINE
  5
139
  8
KIT
 10
-1452.078118932622
 20
73.86116734328891
 30
0.0
 11
-1452.078118932622
 21
28.20179998736614
 31
0.0
  0
ARC
  5
13A
  8
KIT
 10
-1447.488180422127
 20
28.2017999873666
 30
0.0
 40
4.589938510495585
 50
180.000000000006
 51
222.7144230765651
  0
ARC
  5
13B
  8
KIT
 10
-1447.848275994342
 20
27.86934548432079
 30
0.0
 40
4.099841767265831
 50
222.7144230765653
 51
270.0000000000064
  0
ENDSEC
  0
EOF
