  0
SECTION
  2
HEADER
  9
$ACADVER
  1
AC1009
  9
$DWGCODEPAGE
  3
ansi_1252
  9
$INSBASE
 10
0.0
 20
0.0
 30
0.0
  9
$EXTMIN
 10
-1092.0
 20
49.76950371705493
 30
0.0
  9
$EXTMAX
 10
-883.9999999999998
 20
147.769503717055
 30
0.0
  9
$LIMMIN
 10
0.0
 20
0.0
  9
$LIMMAX
 10
12.0
 20
9.0
  9
$ORTHOMODE
 70
     0
  9
$REGENMODE
 70
     1
  9
$FILLMODE
 70
     1
  9
$QTEXTMODE
 70
     0
  9
$MIRRTEXT
 70
     1
  9
$DRAGMODE
 70
     2
  9
$LTSCALE
 40
1.0
  9
$OSMODE
 70
    37
  9
$ATTMODE
 70
     1
  9
$TEXTSIZE
 40
0.2
  9
$TRACEWID
 40
0.05
  9
$TEXTSTYLE
  7
STANDARD
  9
$CLAYER
  8
0
  9
$CELTYPE
  6
BYLAYER
  9
$CECOLOR
 62
   256
  9
$DIMSCALE
 40
1.0
  9
$DIMASZ
 40
0.18
  9
$DIMEXO
 40
0.0625
  9
$DIMDLI
 40
0.38
  9
$DIMRND
 40
0.0
  9
$DIMDLE
 40
0.0
  9
$DIMEXE
 40
0.18
  9
$DIMTP
 40
0.0
  9
$DIMTM
 40
0.0
  9
$DIMTXT
 40
0.18
  9
$DIMCEN
 40
0.09
  9
$DIMTSZ
 40
0.0
  9
$DIMTOL
 70
     0
  9
$DIMLIM
 70
     0
  9
$DIMTIH
 70
     1
  9
$DIMTOH
 70
     1
  9
$DIMSE1
 70
     0
  9
$DIMSE2
 70
     0
  9
$DIMTAD
 70
     0
  9
$DIMZIN
 70
     0
  9
$DIMBLK
  1

  9
$DIMASO
 70
     1
  9
$DIMSHO
 70
     1
  9
$DIMPOST
  1

  9
$DIMAPOST
  1

  9
$DIMALT
 70
     0
  9
$DIMALTD
 70
     2
  9
$DIMALTF
 40
25.4
  9
$DIMLFAC
 40
1.0
  9
$DIMTOFL
 70
     0
  9
$DIMTVP
 40
0.0
  9
$DIMTIX
 70
     0
  9
$DIMSOXD
 70
     0
  9
$DIMSAH
 70
     0
  9
$DIMBLK1
  1

  9
$DIMBLK2
  1

  9
$DIMSTYLE
  2
STANDARD_ACAD
  9
$DIMCLRD
 70
     0
  9
$DIMCLRE
 70
     0
  9
$DIMCLRT
 70
     0
  9
$DIMTFAC
 40
1.0
  9
$DIMGAP
 40
0.09
  9
$LUNITS
 70
     2
  9
$LUPREC
 70
     3
  9
$SKETCHINC
 40
0.1
  9
$FILLETRAD
 40
0.0
  9
$AUNITS
 70
     0
  9
$AUPREC
 70
     0
  9
$MENU
  1
.
  9
$ELEVATION
 40
0.0
  9
$PELEVATION
 40
0.0
  9
$THICKNESS
 40
0.0
  9
$LIMCHECK
 70
     0
  9
$CHAMFERA
 40
0.0
  9
$CHAMFERB
 40
0.0
  9
$SKPOLY
 70
     0
  9
$TDCREATE
 40
2460455.785833229
  9
$TDUPDATE
 40
2460455.785841805
  9
$TDINDWG
 40
0.0000000116
  9
$TDUSRTIMER
 40
0.0000000116
  9
$USRTIMER
 70
     1
  9
$ANGBASE
 50
0.0
  9
$ANGDIR
 70
     0
  9
$PDMODE
 70
     0
  9
$PDSIZE
 40
0.0
  9
$PLINEWID
 40
0.0
  9
$COORDS
 70
     1
  9
$SPLFRAME
 70
     0
  9
$SPLINETYPE
 70
     6
  9
$SPLINESEGS
 70
     8
  9
$ATTDIA
 70
     0
  9
$ATTREQ
 70
     1
  9
$HANDLING
 70
     1
  9
$HANDSEED
  5
12B
  9
$SURFTAB1
 70
     6
  9
$SURFTAB2
 70
     6
  9
$SURFTYPE
 70
     6
  9
$SURFU
 70
     6
  9
$SURFV
 70
     6
  9
$UCSNAME
  2

  9
$UCSORG
 10
0.0
 20
0.0
 30
0.0
  9
$UCSXDIR
 10
1.0
 20
0.0
 30
0.0
  9
$UCSYDIR
 10
0.0
 20
1.0
 30
0.0
  9
$PUCSNAME
  2

  9
$PUCSORG
 10
0.0
 20
0.0
 30
0.0
  9
$PUCSXDIR
 10
1.0
 20
0.0
 30
0.0
  9
$PUCSYDIR
 10
0.0
 20
1.0
 30
0.0
  9
$USERI1
 70
     0
  9
$USERI2
 70
     0
  9
$USERI3
 70
     0
  9
$USERI4
 70
     0
  9
$USERI5
 70
     0
  9
$USERR1
 40
0.0
  9
$USERR2
 40
0.0
  9
$USERR3
 40
0.0
  9
$USERR4
 40
0.0
  9
$USERR5
 40
0.0
  9
$WORLDVIEW
 70
     1
  9
$SHADEDGE
 70
     3
  9
$SHADEDIF
 70
    70
  9
$TILEMODE
 70
     1
  9
$MAXACTVP
 70
    64
  9
$PLIMCHECK
 70
     0
  9
$PEXTMIN
 10
1.000000000000000E+20
 20
1.000000000000000E+20
 30
1.000000000000000E+20
  9
$PEXTMAX
 10
-1.000000000000000E+20
 20
-1.000000000000000E+20
 30
-1.000000000000000E+20
  9
$PLIMMIN
 10
0.0
 20
0.0
  9
$PLIMMAX
 10
12.0
 20
9.0
  9
$UNITMODE
 70
     0
  9
$VISRETAIN
 70
     1
  9
$PLINEGEN
 70
     0
  9
$PSLTSCALE
 70
     1
  0
ENDSEC
  0
SECTION
  2
TABLES
  0
TABLE
  2
VPORT
 70
     1
  0
VPORT
  2
*ACTIVE
 70
     0
 10
0.0
 20
0.0
 11
1.0
 21
1.0
 12
10.42990654205607
 22
4.5
 13
0.0
 23
0.0
 14
0.5
 24
0.5
 15
0.5
 25
0.5
 16
0.0
 26
0.0
 36
1.0
 17
0.0
 27
0.0
 37
0.0
 40
9.0
 41
1.972972972850329
 42
50.0
 43
0.0
 44
0.0
 50
0.0
 51
0.0
 71
     0
 72
   100
 73
     1
 74
     3
 75
     0
 76
     0
 77
     0
 78
     0
  0
ENDTAB
  0
TABLE
  2
LTYPE
 70
     1
  0
LTYPE
  2
CONTINUOUS
 70
     0
  3
Solid line
 72
    65
 73
     0
 40
0.0
  0
ENDTAB
  0
TABLE
  2
LAYER
 70
     2
  0
LAYER
  2
0
 70
     0
 62
     7
  6
CONTINUOUS
  0
LAYER
  2
KIT
 70
     0
 62
     7
  6
CONTINUOUS
  0
ENDTAB
  0
TABLE
  2
STYLE
 70
     1
  0
STYLE
  2
STANDARD
 70
     0
 40
0.0
 41
1.0
 50
0.0
 71
     0
 42
0.2
  3
txt
  4

  0
ENDTAB
  0
TABLE
  2
VIEW
 70
     0
  0
ENDTAB
  0
TABLE
  2
UCS
 70
     0
  0
ENDTAB
  0
TABLE
  2
APPID
 70
     2
  0
APPID
  2
ACAD
 70
     0
  0
APPID
  2
RHINO
 70
     0
  0
ENDTAB
  0
TABLE
  2
DIMSTYLE
 70
     1
  0
DIMSTYLE
  2
STANDARD_ACAD
 70
     0
  3

  4

  5

  6

  7

 40
1.0
 41
0.18
 42
0.0625
 43
0.38
 44
0.18
 45
0.0
 46
0.0
 47
0.0
 48
0.0
140
0.18
141
0.09
142
0.0
143
25.4
144
1.0
145
0.0
146
1.0
147
0.09
 71
     0
 72
     0
 73
     1
 74
     1
 75
     0
 76
     0
 77
     0
 78
     0
170
     0
171
     2
172
     0
173
     0
174
     0
175
     0
176
     0
177
     0
178
     0
  0
ENDTAB
  0
ENDSEC
  0
SECTION
  2
BLOCKS
  0
BLOCK
  8
0
  2
$MODEL_SPACE
 70
     0
 10
0.0
 20
0.0
 30
0.0
  3
$MODEL_SPACE
  1

  0
ENDBLK
  5
21
  8
0
  0
BLOCK
 67
     1
  8
0
  2
$PAPER_SPACE
 70
     0
 10
0.0
 20
0.0
 30
0.0
  3
$PAPER_SPACE
  1

  0
ENDBLK
  5
1D
 67
     1
  8
0
  0
ENDSEC
  0
SECTION
  2
ENTITIES
  0
ARC
  5
60
  8
KIT
 10
-974.0
 20
136.769503717055
 30
0.0
 40
4.000000000000006
 50
359.9999968036803
 51
180.0000037114995
  0
LINE
  5
61
  8
KIT
 10
-978.0
 20
136.7695034579435
 30
0.0
 11
-978.0
 21
128.7695040909084
 31
0.0
  0
ARC
  5
62
  8
KIT
 10
-974.0
 20
128.769503717055
 30
0.0
 40
4.000000000000017
 50
179.999994644945
 51
0.0000050211609116
  0
LINE
  5
63
  8
KIT
 10
-970.0
 20
128.7695040675982
 30
0.0
 11
-970.0
 21
136.7695034939098
 31
0.0
  0
LINE
  5
64
  8
KIT
 10
-898.0
 20
136.7695034939098
 30
0.0
 11
-898.0
 21
128.7695040675982
 31
0.0
  0
ARC
  5
65
  8
KIT
 10
-893.9999999999999
 20
128.769503717055
 30
0.0
 40
4.000000000000129
 50
179.9999949788387
 51
0.0000053550550332
  0
LINE
  5
66
  8
KIT
 10
-890.0
 20
128.7695040909084
 30
0.0
 11
-890.0
 21
136.7695034579435
 31
0.0
  0
ARC
  5
67
  8
KIT
 10
-894.0
 20
136.7695037170549
 30
0.0
 40
4.000000000000008
 50
359.9999962885021
 51
180.000003196318
  0
LINE
  5
68
  8
KIT
 10
-899.9999999962081
 20
108.7574270046465
 30
0.0
 11
-899.9999999962081
 21
99.78158042946333
 31
0.0
  0
ARC
  5
69
  8
KIT
 10
-860.7043362759048
 20
99.7815804294187
 30
0.0
 40
39.29566372030331
 50
179.9999999999349
 51
181.3842510366608
  0
ARC
  5
6A
  8
KIT
 10
-894.0298256515431
 20
98.9762886414398
 30
0.0
 40
5.96044605205389
 50
181.384251036628
 51
190.4914770123454
  0
ARC
  5
6B
  8
KIT
 10
-896.3920669798033
 20
98.53883654361468
 30
0.0
 40
3.558041333687085
 50
190.4914770123675
 51
202.833078011346
  0
ARC
  5
6C
  8
KIT
 10
-897.8613879470441
 20
97.92019247862723
 30
0.0
 40
1.963793992802248
 50
202.8330780113827
 51
247.1669219886213
  0
ARC
  5
6D
  8
KIT
 10
-897.242743882061
 20
99.38951344585348
 30
0.0
 40
3.558041333671834
 50
247.1669219886255
 51
259.5085229876559
  0
ARC
  5
6E
  8
KIT
 10
-896.8052917842331
 20
101.7517547741295
 30
0.0
 40
5.96044605205487
 50
259.5085229876705
 51
268.6157489633864
  0
ARC
  5
6F
  8
KIT
 10
-895.9999999962105
 20
135.0772441528677
 30
0.0
 40
39.29566372340437
 50
268.6157489633869
 51
270.0000000000035
  0
LINE
  5
70
  8
KIT
 10
-895.9999999962083
 20
95.78158042946336
 30
0.0
 11
-887.2660563198715
 21
95.76950371705496
 31
0.0
  0
ARC
  5
71
  8
KIT
 10
887.5441729814428
 20
84.50018508600516
 30
0.0
 40
11.27274994336208
 50
91.41372140838867
 51
95.01870716843472
210
0.0
220
0.0
230
-1.0
  0
ARC
  5
72
  8
KIT
 10
886.9484504823673
 20
91.28381386640386
 30
0.0
 40
4.463013918657603
 50
95.01870716843261
 51
104.1081306276626
210
0.0
220
0.0
230
-1.0
  0
ARC
  5
73
  8
KIT
 10
886.6105228867044
 20
92.62835246227363
 30
0.0
 40
3.076659311894322
 50
104.108130627647
 51
115.0902413057792
210
0.0
220
0.0
230
-1.0
  0
ARC
  5
74
  8
KIT
 10
886.145945459332
 20
93.62055896197847
 30
0.0
 40
1.98107457118251
 50
115.0902413057837
 51
132.0727162003864
210
0.0
220
0.0
230
-1.0
  0
ARC
  5
75
  8
KIT
 10
886.0892307533579
 20
93.68338648876033
 30
0.0
 40
1.896435005994289
 50
132.072716200487
 51
149.4183920400163
210
0.0
220
0.0
230
-1.0
  0
ARC
  5
76
  8
KIT
 10
886.7358783759196
 20
93.30124027239009
 30
0.0
 40
2.647560081098971
 50
149.4183920400696
 51
161.8893222353051
210
0.0
220
0.0
230
-1.0
  0
ARC
  5
77
  8
KIT
 10
887.8133865851553
 20
92.94883403027882
 30
0.0
 40
3.781232917701229
 50
161.889322235296
 51
172.3053188317954
210
0.0
220
0.0
230
-1.0
  0
ARC
  5
78
  8
KIT
 10
893.0408813380951
 20
92.24254314872975
 30
0.0
 40
9.056225638205483
 50
172.3053188317586
 51
176.6642085273845
210
0.0
220
0.0
230
-1.0
  0
LINE
  5
79
  8
KIT
 10
-884.0
 20
92.76950371705493
 30
0.0
 11
-884.0
 21
60.44800145468997
 31
0.0
  0
ARC
  5
7A
  8
KIT
 10
895.1259211452549
 20
60.44800145469105
 30
0.0
 40
11.12592114525512
 50
180.0000000000055
 51
201.4502382339997
210
0.0
220
0.0
230
-1.0
  0
ARC
  5
7B
  8
KIT
 10
894.6960730181869
 20
60.27911088039485
 30
0.0
 40
10.66408411942245
 50
201.4502382340117
 51
223.806510576012
210
0.0
220
0.0
230
-1.0
  0
ARC
  5
7C
  8
KIT
 10
894.4214010275757
 20
60.01564999144277
 30
0.0
 40
10.28348414249953
 50
223.8065105760178
 51
246.4043688490617
210
0.0
220
0.0
230
-1.0
  0
ARC
  5
7D
  8
KIT
 10
894.2426406871191
 20
59.606398680768
 30
0.0
 40
9.836894963713059
 50
246.4043688490584
 51
270.0
210
0.0
220
0.0
230
-1.0
  0
LINE
  5
7E
  8
KIT
 10
-894.2426406871191
 20
49.76950371705493
 30
0.0
 11
-973.7573593128807
 21
49.76950371705493
 31
0.0
  0
ARC
  5
7F
  8
KIT
 10
973.7573593128808
 20
59.60639868076825
 30
0.0
 40
9.83689496371332
 50
269.9999999999993
 51
293.5956311509417
210
0.0
220
0.0
230
-1.0
  0
ARC
  5
80
  8
KIT
 10
973.5785989724244
 20
60.01564999144129
 30
0.0
 40
10.28348414249813
 50
293.5956311509411
 51
316.1934894239858
210
0.0
220
0.0
230
-1.0
  0
ARC
  5
81
  8
KIT
 10
973.3039269818219
 20
60.27911088038894
 30
0.0
 40
10.66408411941176
 50
316.1934894239765
 51
338.5497617659992
210
0.0
220
0.0
230
-1.0
  0
ARC
  5
82
  8
KIT
 10
972.8740788547634
 20
60.4480014546874
 30
0.0
 40
11.12592114523637
 50
338.5497617659819
 51
0.0000000000129533
210
0.0
220
0.0
230
-1.0
  0
LINE
  5
83
  8
KIT
 10
-984.0
 20
60.44800145468992
 30
0.0
 11
-983.9999999999998
 21
92.76950371705493
 31
0.0
  0
ARC
  5
84
  8
KIT
 10
974.9591186620625
 20
92.24254314875103
 30
0.0
 40
9.056225638046488
 50
3.335791472539391
 51
7.694681168241694
210
0.0
220
0.0
230
-1.0
  0
ARC
  5
85
  8
KIT
 10
980.1866134147898
 20
92.94883403026513
 30
0.0
 40
3.781232917757483
 50
7.69468116829914
 51
18.1106777646447
210
0.0
220
0.0
230
-1.0
  0
ARC
  5
86
  8
KIT
 10
981.264121624112
 20
93.30124027240441
 30
0.0
 40
2.647560081064291
 50
18.11067776461615
 51
30.58160796001446
210
0.0
220
0.0
230
-1.0
  0
ARC
  5
87
  8
KIT
 10
981.9107692466587
 20
93.6833864887733
 30
0.0
 40
1.896435005973408
 50
30.58160795990171
 51
47.927283799628
210
0.0
220
0.0
230
-1.0
  0
ARC
  5
88
  8
KIT
 10
981.8540545406732
 20
93.62055896198656
 30
0.0
 40
1.981074571172993
 50
47.92728379956915
 51
64.90975869425445
210
0.0
220
0.0
230
-1.0
  0
ARC
  5
89
  8
KIT
 10
981.3894771132949
 20
92.6283524622719
 30
0.0
 40
3.076659311896084
 50
64.90975869422685
 51
75.89186937235473
210
0.0
220
0.0
230
-1.0
  0
ARC
  5
8A
  8
KIT
 10
981.0515495176317
 20
91.28381386639482
 30
0.0
 40
4.463013918666654
 50
75.891869372353
 51
84.98129283156442
210
0.0
220
0.0
230
-1.0
  0
ARC
  5
8B
  8
KIT
 10
980.4558270185518
 20
84.50018508590432
 30
0.0
 40
11.27274994346299
 50
84.98129283158364
 51
88.5862785915974
210
0.0
220
0.0
230
-1.0
  0
LINE
  5
8C
  8
KIT
 10
-980.7339436801283
 20
95.76950371705493
 30
0.0
 11
-972.0000000037917
 21
95.78158042946336
 31
0.0
  0
ARC
  5
8D
  8
KIT
 10
-972.00000000379
 20
135.077244152749
 30
0.0
 40
39.2956637232856
 50
269.9999999999979
 51
271.3842510366186
  0
ARC
  5
8E
  8
KIT
 10
-971.1947082157666
 20
101.751754774128
 30
0.0
 40
5.960446052053359
 50
271.384251036615
 51
280.4914770123333
  0
ARC
  5
8F
  8
KIT
 10
-970.7572561179367
 20
99.38951344584852
 30
0.0
 40
3.558041333666433
 50
280.4914770123249
 51
292.8330780113773
  0
ARC
  5
90
  8
KIT
 10
-970.1386120529545
 20
97.92019247862606
 30
0.0
 40
1.963793992800811
 50
292.8330780113706
 51
337.1669219886364
  0
ARC
  5
91
  8
KIT
 10
-971.6079330201786
 20
98.53883654360925
 30
0.0
 40
3.558041333668327
 50
337.1669219886216
 51
349.508522987665
  0
ARC
  5
92
  8
KIT
 10
-973.9701743483851
 20
98.97628864142946
 30
0.0
 40
5.960446051981813
 50
349.508522987627
 51
358.6157489634546
  0
ARC
  5
93
  8
KIT
 10
-1007.295663727213
 20
99.78158042946576
 30
0.0
 40
39.29566372342094
 50
358.6157489633804
 51
359.9999999999964
  0
LINE
  5
94
  8
KIT
 10
-968.0000000037917
 20
99.78158042946333
 30
0.0
 11
-968.0000000037917
 21
108.7574270046465
 31
0.0
  0
ARC
  5
95
  8
KIT
 10
-1007.295663730334
 20
108.7574270046064
 30
0.0
 40
39.29566372654244
 50
0.0000000000584315
 51
1.384251036564665
  0
ARC
  5
96
  8
KIT
 10
-973.9701743483882
 20
109.5627187926788
 30
0.0
 40
5.960446051985033
 50
1.384251036560943
 51
10.49147701238435
  0
ARC
  5
97
  8
KIT
 10
-971.6079330201408
 20
110.0001708905122
 30
0.0
 40
3.558041333629022
 50
10.49147701226513
 51
22.83307801144626
  0
ARC
  5
98
  8
KIT
 10
-970.1386120529554
 20
110.6188149554828
 30
0.0
 40
1.963793992802254
 50
22.83307801138304
 51
67.1669219886181
  0
ARC
  5
99
  8
KIT
 10
-970.7572561179402
 20
109.1494939882503
 30
0.0
 40
3.55804133367807
 50
67.16692198863997
 51
79.5085229876484
  0
ARC
  5
9A
  8
KIT
 10
-971.1947082157653
 20
106.7872526599887
 30
0.0
 40
5.960446052046488
 50
79.5085229876667
 51
88.6157489633954
  0
ARC
  5
9B
  8
KIT
 10
-972.0000000037917
 20
73.46176328101937
 30
0.0
 40
39.29566372362713
 50
88.6157489633909
 51
89.99999999999967
  0
LINE
  5
9C
  8
KIT
 10
-972.0000000037917
 20
112.7574270046465
 30
0.0
 11
-980.7339438063811
 21
112.7695037170549
 31
0.0
  0
ARC
  5
9D
  8
KIT
 10
980.4558270880435
 20
124.0388207433529
 30
0.0
 40
11.27274834049922
 50
271.4137218980584
 51
275.018708054718
210
0.0
220
0.0
230
-1.0
  0
ARC
  5
9E
  8
KIT
 10
981.0515495808864
 20
117.2551932380501
 30
0.0
 40
4.463013586547396
 50
275.0187080547002
 51
284.1081318969405
210
0.0
220
0.0
230
-1.0
  0
ARC
  5
9F
  8
KIT
 10
981.3894771696736
 20
115.9106547955268
 30
0.0
 40
3.076659130181067
 50
284.1081318969505
 51
295.0902429070737
210
0.0
220
0.0
230
-1.0
  0
ARC
  5
A0
  8
KIT
 10
981.854054562581
 20
114.9184484416344
 30
0.0
 40
1.981074536137839
 50
295.0902429071144
 51
312.0727176183656
210
0.0
220
0.0
230
-1.0
  0
ARC
  5
A1
  8
KIT
 10
981.9107692388408
 20
114.8556209508993
 30
0.0
 40
1.89643501761773
 50
312.0727176183914
 51
329.4183930610417
210
0.0
220
0.0
230
-1.0
  0
ARC
  5
A2
  8
KIT
 10
981.2641215651065
 20
115.2377671819723
 30
0.0
 40
2.647560144257287
 50
329.4183930609155
 51
341.8893227493649
210
0.0
220
0.0
230
-1.0
  0
ARC
  5
A3
  8
KIT
 10
980.1866133426191
 20
115.5901734177217
 30
0.0
 40
3.781232991476878
 50
341.8893227492745
 51
352.3053189573757
210
0.0
220
0.0
230
-1.0
  0
ARC
  5
A4
  8
KIT
 10
974.9591185831869
 20
116.2964642884799
 30
0.0
 40
9.056225716970037
 50
352.3053189573474
 51
356.6642085367852
210
0.0
220
0.0
230
-1.0
  0
LINE
  5
A5
  8
KIT
 10
-983.9999999999998
 20
115.7695037170549
 30
0.0
 11
-984.0
 21
137.0910059794199
 31
0.0
  0
ARC
  5
A6
  8
KIT
 10
972.874078854751
 20
137.0910059794201
 30
0.0
 40
11.12592114524875
 50
359.9999999999993
 51
21.45023823400584
210
0.0
220
0.0
230
-1.0
  0
ARC
  5
A7
  8
KIT
 10
973.3039269818224
 20
137.2598965537211
 30
0.0
 40
10.66408411941136
 50
21.45023823400039
 51
43.80651057602389
210
0.0
220
0.0
230
-1.0
  0
ARC
  5
A8
  8
KIT
 10
973.5785989724233
 20
137.5233574426667
 30
0.0
 40
10.28348414250037
 50
43.80651057601624
 51
66.40436884905745
210
0.0
220
0.0
230
-1.0
  0
ARC
  5
A9
  8
KIT
 10
973.7573593128805
 20
137.93260875334
 30
0.0
 40
9.83689496371503
 50
66.4043688490605
 51
89.99999999999868
210
0.0
220
0.0
230
-1.0
  0
LINE
  5
AA
  8
KIT
 10
-973.7573593128807
 20
147.769503717055
 30
0.0
 11
-894.2426406871191
 21
147.769503717055
 31
0.0
  0
ARC
  5
AB
  8
KIT
 10
894.2426406871194
 20
137.9326087533407
 30
0.0
 40
9.836894963714286
 50
90.00000000000198
 51
113.5956311509407
210
0.0
220
0.0
230
-1.0
  0
ARC
  5
AC
  8
KIT
 10
894.4214010275764
 20
137.5233574426665
 30
0.0
 40
10.28348414250042
 50
113.5956311509403
 51
136.1934894239824
210
0.0
220
0.0
230
-1.0
  0
ARC
  5
AD
  8
KIT
 10
894.6960730181767
 20
137.2598965537215
 30
0.0
 40
10.66408411941058
 50
136.1934894239751
 51
158.5497617660003
210
0.0
220
0.0
230
-1.0
  0
ARC
  5
AE
  8
KIT
 10
895.1259211452494
 20
137.0910059794199
 30
0.0
 40
11.12592114524944
 50
158.5497617659948
 51
180.0
210
0.0
220
0.0
230
-1.0
  0
LINE
  5
AF
  8
KIT
 10
-884.0
 20
137.0910059794199
 30
0.0
 11
-884.0
 21
115.7695037170549
 31
0.0
  0
ARC
  5
B0
  8
KIT
 10
893.040881416656
 20
116.2964642884647
 30
0.0
 40
9.056225716812534
 50
183.3357914631769
 51
187.6946810426906
210
0.0
220
0.0
230
-1.0
  0
ARC
  5
B1
  8
KIT
 10
887.8133866573801
 20
115.5901734177204
 30
0.0
 40
3.781232991475914
 50
187.6946810426056
 51
198.1106772507086
210
0.0
220
0.0
230
-1.0
  0
ARC
  5
B2
  8
KIT
 10
886.73587843494
 20
115.2377671819945
 30
0.0
 40
2.64756014430861
 50
198.1106772507776
 51
210.5816069389861
210
0.0
220
0.0
230
-1.0
  0
ARC
  5
B3
  8
KIT
 10
886.0892307611651
 20
114.8556209509057
 30
0.0
 40
1.896435017626476
 50
210.5816069390275
 51
227.9272823816063
210
0.0
220
0.0
230
-1.0
  0
ARC
  5
B4
  8
KIT
 10
886.1459454374165
 20
114.9184484416299
 30
0.0
 40
1.98107453613288
 50
227.9272823816024
 51
244.9097570928909
210
0.0
220
0.0
230
-1.0
  0
ARC
  5
B5
  8
KIT
 10
886.6105228303245
 20
115.9106547955233
 30
0.0
 40
3.076659130177347
 50
244.9097570929242
 51
255.8918681030605
210
0.0
220
0.0
230
-1.0
  0
ARC
  5
B6
  8
KIT
 10
886.9484504191174
 20
117.2551932380717
 30
0.0
 40
4.463013586569326
 50
255.8918681030761
 51
264.9812919452717
210
0.0
220
0.0
230
-1.0
  0
ARC
  5
B7
  8
KIT
 10
887.5441729119552
 20
124.0388207433375
 30
0.0
 40
11.27274834048384
 50
264.9812919452804
 51
268.5862781019449
210
0.0
220
0.0
230
-1.0
  0
LINE
  5
B8
  8
KIT
 10
-887.2660561936186
 20
112.7695037170549
 30
0.0
 11
-895.9999999962083
 21
112.7574270046465
 31
0.0
  0
ARC
  5
B9
  8
KIT
 10
-895.9999999962081
 20
73.46176328083182
 30
0.0
 40
39.29566372381468
 50
90.0
 51
91.3842510366025
  0
ARC
  5
BA
  8
KIT
 10
-896.8052917842344
 20
106.7872526599893
 30
0.0
 40
5.960446052046007
 50
91.38425103660252
 51
100.4914770123342
  0
ARC
  5
BB
  8
KIT
 10
-897.2427438820598
 20
109.1494939882509
 30
0.0
 40
3.558041333677542
 50
100.4914770123457
 51
112.8330780113597
  0
ARC
  5
BC
  8
KIT
 10
-897.8613879470463
 20
110.6188149554849
 30
0.0
 40
1.963793992799585
 50
112.8330780113605
 51
157.1669219886547
  0
ARC
  5
BD
  8
KIT
 10
-896.3920669798035
 20
110.0001708904964
 30
0.0
 40
3.558041333686443
 50
157.1669219886694
 51
169.5085229876487
  0
ARC
  5
BE
  8
KIT
 10
-894.029825651578
 20
109.5627187926753
 30
0.0
 40
5.960446052018872
 50
169.5085229876418
 51
178.6157489634134
  0
ARC
  5
BF
  8
KIT
 10
-860.7043362743502
 20
108.7574270046725
 30
0.0
 40
39.29566372185786
 50
178.6157489633666
 51
180.0000000000379
  0
CIRCLE
  5
C0
  8
KIT
 10
-974.0
 20
60.76950371705498
 30
0.0
 40
4.000000000000044
  0
CIRCLE
  5
C1
  8
KIT
 10
-893.9999999999997
 20
60.76950371705488
 30
0.0
 40
4.000000000000007
  0
CIRCLE
  5
C2
  8
KIT
 10
-1002.0
 20
60.76950371705483
 30
0.0
 40
4.000000000000212
  0
CIRCLE
  5
C3
  8
KIT
 10
-1082.0
 20
60.76950371705503
 30
0.0
 40
4.000000000000147
  0
LINE
  5
C4
  8
KIT
 10
-1007.999999996208
 20
108.7574270046465
 30
0.0
 11
-1007.999999996208
 21
99.78158042946336
 31
0.0
  0
ARC
  5
C5
  8
KIT
 10
-968.7043362759039
 20
99.78158042941874
 30
0.0
 40
39.29566372030422
 50
179.9999999999349
 51
181.3842510366608
  0
ARC
  5
C6
  8
KIT
 10
-1002.029825651579
 20
98.97628864143608
 30
0.0
 40
5.960446052018339
 50
181.3842510366003
 51
190.4914770123724
  0
ARC
  5
C7
  8
KIT
 10
-1004.392066979804
 20
98.53883654361451
 30
0.0
 40
3.558041333686831
 50
190.4914770123655
 51
202.8330780113449
  0
ARC
  5
C8
  8
KIT
 10
-1005.861387947044
 20
97.92019247862791
 30
0.0
 40
1.963793992802827
 50
202.8330780113971
 51
247.1669219886218
  0
ARC
  5
C9
  8
KIT
 10
-1005.242743882064
 20
99.38951344584478
 30
0.0
 40
3.558041333662593
 50
247.1669219886145
 51
259.5085229876767
  0
ARC
  5
CA
  8
KIT
 10
-1004.805291784233
 20
101.751754774133
 30
0.0
 40
5.960446052058312
 50
259.5085229876711
 51
268.6157489633817
  0
ARC
  5
CB
  8
KIT
 10
-1003.999999996212
 20
135.0772441524796
 30
0.0
 40
39.29566372301619
 50
268.6157489633749
 51
270.0000000000052
  0
LINE
  5
CC
  8
KIT
 10
-1003.999999996208
 20
95.78158042946336
 30
0.0
 11
-995.2660563198715
 21
95.76950371705493
 31
0.0
  0
ARC
  5
CD
  8
KIT
 10
995.544172981446
 20
84.5001850859352
 30
0.0
 40
11.27274994343207
 50
91.41372140839724
 51
95.01870716842089
210
0.0
220
0.0
230
-1.0
  0
ARC
  5
CE
  8
KIT
 10
994.9484504823687
 20
91.2838138663934
 30
0.0
 40
4.463013918668114
 50
95.01870716843835
 51
104.1081306276468
210
0.0
220
0.0
230
-1.0
  0
ARC
  5
CF
  8
KIT
 10
994.6105228867083
 20
92.62835246226082
 30
0.0
 40
3.076659311907654
 50
104.1081306276545
 51
115.0902413057425
210
0.0
220
0.0
230
-1.0
  0
ARC
  5
D0
  8
KIT
 10
994.1459454593352
 20
93.6205589619737
 30
0.0
 40
1.981074571188287
 50
115.0902413058072
 51
132.0727162003592
210
0.0
220
0.0
230
-1.0
  0
ARC
  5
D1
  8
KIT
 10
994.0892307533467
 20
93.6833864887692
 30
0.0
 40
1.89643500598014
 50
132.0727162004056
 51
149.4183920400714
210
0.0
220
0.0
230
-1.0
  0
ARC
  5
D2
  8
KIT
 10
994.7358783759051
 20
93.3012402723968
 30
0.0
 40
2.647560081083187
 50
149.4183920400335
 51
161.8893222353445
210
0.0
220
0.0
230
-1.0
  0
ARC
  5
D3
  8
KIT
 10
995.8133865851566
 20
92.94883403027745
 30
0.0
 40
3.781232917702761
 50
161.8893222352805
 51
172.3053188317772
210
0.0
220
0.0
230
-1.0
  0
ARC
  5
D4
  8
KIT
 10
1001.040881338095
 20
92.24254314872985
 30
0.0
 40
9.056225638204909
 50
172.3053188317586
 51
176.6642085273849
210
0.0
220
0.0
230
-1.0
  0
LINE
  5
D5
  8
KIT
 10
-992.0
 20
92.76950371705493
 30
0.0
 11
-992.0
 21
60.44800145468997
 31
0.0
  0
ARC
  5
D6
  8
KIT
 10
1003.125921145255
 20
60.44800145469102
 30
0.0
 40
11.12592114525501
 50
180.0000000000053
 51
201.4502382339998
210
0.0
220
0.0
230
-1.0
  0
ARC
  5
D7
  8
KIT
 10
1002.696073018187
 20
60.27911088039525
 30
0.0
 40
10.66408411942249
 50
201.450238234014
 51
223.8065105760148
210
0.0
220
0.0
230
-1.0
  0
ARC
  5
D8
  8
KIT
 10
1002.421401027579
 20
60.01564999144664
 30
0.0
 40
10.28348414250426
 50
223.8065105760224
 51
246.4043688490553
210
0.0
220
0.0
230
-1.0
  0
ARC
  5
D9
  8
KIT
 10
1002.242640687119
 20
59.606398680768
 30
0.0
 40
9.836894963713059
 50
246.4043688490584
 51
270.0
210
0.0
220
0.0
230
-1.0
  0
LINE
  5
DA
  8
KIT
 10
-1002.242640687119
 20
49.76950371705493
 30
0.0
 11
-1081.757359312881
 21
49.76950371705493
 31
0.0
  0
ARC
  5
DB
  8
KIT
 10
1081.75735931288
 20
59.60639868076881
 30
0.0
 40
9.836894963713874
 50
270.0000000000013
 51
293.5956311509424
210
0.0
220
0.0
230
-1.0
  0
ARC
  5
DC
  8
KIT
 10
1081.578598972422
 20
60.01564999144505
 30
0.0
 40
10.28348414250245
 50
293.5956311509436
 51
316.19348942398
210
0.0
220
0.0
230
-1.0
  0
ARC
  5
DD
  8
KIT
 10
1081.303926981822
 20
60.279110880389
 30
0.0
 40
10.66408411941176
 50
316.1934894239765
 51
338.5497617659999
210
0.0
220
0.0
230
-1.0
  0
ARC
  5
DE
  8
KIT
 10
1080.874078854745
 20
60.44800145469101
 30
0.0
 40
11.12592114525479
 50
338.5497617659999
 51
359.9999999999947
210
0.0
220
0.0
230
-1.0
  0
LINE
  5
DF
  8
KIT
 10
-1092.0
 20
60.44800145468997
 30
0.0
 11
-1092.0
 21
92.76950371705493
 31
0.0
  0
ARC
  5
E0
  8
KIT
 10
1082.959118662061
 20
92.24254314874786
 30
0.0
 40
9.056225638048373
 50
3.335791472558778
 51
7.69468116826031
210
0.0
220
0.0
230
-1.0
  0
ARC
  5
E1
  8
KIT
 10
1088.186613414871
 20
92.94883403028359
 30
0.0
 40
3.781232917674908
 50
7.694681168185938
 51
18.11067776475917
210
0.0
220
0.0
230
-1.0
  0
ARC
  5
E2
  8
KIT
 10
1089.264121624062
 20
93.30124027238116
 30
0.0
 40
2.647560081118836
 50
18.11067776475878
 51
30.58160795990069
210
0.0
220
0.0
230
-1.0
  0
ARC
  5
E3
  8
KIT
 10
1089.910769246653
 20
93.68338648876784
 30
0.0
 40
1.896435005981498
 50
30.58160795995077
 51
47.92728379960818
210
0.0
220
0.0
230
-1.0
  0
ARC
  5
E4
  8
KIT
 10
1089.854054540679
 20
93.62055896199627
 30
0.0
 40
1.981074571161531
 50
47.92728379952239
 51
64.90975869430618
210
0.0
220
0.0
230
-1.0
  0
ARC
  5
E5
  8
KIT
 10
1089.389477113293
 20
92.62835246226497
 30
0.0
 40
3.076659311903454
 50
64.90975869424202
 51
75.89186937234554
210
0.0
220
0.0
230
-1.0
  0
ARC
  5
E6
  8
KIT
 10
1089.051549517635
 20
91.2838138664167
 30
0.0
 40
4.463013918644556
 50
75.89186937233286
 51
84.9812928315893
210
0.0
220
0.0
230
-1.0
  0
ARC
  5
E7
  8
KIT
 10
1088.455827018555
 20
84.50018508594692
 30
0.0
 40
11.27274994342033
 50
84.9812928315791
 51
88.5862785916065
210
0.0
220
0.0
230
-1.0
  0
LINE
  5
E8
  8
KIT
 10
-1088.733943680128
 20
95.76950371705493
 30
0.0
 11
-1080.000000003792
 21
95.78158042946336
 31
0.0
  0
ARC
  5
E9
  8
KIT
 10
-1080.000000003794
 20
135.0772441530843
 30
0.0
 40
39.29566372362095
 50
270.0000000000037
 51
271.3842510366126
  0
ARC
  5
EA
  8
KIT
 10
-1079.194708215766
 20
101.7517547741161
 30
0.0
 40
5.960446052041442
 50
271.384251036608
 51
280.4914770123423
  0
ARC
  5
EB
  8
KIT
 10
-1078.757256117936
 20
99.38951344584494
 30
0.0
 40
3.558041333662808
 50
280.4914770123264
 51
292.833078011388
  0
ARC
  5
EC
  8
KIT
 10
-1078.138612052955
 20
97.92019247862686
 30
0.0
 40
1.96379399280165
 50
292.8330780113711
 51
337.1669219886201
  0
ARC
  5
ED
  8
KIT
 10
-1079.60793302016
 20
98.53883654360357
 30
0.0
 40
3.558041333648833
 50
337.1669219885887
 51
349.5085229877
  0
ARC
  5
EE
  8
KIT
 10
-1081.970174348386
 20
98.97628864143101
 30
0.0
 40
5.960446051983099
 50
349.5085229876141
 51
358.61574896344
  0
ARC
  5
EF
  8
KIT
 10
-1115.295663727219
 20
99.78158042946586
 30
0.0
 40
39.29566372342742
 50
358.6157489633805
 51
359.9999999999963
  0
LINE
  5
F0
  8
KIT
 10
-1076.000000003792
 20
99.78158042946336
 30
0.0
 11
-1076.000000003792
 21
108.7574270046465
 31
0.0
  0
ARC
  5
F1
  8
KIT
 10
-1115.295663727203
 20
108.7574270046442
 30
0.0
 40
39.29566372341083
 50
0.0000000000034603
 51
1.384251036619804
  0
ARC
  5
F2
  8
KIT
 10
-1081.970174348386
 20
109.5627187926788
 30
0.0
 40
5.960446051982871
 50
1.384251036560215
 51
10.49147701238612
  0
ARC
  5
F3
  8
KIT
 10
-1079.607933020178
 20
110.0001708904995
 30
0.0
 40
3.558041333668398
 50
10.49147701235112
 51
22.83307801139532
  0
ARC
  5
F4
  8
KIT
 10
-1078.138612052954
 20
110.6188149554836
 30
0.0
 40
1.963793992800914
 50
22.83307801136711
 51
67.16692198863436
  0
ARC
  5
F5
  8
KIT
 10
-1078.757256117935
 20
109.1494939882667
 30
0.0
 40
3.558041333660858
 50
67.16692198861065
 51
79.50852298768271
  0
ARC
  5
F6
  8
KIT
 10
-1079.194708215766
 20
106.7872526599851
 30
0.0
 40
5.960446052050077
 50
79.50852298766196
 51
88.6157489633853
  0
ARC
  5
F7
  8
KIT
 10
-1080.000000003787
 20
73.46176328163314
 30
0.0
 40
39.29566372301336
 50
88.61574896337657
 51
90.00000000000698
  0
LINE
  5
F8
  8
KIT
 10
-1080.000000003792
 20
112.7574270046465
 30
0.0
 11
-1088.733943806381
 21
112.7695037170549
 31
0.0
  0
ARC
  5
F9
  8
KIT
 10
1088.455827088045
 20
124.0388207433231
 30
0.0
 40
11.27274834046937
 50
271.4137218980535
 51
275.0187080547215
210
0.0
220
0.0
230
-1.0
  0
ARC
  5
FA
  8
KIT
 10
1089.051549580885
 20
117.255193238056
 30
0.0
 40
4.463013586553394
 50
275.0187080547096
 51
284.1081318969376
210
0.0
220
0.0
230
-1.0
  0
ARC
  5
FB
  8
KIT
 10
1089.389477169681
 20
115.9106547955083
 30
0.0
 40
3.076659130161473
 50
284.1081318969134
 51
295.0902429071066
210
0.0
220
0.0
230
-1.0
  0
ARC
  5
FC
  8
KIT
 10
1089.854054562584
 20
114.9184484416287
 30
0.0
 40
1.981074536131341
 50
295.0902429071007
 51
312.0727176184025
210
0.0
220
0.0
230
-1.0
  0
ARC
  5
FD
  8
KIT
 10
1089.910769238833
 20
114.8556209509071
 30
0.0
 40
1.896435017628484
 50
312.0727176183989
 51
329.4183930609586
210
0.0
220
0.0
230
-1.0
  0
ARC
  5
FE
  8
KIT
 10
1089.264121565077
 20
115.2377671819858
 30
0.0
 40
2.647560144289378
 50
329.418393060988
 51
341.8893227492854
210
0.0
220
0.0
230
-1.0
  0
ARC
  5
FF
  8
KIT
 10
1088.186613342621
 20
115.5901734177215
 30
0.0
 40
3.781232991475394
 50
341.8893227492711
 51
352.3053189573761
210
0.0
220
0.0
230
-1.0
  0
ARC
  5
100
  8
KIT
 10
1082.959118582876
 20
116.2964642885068
 30
0.0
 40
9.056225717281444
 50
352.3053189574413
 51
356.6642085367291
210
0.0
220
0.0
230
-1.0
  0
LINE
  5
101
  8
KIT
 10
-1092.0
 20
115.7695037170549
 30
0.0
 11
-1092.0
 21
137.0910059794199
 31
0.0
  0
ARC
  5
102
  8
KIT
 10
1080.874078854757
 20
137.0910059794213
 30
0.0
 40
11.12592114524227
 50
359.999999999993
 51
21.45023823401219
210
0.0
220
0.0
230
-1.0
  0
ARC
  5
103
  8
KIT
 10
1081.3039269818
 20
137.2598965537073
 30
0.0
 40
10.66408411943724
 50
21.45023823402517
 51
43.80651057599319
210
0.0
220
0.0
230
-1.0
  0
ARC
  5
104
  8
KIT
 10
1081.578598972427
 20
137.5233574426718
 30
0.0
 40
10.28348414249416
 50
43.80651057601037
 51
66.40436884906521
210
0.0
220
0.0
230
-1.0
  0
ARC
  5
105
  8
KIT
 10
1081.757359312881
 20
137.9326087533424
 30
0.0
 40
9.83689496371266
 50
66.40436884905736
 51
90.0
210
0.0
220
0.0
230
-1.0
  0
LINE
  5
106
  8
KIT
 10
-1081.757359312881
 20
147.769503717055
 30
0.0
 11
-1002.242640687119
 21
147.769503717055
 31
0.0
  0
ARC
  5
107
  8
KIT
 10
1002.242640687119
 20
137.9326087533404
 30
0.0
 40
9.836894963714656
 50
90.00000000000065
 51
113.5956311509398
210
0.0
220
0.0
230
-1.0
  0
ARC
  5
108
  8
KIT
 10
1002.421401027575
 20
137.5233574426683
 30
0.0
 40
10.28348414249824
 50
113.5956311509366
 51
136.1934894239834
210
0.0
220
0.0
230
-1.0
  0
ARC
  5
109
  8
KIT
 10
1002.696073018173
 20
137.2598965537239
 30
0.0
 40
10.66408411940651
 50
136.1934894239715
 51
158.5497617660055
210
0.0
220
0.0
230
-1.0
  0
ARC
  5
10A
  8
KIT
 10
1003.125921145255
 20
137.0910059794189
 30
0.0
 40
11.12592114525523
 50
158.5497617660005
 51
179.9999999999947
210
0.0
220
0.0
230
-1.0
  0
LINE
  5
10B
  8
KIT
 10
-992.0
 20
137.0910059794199
 30
0.0
 11
-992.0
 21
115.7695037170549
 31
0.0
  0
ARC
  5
10C
  8
KIT
 10
1001.04088141681
 20
116.2964642884826
 30
0.0
 40
9.056225716967699
 50
183.3357914632329
 51
187.694681042672
210
0.0
220
0.0
230
-1.0
  0
ARC
  5
10D
  8
KIT
 10
995.813386657407
 20
115.5901734177265
 30
0.0
 40
3.781232991503437
 50
187.6946810426431
 51
198.1106772506703
210
0.0
220
0.0
230
-1.0
  0
ARC
  5
10E
  8
KIT
 10
994.735878434909
 20
115.2377671819805
 30
0.0
 40
2.647560144274738
 50
198.110677250697
 51
210.5816069390657
210
0.0
220
0.0
230
-1.0
  0
ARC
  5
10F
  8
KIT
 10
994.0892307611731
 20
114.8556209509114
 30
0.0
 40
1.896435017636052
 50
210.581606939058
 51
227.9272823815438
210
0.0
220
0.0
230
-1.0
  0
ARC
  5
110
  8
KIT
 10
994.1459454374143
 20
114.9184484416267
 30
0.0
 40
1.981074536129049
 50
227.9272823815866
 51
244.909757092908
210
0.0
220
0.0
230
-1.0
  0
ARC
  5
111
  8
KIT
 10
994.6105228303231
 20
115.9106547955198
 30
0.0
 40
3.076659130173577
 50
244.9097570929194
 51
255.8918681030691
210
0.0
220
0.0
230
-1.0
  0
ARC
  5
112
  8
KIT
 10
994.9484504191159
 20
117.2551932380641
 30
0.0
 40
4.463013586561592
 50
255.8918681030707
 51
264.9812919452821
210
0.0
220
0.0
230
-1.0
  0
ARC
  5
113
  8
KIT
 10
995.5441729119552
 20
124.0388207433339
 30
0.0
 40
11.27274834048023
 50
264.9812919452799
 51
268.5862781019456
210
0.0
220
0.0
230
-1.0
  0
LINE
  5
114
  8
KIT
 10
-995.2660561936186
 20
112.7695037170549
 30
0.0
 11
-1003.999999996208
 21
112.7574270046465
 31
0.0
  0
ARC
  5
115
  8
KIT
 10
-1003.999999996208
 20
73.46176328142313
 30
0.0
 40
39.29566372322337
 50
90.00000000000016
 51
91.38425103662317
  0
ARC
  5
116
  8
KIT
 10
-1004.805291784231
 20
106.7872526599652
 30
0.0
 40
5.960446052070002
 50
91.38425103663086
 51
100.4914770123237
  0
ARC
  5
117
  8
KIT
 10
-1005.242743882066
 20
109.1494939882731
 30
0.0
 40
3.558041333654213
 50
100.4914770123092
 51
112.8330780114006
  0
ARC
  5
118
  8
KIT
 10
-1005.861387947047
 20
110.6188149554846
 30
0.0
 40
1.96379399279924
 50
112.8330780113323
 51
157.166921988645
  0
ARC
  5
119
  8
KIT
 10
-1004.392066979784
 20
110.0001708904904
 30
0.0
 40
3.55804133370682
 50
157.1669219887063
 51
169.5085229876155
  0
ARC
  5
11A
  8
KIT
 10
-1002.029825651544
 20
109.56271879267
 30
0.0
 40
5.960446052052863
 50
169.5085229876539
 51
178.6157489633723
  0
ARC
  5
11B
  8
KIT
 10
-968.7043362727985
 20
108.7574270046536
 30
0.0
 40
39.29566372340958
 50
178.6157489633939
 51
180.0000000000103
  0
LINE
  5
11C
  8
KIT
 10
-1006.0
 20
136.7695034939099
 30
0.0
 11
-1006.0
 21
128.7695040675982
 31
0.0
  0
ARC
  5
11D
  8
KIT
 10
-1002.0
 20
128.7695037170549
 30
0.0
 40
4.000000000000015
 50
179.9999949788371
 51
0.0000053550566616
  0
LINE
  5
11E
  8
KIT
 10
-998.0
 20
128.7695040909084
 30
0.0
 11
-998.0
 21
136.7695034579435
 31
0.0
  0
ARC
  5
11F
  8
KIT
 10
-1002.0
 20
136.769503717055
 30
0.0
 40
3.999999999999894
 50
359.9999962885005
 51
180.0000031963193
  0
ARC
  5
120
  8
KIT
 10
-1082.0
 20
136.7695037170549
 30
0.0
 40
4.000000000000006
 50
359.9999968036824
 51
180.0000037114979
  0
LINE
  5
121
  8
KIT
 10
-1086.0
 20
136.7695034579435
 30
0.0
 11
-1086.0
 21
128.7695040909084
 31
0.0
  0
ARC
  5
122
  8
KIT
 10
-1082.0
 20
128.7695037170547
 30
0.0
 40
3.99999999999979
 50
179.9999946449401
 51
0.000005021165797
  0
LINE
  5
123
  8
KIT
 10
-1078.0
 20
128.7695040675982
 30
0.0
 11
-1078.0
 21
136.7695034939099
 31
0.0
  0
ENDSEC
  0
EOF
