  0
SECTION
  2
HEADER
  9
$ACADVER
  1
AC1009
  9
$DWGCODEPAGE
  3
ansi_1252
  9
$INSBASE
 10
0.0
 20
0.0
 30
0.0
  9
$EXTMIN
 10
466.0
 20
-288.0
 30
-70.85584843459112
  9
$EXTMAX
 10
915.2771925250338
 20
312.6451243320489
 30
-70.85584841098803
  9
$LIMMIN
 10
0.0
 20
0.0
  9
$LIMMAX
 10
12.0
 20
9.0
  9
$ORTHOMODE
 70
     0
  9
$REGENMODE
 70
     1
  9
$FILLMODE
 70
     1
  9
$QTEXTMODE
 70
     0
  9
$MIRRTEXT
 70
     1
  9
$DRAGMODE
 70
     2
  9
$LTSCALE
 40
1.0
  9
$OSMODE
 70
    37
  9
$ATTMODE
 70
     1
  9
$TEXTSIZE
 40
0.2
  9
$TRACEWID
 40
0.05
  9
$TEXTSTYLE
  7
STANDARD
  9
$CLAYER
  8
CAMERA_RIG
  9
$CELTYPE
  6
BYLAYER
  9
$CECOLOR
 62
   256
  9
$DIMSCALE
 40
1.0
  9
$DIMASZ
 40
0.18
  9
$DIMEXO
 40
0.0625
  9
$DIMDLI
 40
0.38
  9
$DIMRND
 40
0.0
  9
$DIMDLE
 40
0.0
  9
$DIMEXE
 40
0.18
  9
$DIMTP
 40
0.0
  9
$DIMTM
 40
0.0
  9
$DIMTXT
 40
0.18
  9
$DIMCEN
 40
0.09
  9
$DIMTSZ
 40
0.0
  9
$DIMTOL
 70
     0
  9
$DIMLIM
 70
     0
  9
$DIMTIH
 70
     1
  9
$DIMTOH
 70
     1
  9
$DIMSE1
 70
     0
  9
$DIMSE2
 70
     0
  9
$DIMTAD
 70
     0
  9
$DIMZIN
 70
     0
  9
$DIMBLK
  1

  9
$DIMASO
 70
     1
  9
$DIMSHO
 70
     1
  9
$DIMPOST
  1

  9
$DIMAPOST
  1

  9
$DIMALT
 70
     0
  9
$DIMALTD
 70
     2
  9
$DIMALTF
 40
25.4
  9
$DIMLFAC
 40
1.0
  9
$DIMTOFL
 70
     0
  9
$DIMTVP
 40
0.0
  9
$DIMTIX
 70
     0
  9
$DIMSOXD
 70
     0
  9
$DIMSAH
 70
     0
  9
$DIMBLK1
  1

  9
$DIMBLK2
  1

  9
$DIMSTYLE
  2
STANDARD_ACAD
  9
$DIMCLRD
 70
     0
  9
$DIMCLRE
 70
     0
  9
$DIMCLRT
 70
     0
  9
$DIMTFAC
 40
1.0
  9
$DIMGAP
 40
0.09
  9
$LUNITS
 70
     2
  9
$LUPREC
 70
     3
  9
$SKETCHINC
 40
0.1
  9
$FILLETRAD
 40
0.0
  9
$AUNITS
 70
     0
  9
$AUPREC
 70
     0
  9
$MENU
  1
.
  9
$ELEVATION
 40
0.0
  9
$PELEVATION
 40
0.0
  9
$THICKNESS
 40
0.0
  9
$LIMCHECK
 70
     0
  9
$CHAMFERA
 40
0.0
  9
$CHAMFERB
 40
0.0
  9
$SKPOLY
 70
     0
  9
$TDCREATE
 40
2460473.808489271
  9
$TDUPDATE
 40
2460473.80850368
  9
$TDINDWG
 40
0.0000000116
  9
$TDUSRTIMER
 40
0.0000000116
  9
$USRTIMER
 70
     1
  9
$ANGBASE
 50
0.0
  9
$ANGDIR
 70
     0
  9
$PDMODE
 70
     0
  9
$PDSIZE
 40
0.0
  9
$PLINEWID
 40
0.0
  9
$COORDS
 70
     1
  9
$SPLFRAME
 70
     0
  9
$SPLINETYPE
 70
     6
  9
$SPLINESEGS
 70
     8
  9
$ATTDIA
 70
     0
  9
$ATTREQ
 70
     1
  9
$HANDLING
 70
     1
  9
$HANDSEED
  5
176
  9
$SURFTAB1
 70
     6
  9
$SURFTAB2
 70
     6
  9
$SURFTYPE
 70
     6
  9
$SURFU
 70
     6
  9
$SURFV
 70
     6
  9
$UCSNAME
  2

  9
$UCSORG
 10
0.0
 20
0.0
 30
0.0
  9
$UCSXDIR
 10
1.0
 20
0.0
 30
0.0
  9
$UCSYDIR
 10
0.0
 20
1.0
 30
0.0
  9
$PUCSNAME
  2

  9
$PUCSORG
 10
0.0
 20
0.0
 30
0.0
  9
$PUCSXDIR
 10
1.0
 20
0.0
 30
0.0
  9
$PUCSYDIR
 10
0.0
 20
1.0
 30
0.0
  9
$USERI1
 70
     0
  9
$USERI2
 70
     0
  9
$USERI3
 70
     0
  9
$USERI4
 70
     0
  9
$USERI5
 70
     0
  9
$USERR1
 40
0.0
  9
$USERR2
 40
0.0
  9
$USERR3
 40
0.0
  9
$USERR4
 40
0.0
  9
$USERR5
 40
0.0
  9
$WORLDVIEW
 70
     1
  9
$SHADEDGE
 70
     3
  9
$SHADEDIF
 70
    70
  9
$TILEMODE
 70
     1
  9
$MAXACTVP
 70
    64
  9
$PLIMCHECK
 70
     0
  9
$PEXTMIN
 10
1.000000000000000E+20
 20
1.000000000000000E+20
 30
1.000000000000000E+20
  9
$PEXTMAX
 10
-1.000000000000000E+20
 20
-1.000000000000000E+20
 30
-1.000000000000000E+20
  9
$PLIMMIN
 10
0.0
 20
0.0
  9
$PLIMMAX
 10
12.0
 20
9.0
  9
$UNITMODE
 70
     0
  9
$VISRETAIN
 70
     1
  9
$PLINEGEN
 70
     0
  9
$PSLTSCALE
 70
     1
  0
ENDSEC
  0
SECTION
  2
TABLES
  0
TABLE
  2
VPORT
 70
     1
  0
VPORT
  2
*ACTIVE
 70
     0
 10
0.0
 20
0.0
 11
1.0
 21
1.0
 12
10.42990654205607
 22
4.5
 13
0.0
 23
0.0
 14
0.5
 24
0.5
 15
0.5
 25
0.5
 16
0.0
 26
0.0
 36
1.0
 17
0.0
 27
0.0
 37
0.0
 40
9.0
 41
1.972972972850329
 42
50.0
 43
0.0
 44
0.0
 50
0.0
 51
0.0
 71
     0
 72
   100
 73
     1
 74
     3
 75
     0
 76
     0
 77
     0
 78
     0
  0
ENDTAB
  0
TABLE
  2
LTYPE
 70
     1
  0
LTYPE
  2
CONTINUOUS
 70
     0
  3
Solid line
 72
    65
 73
     0
 40
0.0
  0
ENDTAB
  0
TABLE
  2
LAYER
 70
     2
  0
LAYER
  2
0
 70
     0
 62
     7
  6
CONTINUOUS
  0
LAYER
  2
CAMERA_RIG
 70
     0
 62
     7
  6
CONTINUOUS
  0
ENDTAB
  0
TABLE
  2
STYLE
 70
     1
  0
STYLE
  2
STANDARD
 70
     0
 40
0.0
 41
1.0
 50
0.0
 71
     0
 42
0.2
  3
txt
  4

  0
ENDTAB
  0
TABLE
  2
VIEW
 70
     0
  0
ENDTAB
  0
TABLE
  2
UCS
 70
     0
  0
ENDTAB
  0
TABLE
  2
APPID
 70
     2
  0
APPID
  2
ACAD
 70
     0
  0
APPID
  2
RHINO
 70
     0
  0
ENDTAB
  0
TABLE
  2
DIMSTYLE
 70
     1
  0
DIMSTYLE
  2
STANDARD_ACAD
 70
     0
  3

  4

  5

  6

  7

 40
1.0
 41
0.18
 42
0.0625
 43
0.38
 44
0.18
 45
0.0
 46
0.0
 47
0.0
 48
0.0
140
0.18
141
0.09
142
0.0
143
25.4
144
1.0
145
0.0
146
1.0
147
0.09
 71
     0
 72
     0
 73
     1
 74
     1
 75
     0
 76
     0
 77
     0
 78
     0
170
     0
171
     2
172
     0
173
     0
174
     0
175
     0
176
     0
177
     0
178
     0
  0
ENDTAB
  0
ENDSEC
  0
SECTION
  2
BLOCKS
  0
BLOCK
  8
0
  2
$MODEL_SPACE
 70
     0
 10
0.0
 20
0.0
 30
0.0
  3
$MODEL_SPACE
  1

  0
ENDBLK
  5
21
  8
0
  0
BLOCK
 67
     1
  8
0
  2
$PAPER_SPACE
 70
     0
 10
0.0
 20
0.0
 30
0.0
  3
$PAPER_SPACE
  1

  0
ENDBLK
  5
1D
 67
     1
  8
0
  0
ENDSEC
  0
SECTION
  2
ENTITIES
  0
CIRCLE
  5
60
  8
CAMERA_RIG
 10
509.0
 20
-91.0
 30
-70.85584841099308
 40
4.0
  0
CIRCLE
  5
61
  8
CAMERA_RIG
 10
541.0
 20
-91.0
 30
-70.85584841099308
 40
4.0
  0
CIRCLE
  5
62
  8
CAMERA_RIG
 10
573.0
 20
-91.0
 30
-70.85584841099308
 40
4.0
  0
CIRCLE
  5
63
  8
CAMERA_RIG
 10
605.0
 20
-91.0
 30
-70.85584841099308
 40
4.0
  0
CIRCLE
  5
64
  8
CAMERA_RIG
 10
637.0
 20
-91.0
 30
-70.85584841099308
 40
4.0
  0
CIRCLE
  5
65
  8
CAMERA_RIG
 10
669.0
 20
-91.00000000000011
 30
-70.85584841099308
 40
4.0
  0
CIRCLE
  5
66
  8
CAMERA_RIG
 10
701.0
 20
-91.0
 30
-70.85584841099308
 40
4.0
  0
CIRCLE
  5
67
  8
CAMERA_RIG
 10
733.0
 20
-91.0
 30
-70.85584841099308
 40
4.0
  0
CIRCLE
  5
68
  8
CAMERA_RIG
 10
765.0
 20
-90.99999999999989
 30
-70.85584841099308
 40
4.0
  0
CIRCLE
  5
69
  8
CAMERA_RIG
 10
796.9999999999999
 20
-91.0
 30
-70.85584841099308
 40
4.000000000000114
  0
CIRCLE
  5
6A
  8
CAMERA_RIG
 10
829.0
 20
-91.00000000000011
 30
-70.85584841099308
 40
4.0
  0
CIRCLE
  5
6B
  8
CAMERA_RIG
 10
861.0
 20
-91.0
 30
-70.85584841099308
 40
4.0
  0
CIRCLE
  5
6C
  8
CAMERA_RIG
 10
509.0
 20
-59.0
 30
-70.85584841099308
 40
4.0
  0
CIRCLE
  5
6D
  8
CAMERA_RIG
 10
541.0
 20
-59.0
 30
-70.85584841099308
 40
4.0
  0
CIRCLE
  5
6E
  8
CAMERA_RIG
 10
573.0
 20
-59.0
 30
-70.85584841099308
 40
4.0
  0
CIRCLE
  5
6F
  8
CAMERA_RIG
 10
605.0
 20
-58.99999999999989
 30
-70.85584841099308
 40
4.0
  0
CIRCLE
  5
70
  8
CAMERA_RIG
 10
637.0
 20
-59.0
 30
-70.85584841099308
 40
4.0
  0
CIRCLE
  5
71
  8
CAMERA_RIG
 10
669.0
 20
-59.0
 30
-70.85584841099308
 40
4.0
  0
CIRCLE
  5
72
  8
CAMERA_RIG
 10
701.0000000000001
 20
-59.0
 30
-70.85584841099308
 40
3.999999999999886
  0
CIRCLE
  5
73
  8
CAMERA_RIG
 10
733.0
 20
-59.0
 30
-70.85584841099308
 40
4.0
  0
CIRCLE
  5
74
  8
CAMERA_RIG
 10
765.0
 20
-59.0
 30
-70.85584841099308
 40
4.0
  0
CIRCLE
  5
75
  8
CAMERA_RIG
 10
796.9999999999999
 20
-59.0
 30
-70.85584841099308
 40
4.000000000000114
  0
CIRCLE
  5
76
  8
CAMERA_RIG
 10
829.0
 20
-59.0
 30
-70.85584841099308
 40
4.0
  0
CIRCLE
  5
77
  8
CAMERA_RIG
 10
861.0
 20
-58.99999999999989
 30
-70.85584841099308
 40
4.0
  0
CIRCLE
  5
78
  8
CAMERA_RIG
 10
509.0000000000001
 20
-26.99999999999994
 30
-70.85584841099308
 40
3.999999999999943
  0
CIRCLE
  5
79
  8
CAMERA_RIG
 10
541.0
 20
-27.0
 30
-70.85584841099308
 40
4.0
  0
CIRCLE
  5
7A
  8
CAMERA_RIG
 10
573.0
 20
-27.0
 30
-70.85584841099308
 40
4.0
  0
CIRCLE
  5
7B
  8
CAMERA_RIG
 10
605.0
 20
-26.99999999999989
 30
-70.85584841099308
 40
4.0
  0
CIRCLE
  5
7C
  8
CAMERA_RIG
 10
637.0
 20
-26.99999999999989
 30
-70.85584841099308
 40
4.0
  0
CIRCLE
  5
7D
  8
CAMERA_RIG
 10
669.0
 20
-27.0
 30
-70.85584841099308
 40
4.0
  0
CIRCLE
  5
7E
  8
CAMERA_RIG
 10
701.0
 20
-27.0
 30
-70.85584841099308
 40
4.0
  0
CIRCLE
  5
7F
  8
CAMERA_RIG
 10
733.0
 20
-27.00000000000011
 30
-70.85584841099308
 40
4.0
  0
CIRCLE
  5
80
  8
CAMERA_RIG
 10
765.0
 20
-27.0
 30
-70.85584841099308
 40
4.0
  0
CIRCLE
  5
81
  8
CAMERA_RIG
 10
796.9999999999999
 20
-27.00000000000011
 30
-70.85584841099308
 40
4.000000000000114
  0
CIRCLE
  5
82
  8
CAMERA_RIG
 10
829.0
 20
-27.00000000000011
 30
-70.85584841099308
 40
4.0
  0
CIRCLE
  5
83
  8
CAMERA_RIG
 10
861.0
 20
-27.0
 30
-70.85584841099308
 40
4.0
  0
CIRCLE
  5
84
  8
CAMERA_RIG
 10
509.0
 20
5.0
 30
-70.85584841099308
 40
4.0
  0
CIRCLE
  5
85
  8
CAMERA_RIG
 10
541.0
 20
5.0
 30
-70.85584841099308
 40
4.0
  0
CIRCLE
  5
86
  8
CAMERA_RIG
 10
573.0
 20
5.0
 30
-70.85584841099308
 40
4.0
  0
CIRCLE
  5
87
  8
CAMERA_RIG
 10
605.0
 20
5.0
 30
-70.85584841099308
 40
4.0
  0
CIRCLE
  5
88
  8
CAMERA_RIG
 10
637.0
 20
5.0
 30
-70.85584841099308
 40
4.0
  0
CIRCLE
  5
89
  8
CAMERA_RIG
 10
669.0
 20
5.0
 30
-70.85584841099308
 40
4.0
  0
CIRCLE
  5
8A
  8
CAMERA_RIG
 10
700.9999999999999
 20
4.999999999999886
 30
-70.85584841099308
 40
4.000000000000114
  0
CIRCLE
  5
8B
  8
CAMERA_RIG
 10
733.0
 20
5.0
 30
-70.85584841099308
 40
4.0
  0
CIRCLE
  5
8C
  8
CAMERA_RIG
 10
765.0
 20
5.000000000000114
 30
-70.85584841099308
 40
4.0
  0
CIRCLE
  5
8D
  8
CAMERA_RIG
 10
796.9999999999999
 20
5.0
 30
-70.85584841099308
 40
4.000000000000114
  0
CIRCLE
  5
8E
  8
CAMERA_RIG
 10
829.0
 20
5.0
 30
-70.85584841099308
 40
4.0
  0
CIRCLE
  5
8F
  8
CAMERA_RIG
 10
861.0
 20
5.000000000000114
 30
-70.85584841099308
 40
4.0
  0
CIRCLE
  5
90
  8
CAMERA_RIG
 10
509.0
 20
37.0
 30
-70.85584841099308
 40
4.0
  0
CIRCLE
  5
91
  8
CAMERA_RIG
 10
541.0
 20
37.0
 30
-70.85584841099308
 40
4.0
  0
CIRCLE
  5
92
  8
CAMERA_RIG
 10
573.0
 20
37.0
 30
-70.85584841099308
 40
4.0
  0
CIRCLE
  5
93
  8
CAMERA_RIG
 10
605.0
 20
37.0
 30
-70.85584841099308
 40
4.0
  0
CIRCLE
  5
94
  8
CAMERA_RIG
 10
637.0
 20
37.0
 30
-70.85584841099308
 40
4.0
  0
CIRCLE
  5
95
  8
CAMERA_RIG
 10
669.0
 20
37.0
 30
-70.85584841099308
 40
4.0
  0
CIRCLE
  5
96
  8
CAMERA_RIG
 10
701.0000000000001
 20
37.00000000000011
 30
-70.85584841099308
 40
3.999999999999886
  0
CIRCLE
  5
97
  8
CAMERA_RIG
 10
733.0
 20
37.0
 30
-70.85584841099308
 40
4.0
  0
CIRCLE
  5
98
  8
CAMERA_RIG
 10
765.0
 20
37.0
 30
-70.85584841099308
 40
4.0
  0
CIRCLE
  5
99
  8
CAMERA_RIG
 10
796.9999999999999
 20
37.0
 30
-70.85584841099308
 40
4.000000000000114
  0
CIRCLE
  5
9A
  8
CAMERA_RIG
 10
829.0
 20
37.0
 30
-70.85584841099308
 40
4.0
  0
CIRCLE
  5
9B
  8
CAMERA_RIG
 10
861.0
 20
37.0
 30
-70.85584841099308
 40
4.0
  0
CIRCLE
  5
9C
  8
CAMERA_RIG
 10
509.0
 20
69.00000000000006
 30
-70.85584841099308
 40
4.0
  0
CIRCLE
  5
9D
  8
CAMERA_RIG
 10
541.0
 20
69.0
 30
-70.85584841099308
 40
4.0
  0
CIRCLE
  5
9E
  8
CAMERA_RIG
 10
573.0
 20
69.0
 30
-70.85584841099308
 40
4.0
  0
CIRCLE
  5
9F
  8
CAMERA_RIG
 10
605.0
 20
69.0
 30
-70.85584841099308
 40
4.0
  0
CIRCLE
  5
A0
  8
CAMERA_RIG
 10
637.0
 20
69.0
 30
-70.85584841099308
 40
4.0
  0
CIRCLE
  5
A1
  8
CAMERA_RIG
 10
669.0
 20
69.0
 30
-70.85584841099308
 40
4.0
  0
CIRCLE
  5
A2
  8
CAMERA_RIG
 10
701.0
 20
69.0
 30
-70.85584841099308
 40
4.0
  0
CIRCLE
  5
A3
  8
CAMERA_RIG
 10
733.0
 20
69.0
 30
-70.85584841099308
 40
4.0
  0
CIRCLE
  5
A4
  8
CAMERA_RIG
 10
765.0
 20
69.0
 30
-70.85584841099308
 40
4.0
  0
CIRCLE
  5
A5
  8
CAMERA_RIG
 10
796.9999999999999
 20
68.99999999999989
 30
-70.85584841099308
 40
4.000000000000114
  0
CIRCLE
  5
A6
  8
CAMERA_RIG
 10
829.0
 20
68.99999999999989
 30
-70.85584841099308
 40
4.0
  0
CIRCLE
  5
A7
  8
CAMERA_RIG
 10
861.0
 20
69.0
 30
-70.85584841099308
 40
4.0
  0
CIRCLE
  5
A8
  8
CAMERA_RIG
 10
509.0
 20
101.0000000000001
 30
-70.85584841099308
 40
4.0
  0
CIRCLE
  5
A9
  8
CAMERA_RIG
 10
541.0
 20
100.9999999999999
 30
-70.85584841099308
 40
4.0
  0
CIRCLE
  5
AA
  8
CAMERA_RIG
 10
573.0
 20
101.0
 30
-70.85584841099308
 40
4.0
  0
CIRCLE
  5
AB
  8
CAMERA_RIG
 10
605.0
 20
101.0000000000001
 30
-70.85584841099308
 40
4.0
  0
CIRCLE
  5
AC
  8
CAMERA_RIG
 10
637.0
 20
101.0
 30
-70.85584841099308
 40
4.0
  0
CIRCLE
  5
AD
  8
CAMERA_RIG
 10
669.0
 20
101.0
 30
-70.85584841099308
 40
4.0
  0
CIRCLE
  5
AE
  8
CAMERA_RIG
 10
701.0
 20
100.9999999999999
 30
-70.85584841099308
 40
4.0
  0
CIRCLE
  5
AF
  8
CAMERA_RIG
 10
733.0
 20
101.0
 30
-70.85584841099308
 40
4.0
  0
CIRCLE
  5
B0
  8
CAMERA_RIG
 10
765.0
 20
101.0000000000001
 30
-70.85584841099308
 40
4.0
  0
CIRCLE
  5
B1
  8
CAMERA_RIG
 10
796.9999999999999
 20
101.0
 30
-70.85584841099308
 40
4.000000000000114
  0
CIRCLE
  5
B2
  8
CAMERA_RIG
 10
829.0
 20
101.0
 30
-70.85584841099308
 40
4.0
  0
CIRCLE
  5
B3
  8
CAMERA_RIG
 10
861.0
 20
101.0000000000001
 30
-70.85584841099308
 40
4.0
  0
CIRCLE
  5
B4
  8
CAMERA_RIG
 10
509.0
 20
133.0
 30
-70.85584841099308
 40
4.0
  0
CIRCLE
  5
B5
  8
CAMERA_RIG
 10
541.0
 20
133.0
 30
-70.85584841099308
 40
4.0
  0
CIRCLE
  5
B6
  8
CAMERA_RIG
 10
573.0
 20
132.9999999999999
 30
-70.85584841099308
 40
4.0
  0
CIRCLE
  5
B7
  8
CAMERA_RIG
 10
605.0
 20
133.0
 30
-70.85584841099308
 40
4.0
  0
CIRCLE
  5
B8
  8
CAMERA_RIG
 10
637.0
 20
133.0
 30
-70.85584841099308
 40
4.0
  0
CIRCLE
  5
B9
  8
CAMERA_RIG
 10
669.0
 20
133.0
 30
-70.85584841099308
 40
4.0
  0
CIRCLE
  5
BA
  8
CAMERA_RIG
 10
701.0
 20
133.0
 30
-70.85584841099308
 40
4.0
  0
CIRCLE
  5
BB
  8
CAMERA_RIG
 10
733.0
 20
132.9999999999999
 30
-70.85584841099308
 40
4.0
  0
CIRCLE
  5
BC
  8
CAMERA_RIG
 10
765.0
 20
133.0
 30
-70.85584841099308
 40
4.0
  0
CIRCLE
  5
BD
  8
CAMERA_RIG
 10
796.9999999999999
 20
133.0
 30
-70.85584841099308
 40
4.000000000000114
  0
CIRCLE
  5
BE
  8
CAMERA_RIG
 10
829.0
 20
133.0
 30
-70.85584841099308
 40
4.0
  0
CIRCLE
  5
BF
  8
CAMERA_RIG
 10
861.0
 20
133.0
 30
-70.85584841099308
 40
4.0
  0
CIRCLE
  5
C0
  8
CAMERA_RIG
 10
509.0
 20
165.0
 30
-70.85584841099308
 40
4.0
  0
CIRCLE
  5
C1
  8
CAMERA_RIG
 10
541.0
 20
165.0
 30
-70.85584841099308
 40
4.0
  0
CIRCLE
  5
C2
  8
CAMERA_RIG
 10
573.0
 20
165.0
 30
-70.85584841099308
 40
4.0
  0
CIRCLE
  5
C3
  8
CAMERA_RIG
 10
605.0
 20
165.0000000000001
 30
-70.85584841099308
 40
4.0
  0
CIRCLE
  5
C4
  8
CAMERA_RIG
 10
637.0
 20
165.0
 30
-70.85584841099308
 40
4.0
  0
CIRCLE
  5
C5
  8
CAMERA_RIG
 10
669.0
 20
165.0
 30
-70.85584841099308
 40
4.0
  0
CIRCLE
  5
C6
  8
CAMERA_RIG
 10
701.0
 20
165.0
 30
-70.85584841099308
 40
4.0
  0
CIRCLE
  5
C7
  8
CAMERA_RIG
 10
733.0
 20
165.0
 30
-70.85584841099308
 40
4.0
  0
CIRCLE
  5
C8
  8
CAMERA_RIG
 10
765.0
 20
165.0
 30
-70.85584841099308
 40
4.0
  0
CIRCLE
  5
C9
  8
CAMERA_RIG
 10
796.9999999999999
 20
165.0
 30
-70.85584841099308
 40
4.000000000000114
  0
CIRCLE
  5
CA
  8
CAMERA_RIG
 10
829.0
 20
165.0
 30
-70.85584841099308
 40
4.0
  0
CIRCLE
  5
CB
  8
CAMERA_RIG
 10
861.0
 20
165.0
 30
-70.85584841099308
 40
4.0
  0
CIRCLE
  5
CC
  8
CAMERA_RIG
 10
509.0
 20
197.0000000000001
 30
-70.85584841099308
 40
4.0
  0
CIRCLE
  5
CD
  8
CAMERA_RIG
 10
540.9999999999999
 20
196.9999999999999
 30
-70.85584841099308
 40
4.000000000000114
  0
CIRCLE
  5
CE
  8
CAMERA_RIG
 10
573.0
 20
197.0
 30
-70.85584841099308
 40
4.0
  0
CIRCLE
  5
CF
  8
CAMERA_RIG
 10
605.0
 20
197.0000000000001
 30
-70.85584841099308
 40
4.0
  0
CIRCLE
  5
D0
  8
CAMERA_RIG
 10
637.0
 20
197.0000000000001
 30
-70.85584841099308
 40
4.0
  0
CIRCLE
  5
D1
  8
CAMERA_RIG
 10
669.0
 20
197.0
 30
-70.85584841099308
 40
4.0
  0
CIRCLE
  5
D2
  8
CAMERA_RIG
 10
700.9999999999999
 20
196.9999999999999
 30
-70.85584841099308
 40
4.000000000000114
  0
CIRCLE
  5
D3
  8
CAMERA_RIG
 10
733.0
 20
197.0
 30
-70.85584841099308
 40
4.0
  0
CIRCLE
  5
D4
  8
CAMERA_RIG
 10
765.0
 20
197.0
 30
-70.85584841099308
 40
4.0
  0
CIRCLE
  5
D5
  8
CAMERA_RIG
 10
796.9999999999999
 20
197.0
 30
-70.85584841099308
 40
4.000000000000114
  0
CIRCLE
  5
D6
  8
CAMERA_RIG
 10
829.0
 20
197.0
 30
-70.85584841099308
 40
4.0
  0
CIRCLE
  5
D7
  8
CAMERA_RIG
 10
861.0
 20
197.0000000000001
 30
-70.85584841099308
 40
4.0
  0
ARC
  5
D8
  8
CAMERA_RIG
 10
487.4544075578178
 20
258.796958930261
 30
-70.85584841099308
 40
3.49999999991886
 50
179.9999922827499
 51
269.9999999999953
  0
LINE
  5
D9
  8
CAMERA_RIG
 10
487.4544075578175
 20
255.2969589303422
 30
-70.85584841099308
 11
495.8181417286598
 21
255.2969589303422
 31
-70.85584841099308
  0
ARC
  5
DA
  8
CAMERA_RIG
 10
495.8181417286598
 20
258.7969589302606
 30
-70.85584841099308
 40
3.499999999918373
 50
270.0
 51
359.9999999994166
  0
ARC
  5
DB
  8
CAMERA_RIG
 10
495.8181417286602
 20
258.796958930261
 30
-70.8558484109931
 40
3.499999999918032
 50
359.99999999941
 51
90.00000000000466
  0
LINE
  5
DC
  8
CAMERA_RIG
 10
495.8181417286599
 20
262.2969589301791
 30
-70.85584841099308
 11
487.4544075578175
 21
262.2969589301791
 31
-70.85584841099308
  0
ARC
  5
DD
  8
CAMERA_RIG
 10
487.4544075578175
 20
258.7969589302605
 30
-70.85584841099308
 40
3.4999999999186
 50
90.0
 51
179.9999922827425
  0
ARC
  5
DE
  8
CAMERA_RIG
 10
487.4544075578173
 20
238.2210471882867
 30
-70.8558484109931
 40
3.499999999918231
 50
180.0000163576794
 51
270.0000000000037
  0
LINE
  5
DF
  8
CAMERA_RIG
 10
487.4544075578175
 20
234.7210471883684
 30
-70.85584841099308
 11
495.8181417286599
 21
234.7210471883684
 31
-70.85584841099308
  0
ARC
  5
E0
  8
CAMERA_RIG
 10
495.8181417286598
 20
238.2210471882867
 30
-70.85584841099305
 40
3.499999999918316
 50
270.0000000000018
 51
0.0000110062668015
  0
ARC
  5
E1
  8
CAMERA_RIG
 10
495.81814172866
 20
238.2210471882871
 30
-70.85584841099305
 40
3.499999999918153
 50
0.0000110062602877
 51
90.00000000000188
  0
LINE
  5
E2
  8
CAMERA_RIG
 10
495.8181417286599
 20
241.7210471882053
 30
-70.85584841099308
 11
487.4544075578175
 21
241.7210471882053
 31
-70.85584841099308
  0
ARC
  5
E3
  8
CAMERA_RIG
 10
487.4544075578174
 20
238.2210471882871
 30
-70.85584841099308
 40
3.499999999918202
 50
89.99999999999721
 51
180.0000163576855
  0
ARC
  5
E4
  8
CAMERA_RIG
 10
487.4543939328205
 20
217.6357168128187
 30
-70.85584841099308
 40
3.499999999918486
 50
180.0000102605255
 51
270.0
  0
LINE
  5
E5
  8
CAMERA_RIG
 10
487.4543939328205
 20
214.1357168129002
 30
-70.85584841099308
 11
495.8181281036628
 21
214.1357168129002
 31
-70.85584841099308
  0
ARC
  5
E6
  8
CAMERA_RIG
 10
495.818128103663
 20
217.6357168128184
 30
-70.85584841099308
 40
3.499999999918231
 50
269.9999999999981
 51
359.999999994809
  0
ARC
  5
E7
  8
CAMERA_RIG
 10
495.8181281036631
 20
217.635716812819
 30
-70.85584841099308
 40
3.499999999918145
 50
359.9999999947997
 51
90.00000000000374
  0
LINE
  5
E8
  8
CAMERA_RIG
 10
495.8181281036628
 20
221.1357168127371
 30
-70.85584841099308
 11
487.4543939328205
 21
221.135716812737
 31
-70.85584841099308
  0
ARC
  5
E9
  8
CAMERA_RIG
 10
487.4543939328206
 20
217.6357168128184
 30
-70.85584841099308
 40
3.4999999999186
 50
90.00000000000188
 51
180.0000102605213
  0
ARC
  5
EA
  8
CAMERA_RIG
 10
551.8181397270776
 20
238.2210532506776
 30
-70.8558484109931
 40
3.499999999918388
 50
180.0000054356907
 51
270.0
  0
LINE
  5
EB
  8
CAMERA_RIG
 10
551.8181397270776
 20
234.7210532507593
 30
-70.85584841099308
 11
560.1818738979199
 21
234.7210532507593
 31
-70.85584841099308
  0
ARC
  5
EC
  8
CAMERA_RIG
 10
560.1818738979201
 20
238.2210532506774
 30
-70.85584841099305
 40
3.499999999918174
 50
269.9999999999963
 51
359.9999999964551
  0
ARC
  5
ED
  8
CAMERA_RIG
 10
560.1818738979198
 20
238.2210532506777
 30
-70.85584841099312
 40
3.499999999918487
 50
359.9999999964509
 51
89.99999999999814
  0
LINE
  5
EE
  8
CAMERA_RIG
 10
560.1818738979199
 20
241.7210532505961
 30
-70.85584841099308
 11
551.8181397270776
 21
241.7210532505961
 31
-70.85584841099308
  0
ARC
  5
EF
  8
CAMERA_RIG
 10
551.8181397270776
 20
238.2210532506778
 30
-70.85584841099308
 40
3.499999999918373
 50
90.0
 51
180.0000054356935
  0
ARC
  5
F0
  8
CAMERA_RIG
 10
551.8181261020806
 20
217.6357228752095
 30
-70.85584841099308
 40
3.499999999918374
 50
179.9999983404397
 51
270.0
  0
LINE
  5
F1
  8
CAMERA_RIG
 10
551.8181261020806
 20
214.1357228752911
 30
-70.85584841099308
 11
560.1818602729229
 21
214.1357228752911
 31
-70.85584841099308
  0
ARC
  5
F2
  8
CAMERA_RIG
 10
560.1818602729229
 20
217.6357228752094
 30
-70.85584841099308
 40
3.499999999918344
 50
270.0
 51
359.9999999911273
  0
ARC
  5
F3
  8
CAMERA_RIG
 10
560.181860272923
 20
217.6357228752097
 30
-70.85584841099308
 40
3.499999999918259
 50
359.9999999911226
 51
90.00000000000188
  0
LINE
  5
F4
  8
CAMERA_RIG
 10
560.1818602729229
 20
221.135722875128
 30
-70.85584841099308
 11
551.8181261020806
 21
221.135722875128
 31
-70.85584841099308
  0
ARC
  5
F5
  8
CAMERA_RIG
 10
551.8181261020807
 20
217.6357228752096
 30
-70.85584841099312
 40
3.499999999918373
 50
90.00000000000188
 51
179.9999983404425
  0
ARC
  5
F6
  8
CAMERA_RIG
 10
777.73571114476
 20
295.9079376888932
 30
-70.85584841099308
 40
3.499999999918884
 50
90.00000000000557
 51
179.9999999999916
  0
ARC
  5
F7
  8
CAMERA_RIG
 10
775.7316000827252
 20
295.796958930123
 30
-70.85584841099222
 40
1.499999999793938
 50
175.7570467300325
 51
190.5820500233618
  0
ARC
  5
F8
  8
CAMERA_RIG
 10
777.7357111447599
 20
295.9079376888939
 30
-70.85584841099303
 40
3.499999999918729
 50
186.3390967533929
 51
269.9999999999963
  0
LINE
  5
F9
  8
CAMERA_RIG
 10
777.7357111447596
 20
292.4079376889753
 30
-70.85584841099308
 11
786.099445315602
 21
292.4079376889753
 31
-70.85584841099308
  0
ARC
  5
FA
  8
CAMERA_RIG
 10
786.0994453156021
 20
295.9079376888937
 30
-70.85584841099308
 40
3.49999999991843
 50
269.9999999999981
 51
90.00000000000188
  0
LINE
  5
FB
  8
CAMERA_RIG
 10
786.099445315602
 20
299.4079376888122
 30
-70.85584841099308
 11
777.7357111447596
 21
299.4079376888121
 31
-70.85584841099308
  0
ARC
  5
FC
  8
CAMERA_RIG
 10
842.0994443491568
 20
295.9079392046431
 30
-70.85584841099308
 40
3.49999999991843
 50
89.99999999999814
 51
179.9996971672291
  0
ARC
  5
FD
  8
CAMERA_RIG
 10
840.0953322526246
 20
295.7969649924586
 30
-70.85584841099475
 40
1.500000000429119
 50
175.7565123239978
 51
190.5823219928532
  0
ARC
  5
FE
  8
CAMERA_RIG
 10
842.0994443491563
 20
295.9079392046422
 30
-70.85584841099312
 40
3.499999999917704
 50
186.3391371496338
 51
270.0000000000093
  0
LINE
  5
FF
  8
CAMERA_RIG
 10
842.0994443491569
 20
292.4079392047245
 30
-70.85584841099308
 11
850.4631785199992
 21
292.4079392047246
 31
-70.85584841099308
  0
ARC
  5
100
  8
CAMERA_RIG
 10
850.463178519999
 20
295.907939204643
 30
-70.85584841099308
 40
3.499999999918373
 50
270.0000000000037
 51
89.99999999999628
  0
LINE
  5
101
  8
CAMERA_RIG
 10
850.4631785199992
 20
299.4079392045616
 30
-70.85584841099308
 11
842.0994443491569
 21
299.4079392045615
 31
-70.85584841099308
  0
ARC
  5
102
  8
CAMERA_RIG
 10
842.0994433140197
 20
275.3320320093109
 30
-70.85584841099303
 40
3.499999999918316
 50
90.0
 51
180.0000000014749
  0
ARC
  5
103
  8
CAMERA_RIG
 10
840.095332252631
 20
275.2210532504861
 30
-70.85584841098803
 40
1.500000000435352
 50
175.7570467332327
 51
190.582050025322
  0
ARC
  5
104
  8
CAMERA_RIG
 10
842.0994433140195
 20
275.3320320093106
 30
-70.85584841099306
 40
3.499999999918253
 50
186.339096757048
 51
270.0000000000037
  0
LINE
  5
105
  8
CAMERA_RIG
 10
842.0994433140197
 20
271.8320320093923
 30
-70.85584841099308
 11
850.4631774848621
 21
271.8320320093923
 31
-70.85584841099308
  0
ARC
  5
106
  8
CAMERA_RIG
 10
850.4631774848621
 20
275.3320320093108
 30
-70.85584841099308
 40
3.499999999918543
 50
270.0
 51
90.0
  0
LINE
  5
107
  8
CAMERA_RIG
 10
850.4631774848621
 20
278.8320320092292
 30
-70.85584841099308
 11
842.0994433140197
 21
278.8320320092292
 31
-70.85584841099308
  0
ARC
  5
108
  8
CAMERA_RIG
 10
842.099429689023
 20
254.7467016338422
 30
-70.85584841099302
 40
3.499999999918828
 50
90.00000000000374
 51
180.00000000146
  0
ARC
  5
109
  8
CAMERA_RIG
 10
840.0953186272153
 20
254.6357228749943
 30
-70.8558484109922
 40
1.500000000019574
 50
175.7570467311313
 51
190.5820500273558
  0
ARC
  5
10A
  8
CAMERA_RIG
 10
842.0994296890228
 20
254.7467016338427
 30
-70.85584841099313
 40
3.49999999991869
 50
186.3390967570448
 51
270.0
  0
LINE
  5
10B
  8
CAMERA_RIG
 10
842.0994296890228
 20
251.2467016339241
 30
-70.85584841099308
 11
850.4631638598651
 21
251.2467016339241
 31
-70.85584841099308
  0
ARC
  5
10C
  8
CAMERA_RIG
 10
850.4631638598651
 20
254.7467016338426
 30
-70.85584841099308
 40
3.499999999918487
 50
270.0
 51
90.0
  0
LINE
  5
10D
  8
CAMERA_RIG
 10
850.4631638598651
 20
258.2467016337611
 30
-70.85584841099308
 11
842.0994296890228
 21
258.2467016337611
 31
-70.85584841099308
  0
ARC
  5
10E
  8
CAMERA_RIG
 10
777.7357111447595
 20
275.3320259469199
 30
-70.85584841099308
 40
3.499999999918316
 50
89.99999999999628
 51
179.9999999999684
  0
ARC
  5
10F
  8
CAMERA_RIG
 10
775.7316000829477
 20
275.2210471881606
 30
-70.85584841099308
 40
1.500000000015115
 50
175.7570467310207
 51
190.5820500223062
  0
ARC
  5
110
  8
CAMERA_RIG
 10
777.7357111447594
 20
275.3320259469196
 30
-70.85584841099303
 40
3.499999999918227
 50
186.33909675342
 51
270.0000000000037
  0
LINE
  5
111
  8
CAMERA_RIG
 10
777.7357111447596
 20
271.8320259470014
 30
-70.85584841099308
 11
786.099445315602
 21
271.8320259470014
 31
-70.85584841099308
  0
ARC
  5
112
  8
CAMERA_RIG
 10
786.0994453156022
 20
275.3320259469199
 30
-70.85584841099308
 40
3.499999999918543
 50
269.9999999999963
 51
90.00000000000374
  0
LINE
  5
113
  8
CAMERA_RIG
 10
786.099445315602
 20
278.8320259468383
 30
-70.85584841099308
 11
777.7357111447598
 21
278.8320259468383
 31
-70.85584841099308
  0
ARC
  5
114
  8
CAMERA_RIG
 10
777.7356975197628
 20
254.7466955714515
 30
-70.85584841099305
 40
3.499999999918572
 50
90.00000000000188
 51
179.9999999999679
  0
ARC
  5
115
  8
CAMERA_RIG
 10
775.7315864583902
 20
254.6357168127174
 30
-70.85584841099306
 40
1.500000000451672
 50
175.7570467332234
 51
190.5820500201463
  0
ARC
  5
116
  8
CAMERA_RIG
 10
777.7356975197628
 20
254.7466955714518
 30
-70.85584841099309
 40
3.499999999918559
 50
186.3390967534184
 51
269.9999999999981
  0
LINE
  5
117
  8
CAMERA_RIG
 10
777.7356975197627
 20
251.2466955715333
 30
-70.85584841099308
 11
786.0994316906051
 21
251.2466955715332
 31
-70.85584841099308
  0
ARC
  5
118
  8
CAMERA_RIG
 10
786.0994316906049
 20
254.7466955714516
 30
-70.85584841099308
 40
3.49999999991843
 50
270.0000000000037
 51
89.99999999999628
  0
LINE
  5
119
  8
CAMERA_RIG
 10
786.0994316906051
 20
258.2466955713701
 30
-70.85584841099308
 11
777.7356975197627
 21
258.2466955713701
 31
-70.85584841099308
  0
ARC
  5
11A
  8
CAMERA_RIG
 10
842.0953322521109
 20
-250.5759169163886
 30
-70.85584841099302
 40
3.499999999918259
 50
180.0000000082664
 51
270.0000000000018
  0
LINE
  5
11B
  8
CAMERA_RIG
 10
842.095332252111
 20
-254.075916916307
 30
-70.85584841099308
 11
850.4590664229534
 21
-254.075916916307
 31
-70.85584841099308
  0
ARC
  5
11C
  8
CAMERA_RIG
 10
850.4590664229536
 20
-250.5759169163888
 30
-70.85584841099308
 40
3.499999999918202
 50
269.9999999999963
 51
0.0000000000060485
  0
ARC
  5
11D
  8
CAMERA_RIG
 10
850.4590664229536
 20
-250.5759169163882
 30
-70.85584841099305
 40
3.499999999918145
 50
359.9999999999968
 51
90.00000000000374
  0
LINE
  5
11E
  8
CAMERA_RIG
 10
850.4590664229534
 20
-247.07591691647
 30
-70.85584841099308
 11
842.095332252111
 21
-247.07591691647
 31
-70.85584841099308
  0
ARC
  5
11F
  8
CAMERA_RIG
 10
842.0953322521112
 20
-250.5759169163887
 30
-70.855848410993
 40
3.499999999918629
 50
90.00000000000374
 51
180.000000008266
  0
ARC
  5
120
  8
CAMERA_RIG
 10
842.0953186271144
 20
-271.1612472918564
 30
-70.85584841099305
 40
3.499999999918714
 50
180.0000000082734
 51
269.9999999999944
  0
LINE
  5
121
  8
CAMERA_RIG
 10
842.095318627114
 20
-274.6612472917751
 30
-70.85584841099308
 11
850.4590527979565
 21
-274.6612472917751
 31
-70.85584841099308
  0
ARC
  5
122
  8
CAMERA_RIG
 10
850.4590527979562
 20
-271.1612472918566
 30
-70.85584841099308
 40
3.499999999918487
 50
270.0000000000037
 51
359.9999999999991
  0
ARC
  5
123
  8
CAMERA_RIG
 10
850.4590527979562
 20
-271.1612472918566
 30
-70.85584841099305
 40
3.4999999999186
 50
359.9999999999991
 51
89.99999999999814
  0
LINE
  5
124
  8
CAMERA_RIG
 10
850.4590527979565
 20
-267.6612472919381
 30
-70.85584841099308
 11
842.095318627114
 21
-267.6612472919381
 31
-70.85584841099308
  0
ARC
  5
125
  8
CAMERA_RIG
 10
842.0953186271141
 20
-271.1612472918567
 30
-70.85584841099308
 40
3.4999999999186
 50
90.00000000000188
 51
180.0000000082678
  0
ARC
  5
126
  8
CAMERA_RIG
 10
777.731586457854
 20
-271.1612533542476
 30
-70.85584841099308
 40
3.499999999918511
 50
180.0000067208424
 51
269.9999999999981
  0
LINE
  5
127
  8
CAMERA_RIG
 10
777.731586457854
 20
-274.661253354166
 30
-70.85584841099308
 11
786.0953206286963
 21
-274.661253354166
 31
-70.85584841099308
  0
ARC
  5
128
  8
CAMERA_RIG
 10
786.0953206286964
 20
-271.1612533542476
 30
-70.8558484109931
 40
3.499999999918373
 50
269.9999999999981
 51
359.9999984220936
  0
ARC
  5
129
  8
CAMERA_RIG
 10
786.0953206286964
 20
-271.1612533542475
 30
-70.85584841099306
 40
3.49999999991826
 50
359.9999984220918
 51
90.00000000000188
  0
LINE
  5
12A
  8
CAMERA_RIG
 10
786.0953206286963
 20
-267.6612533543291
 30
-70.85584841099308
 11
777.731586457854
 21
-267.6612533543291
 31
-70.85584841099308
  0
ARC
  5
12B
  8
CAMERA_RIG
 10
777.7315864578541
 20
-271.1612533542477
 30
-70.85584841099303
 40
3.499999999918543
 50
90.00000000000188
 51
180.0000067208415
  0
ARC
  5
12C
  8
CAMERA_RIG
 10
777.7316000828507
 20
-250.5759229787796
 30
-70.85584841099308
 40
3.499999999918145
 50
180.0000000045829
 51
270.0000000000037
  0
LINE
  5
12D
  8
CAMERA_RIG
 10
777.731600082851
 20
-254.0759229786979
 30
-70.85584841099308
 11
786.0953342536933
 21
-254.0759229786977
 31
-70.85584841099308
  0
ARC
  5
12E
  8
CAMERA_RIG
 10
786.0953342536936
 20
-250.5759229787796
 30
-70.85584841099303
 40
3.499999999918174
 50
269.9999999999944
 51
0.0000031452800256
  0
ARC
  5
12F
  8
CAMERA_RIG
 10
786.0953342536931
 20
-250.5759229787795
 30
-70.85584841099299
 40
3.499999999918719
 50
0.000003145279095
 51
89.99999999999628
  0
LINE
  5
130
  8
CAMERA_RIG
 10
786.0953342536933
 20
-247.0759229788609
 30
-70.85584841099308
 11
777.731600082851
 21
-247.0759229788609
 31
-70.85584841099308
  0
ARC
  5
131
  8
CAMERA_RIG
 10
777.7316000828513
 20
-250.5759229787796
 30
-70.85584841099308
 40
3.499999999918657
 50
90.00000000000557
 51
180.0000000045839
  0
ARC
  5
132
  8
CAMERA_RIG
 10
777.7316000828506
 20
-230.0000112368059
 30
-70.85584841099305
 40
3.499999999918032
 50
180.0000000017006
 51
270.0000000000056
  0
LINE
  5
133
  8
CAMERA_RIG
 10
777.731600082851
 20
-233.5000112367239
 30
-70.85584841099308
 11
786.0953342536933
 21
-233.5000112367239
 31
-70.85584841099308
  0
ARC
  5
134
  8
CAMERA_RIG
 10
786.0953342536934
 20
-230.0000112368056
 30
-70.85584841099306
 40
3.499999999918373
 50
269.9999999999981
 51
0.0000038574246405
  0
ARC
  5
135
  8
CAMERA_RIG
 10
786.0953342536932
 20
-230.0000112368056
 30
-70.85584841099306
 40
3.499999999918608
 50
0.0000038574255711
 51
89.99999999999814
  0
LINE
  5
136
  8
CAMERA_RIG
 10
786.0953342536933
 20
-226.500011236887
 30
-70.85584841099308
 11
777.731600082851
 21
-226.500011236887
 31
-70.85584841099308
  0
ARC
  5
137
  8
CAMERA_RIG
 10
777.7316000828513
 20
-230.0000112368057
 30
-70.85584841099305
 40
3.499999999918657
 50
90.00000000000557
 51
180.0000000017038
  0
ARC
  5
138
  8
CAMERA_RIG
 10
487.4543939328208
 20
-234.1612533543921
 30
-70.85584841099303
 40
3.499999999918771
 50
180.0000104002511
 51
269.9999999999963
  0
LINE
  5
139
  8
CAMERA_RIG
 10
487.4543939328206
 20
-237.6612533543108
 30
-70.85584841099308
 11
495.8181281036629
 21
-237.6612533543108
 31
-70.85584841099308
  0
ARC
  5
13A
  8
CAMERA_RIG
 10
495.8181281036629
 20
-234.1612533543924
 30
-70.85584841099308
 40
3.499999999918373
 50
270.0
 51
0.0000000005062134
  0
ARC
  5
13B
  8
CAMERA_RIG
 10
495.8181281036627
 20
-234.1612533543925
 30
-70.8558484109931
 40
3.499999999918487
 50
0.0000000005066787
 51
89.99999999999628
  0
LINE
  5
13C
  8
CAMERA_RIG
 10
495.818128103663
 20
-230.661253354474
 30
-70.85584841099308
 11
487.4543939328206
 21
-230.661253354474
 31
-70.85584841099308
  0
ARC
  5
13D
  8
CAMERA_RIG
 10
487.4543939328207
 20
-234.1612533543926
 30
-70.85584841099308
 40
3.499999999918629
 50
90.00000000000188
 51
180.0000104002428
  0
ARC
  5
13E
  8
CAMERA_RIG
 10
487.4544075578174
 20
-213.5759229789244
 30
-70.8558484109931
 40
3.499999999918268
 50
179.9999848822573
 51
270.0000000000028
  0
LINE
  5
13F
  8
CAMERA_RIG
 10
487.4544075578176
 20
-217.0759229788426
 30
-70.85584841099308
 11
495.81814172866
 21
-217.0759229788426
 31
-70.85584841099308
  0
ARC
  5
140
  8
CAMERA_RIG
 10
495.8181417286604
 20
-213.5759229789246
 30
-70.85584841099305
 40
3.499999999917947
 50
269.9999999999935
 51
0.0000000013637055
  0
ARC
  5
141
  8
CAMERA_RIG
 10
495.8181417286596
 20
-213.5759229789243
 30
-70.85584841099308
 40
3.499999999918657
 50
0.000000001357657
 51
89.99999999999442
  0
LINE
  5
142
  8
CAMERA_RIG
 10
495.81814172866
 20
-210.0759229790057
 30
-70.85584841099308
 11
487.4544075578176
 21
-210.0759229790057
 31
-70.85584841099308
  0
ARC
  5
143
  8
CAMERA_RIG
 10
487.4544075578177
 20
-213.5759229789242
 30
-70.85584841099308
 40
3.499999999918543
 50
90.00000000000092
 51
179.9999848822597
  0
ARC
  5
144
  8
CAMERA_RIG
 10
487.4544075578175
 20
-193.0000112369505
 30
-70.85584841099308
 40
3.499999999918356
 50
179.9999829810387
 51
270.0000000000009
  0
LINE
  5
145
  8
CAMERA_RIG
 10
487.4544075578175
 20
-196.5000112368688
 30
-70.85584841099308
 11
495.81814172866
 21
-196.5000112368688
 31
-70.85584841099308
  0
ARC
  5
146
  8
CAMERA_RIG
 10
495.8181417286601
 20
-193.0000112369506
 30
-70.85584841099308
 40
3.499999999918174
 50
269.9999999999981
 51
0.0000000000055832
  0
ARC
  5
147
  8
CAMERA_RIG
 10
495.8181417286599
 20
-193.0000112369502
 30
-70.85584841099308
 40
3.499999999918316
 50
359.9999999999986
 51
90.00000000000092
  0
LINE
  5
148
  8
CAMERA_RIG
 10
495.8181417286599
 20
-189.5000112370318
 30
-70.85584841099308
 11
487.4544075578176
 21
-189.5000112370319
 31
-70.85584841099308
  0
ARC
  5
149
  8
CAMERA_RIG
 10
487.4544075578175
 20
-193.0000112369503
 30
-70.855848410993
 40
3.499999999918401
 50
89.99999999999908
 51
179.999982981042
  0
ARC
  5
14A
  8
CAMERA_RIG
 10
551.8181261020808
 20
-234.1612472920014
 30
-70.8558484109931
 40
3.499999999918545
 50
180.0000180082526
 51
269.9999999999981
  0
LINE
  5
14B
  8
CAMERA_RIG
 10
551.8181261020807
 20
-237.6612472919199
 30
-70.85584841099308
 11
560.181860272923
 21
-237.6612472919199
 31
-70.85584841099308
  0
ARC
  5
14C
  8
CAMERA_RIG
 10
560.1818602729229
 20
-234.1612472920015
 30
-70.85584841099308
 40
3.499999999918487
 50
270.0000000000018
 51
359.9999999990704
  0
ARC
  5
14D
  8
CAMERA_RIG
 10
560.1818602729231
 20
-234.1612472920012
 30
-70.85584841099312
 40
3.499999999918259
 50
359.9999999990667
 51
90.00000000000374
  0
LINE
  5
14E
  8
CAMERA_RIG
 10
560.181860272923
 20
-230.661247292083
 30
-70.85584841099308
 11
551.8181261020807
 21
-230.661247292083
 31
-70.85584841099308
  0
ARC
  5
14F
  8
CAMERA_RIG
 10
551.8181261020806
 20
-234.1612472920013
 30
-70.85584841099312
 40
3.499999999918344
 50
89.99999999999814
 51
180.000018008254
  0
ARC
  5
150
  8
CAMERA_RIG
 10
551.8181397270776
 20
-213.5759169165333
 30
-70.85584841099306
 40
3.499999999918413
 50
180.0000087133595
 51
270.0
  0
LINE
  5
151
  8
CAMERA_RIG
 10
551.8181397270776
 20
-217.0759169164518
 30
-70.85584841099308
 11
560.18187389792
 21
-217.0759169164518
 31
-70.85584841099308
  0
ARC
  5
152
  8
CAMERA_RIG
 10
560.18187389792
 20
-213.5759169165335
 30
-70.85584841099309
 40
3.499999999918259
 50
270.0
 51
359.9999999991383
  0
ARC
  5
153
  8
CAMERA_RIG
 10
560.1818738979204
 20
-213.575916916533
 30
-70.8558484109931
 40
3.499999999918032
 50
359.99999999913
 51
90.00000000000743
  0
LINE
  5
154
  8
CAMERA_RIG
 10
560.18187389792
 20
-210.0759169166149
 30
-70.85584841099308
 11
551.8181397270776
 21
-210.0759169166148
 31
-70.85584841099308
  0
ARC
  5
155
  8
CAMERA_RIG
 10
551.8181397270777
 20
-213.5759169165333
 30
-70.85584841099308
 40
3.499999999918487
 50
90.00000000000188
 51
180.00000871336
  0
ARC
  5
156
  8
CAMERA_RIG
 10
560.1818749330573
 20
258.7969599284432
 30
-70.85584841099312
 40
3.499999482351654
 50
269.9999999999963
 51
0.0000828987176255
  0
ARC
  5
157
  8
CAMERA_RIG
 10
560.1818749330572
 20
258.7969609635779
 30
-70.85584841099308
 40
3.499999482350448
 50
0.000065953329745
 51
90.00000000000188
  0
LINE
  5
158
  8
CAMERA_RIG
 10
560.1818749330571
 20
262.2969604459284
 30
-70.85584841099308
 11
551.8181407622147
 21
262.2969604459284
 31
-70.85584841099308
  0
ARC
  5
159
  8
CAMERA_RIG
 10
551.818140762215
 20
258.7969594108682
 30
-70.85584841099308
 40
3.500001035060279
 50
90.00000000000374
 51
179.9999086285387
  0
ARC
  5
15A
  8
CAMERA_RIG
 10
549.8181391508759
 20
258.7969649920223
 30
-70.85584843459112
 40
1.499999423716872
 50
179.9999999842432
 51
180.0889180271086
  0
ARC
  5
15B
  8
CAMERA_RIG
 10
551.8181407622147
 20
258.7969604459415
 30
-70.85584841099303
 40
3.499999999849831
 50
180.0380332784063
 51
270.0
  0
LINE
  5
15C
  8
CAMERA_RIG
 10
551.8181407622147
 20
255.2969604460916
 30
-70.85584841099308
 11
560.1818749330571
 21
255.2969604460916
 31
-70.85584841099308
  0
ARC
  5
15D
  8
CAMERA_RIG
 10
850.4590674580907
 20
-230.0000102386227
 30
-70.85584841099305
 40
3.499999482351882
 50
269.9999999999981
 51
0.000082898930719
  0
ARC
  5
15E
  8
CAMERA_RIG
 10
850.4590674580909
 20
-230.0000092034882
 30
-70.85584841099305
 40
3.499999482350335
 50
0.0000659535446997
 51
90.00000000000557
  0
LINE
  5
15F
  8
CAMERA_RIG
 10
850.4590674580905
 20
-226.5000097211377
 30
-70.85584841099308
 11
842.0953332872482
 21
-226.5000097211377
 31
-70.85584841099308
  0
ARC
  5
160
  8
CAMERA_RIG
 10
842.0953332872482
 20
-230.0000107561978
 30
-70.85584841099305
 40
3.500001035060052
 50
90.0
 51
179.9999086283009
  0
ARC
  5
161
  8
CAMERA_RIG
 10
840.1012119205452
 20
-230.0000006121676
 30
-70.85579543970952
 40
1.505875191679448
 50
180.0001734606181
 51
180.0887478032624
210
6.318012699603692E-8
220
4.902680371853764E-11
230
0.999999999999998
  0
ARC
  5
162
  8
CAMERA_RIG
 10
842.0953332872482
 20
-230.000009721201
 30
-70.85584841099309
 40
3.499999999773779
 50
180.0380346747032
 51
270.0
  0
LINE
  5
163
  8
CAMERA_RIG
 10
842.0953332872482
 20
-233.5000097209746
 30
-70.85584841099308
 11
850.4590674580905
 21
-233.5000097209746
 31
-70.85584841099308
  0
ARC
  5
164
  8
CAMERA_RIG
 10
560.1818749330571
 20
-193.000010238766
 30
-70.85584841099308
 40
3.499999482353473
 50
270.0000000000018
 51
0.000136769599234
  0
ARC
  5
165
  8
CAMERA_RIG
 10
560.1818749330567
 20
-193.000009203634
 30
-70.8558484109931
 40
3.499999482351577
 50
0.0001198242560194
 51
89.99999999999255
  0
LINE
  5
166
  8
CAMERA_RIG
 10
560.1818749330572
 20
-189.5000097212826
 30
-70.85584841099308
 11
551.8181407622149
 21
-189.5000097212825
 31
-70.85584841099308
  0
ARC
  5
167
  8
CAMERA_RIG
 10
551.8181407622149
 20
-193.0000097212016
 30
-70.85584841099308
 40
3.499999999919055
 50
90.0
 51
179.9617074974983
  0
ARC
  5
168
  8
CAMERA_RIG
 10
549.8181413201011
 20
-193.0000051746016
 30
-70.85583550663132
 40
1.499999925390522
 50
179.9108244611837
 51
180.0889150603624
210
2.353442358159581E-8
220
-5.349617649973277E-14
230
0.9999999999999998
  0
ARC
  5
169
  8
CAMERA_RIG
 10
551.8181407622147
 20
-193.000009721201
 30
-70.85584841099303
 40
3.499999999918384
 50
180.0380320111376
 51
270.0000000000018
  0
LINE
  5
16A
  8
CAMERA_RIG
 10
551.8181407622149
 20
-196.5000097211195
 30
-70.85584841099308
 11
560.1818749330572
 21
-196.5000097211195
 31
-70.85584841099308
  0
LINE
  5
16B
  8
CAMERA_RIG
 10
466.0
 20
312.6451243320489
 30
-70.85584841099308
 11
915.2771925250338
 21
312.6451243320489
 31
-70.85584841099308
  0
LINE
  5
16C
  8
CAMERA_RIG
 10
915.2771925250338
 20
312.6451243320489
 30
-70.85584841099308
 11
915.2771925250338
 21
-288.0
 31
-70.85584841099308
  0
LINE
  5
16D
  8
CAMERA_RIG
 10
915.2771925250338
 20
-288.0
 30
-70.85584841099308
 11
466.0
 21
-288.0
 31
-70.85584841099308
  0
LINE
  5
16E
  8
CAMERA_RIG
 10
466.0
 20
-288.0
 30
-70.85584841099308
 11
466.0
 21
312.6451243320489
 31
-70.85584841099308
  0
ENDSEC
  0
EOF
