  0
SECTION
  2
HEADER
  9
$ACADVER
  1
AC1009
  9
$DWGCODEPAGE
  3
ansi_1252
  9
$INSBASE
 10
0.0
 20
0.0
 30
0.0
  9
$EXTMIN
 10
563.9999999999999
 20
-288.0
 30
-52.85584841099308
  9
$EXTMAX
 10
1020.814558707767
 20
312.6451243320489
 30
-52.85584841099308
  9
$LIMMIN
 10
0.0
 20
0.0
  9
$LIMMAX
 10
12.0
 20
9.0
  9
$ORTHOMODE
 70
     0
  9
$REGENMODE
 70
     1
  9
$FILLMODE
 70
     1
  9
$QTEXTMODE
 70
     0
  9
$MIRRTEXT
 70
     1
  9
$DRAGMODE
 70
     2
  9
$LTSCALE
 40
1.0
  9
$OSMODE
 70
    37
  9
$ATTMODE
 70
     1
  9
$TEXTSIZE
 40
0.2
  9
$TRACEWID
 40
0.05
  9
$TEXTSTYLE
  7
STANDARD
  9
$CLAYER
  8
DEFAULT
  9
$CELTYPE
  6
BYLAYER
  9
$CECOLOR
 62
   256
  9
$DIMSCALE
 40
1.0
  9
$DIMASZ
 40
0.18
  9
$DIMEXO
 40
0.0625
  9
$DIMDLI
 40
0.38
  9
$DIMRND
 40
0.0
  9
$DIMDLE
 40
0.0
  9
$DIMEXE
 40
0.18
  9
$DIMTP
 40
0.0
  9
$DIMTM
 40
0.0
  9
$DIMTXT
 40
0.18
  9
$DIMCEN
 40
0.09
  9
$DIMTSZ
 40
0.0
  9
$DIMTOL
 70
     0
  9
$DIMLIM
 70
     0
  9
$DIMTIH
 70
     1
  9
$DIMTOH
 70
     1
  9
$DIMSE1
 70
     0
  9
$DIMSE2
 70
     0
  9
$DIMTAD
 70
     0
  9
$DIMZIN
 70
     0
  9
$DIMBLK
  1

  9
$DIMASO
 70
     1
  9
$DIMSHO
 70
     1
  9
$DIMPOST
  1

  9
$DIMAPOST
  1

  9
$DIMALT
 70
     0
  9
$DIMALTD
 70
     2
  9
$DIMALTF
 40
25.4
  9
$DIMLFAC
 40
1.0
  9
$DIMTOFL
 70
     0
  9
$DIMTVP
 40
0.0
  9
$DIMTIX
 70
     0
  9
$DIMSOXD
 70
     0
  9
$DIMSAH
 70
     0
  9
$DIMBLK1
  1

  9
$DIMBLK2
  1

  9
$DIMSTYLE
  2
STANDARD_ACAD
  9
$DIMCLRD
 70
     0
  9
$DIMCLRE
 70
     0
  9
$DIMCLRT
 70
     0
  9
$DIMTFAC
 40
1.0
  9
$DIMGAP
 40
0.09
  9
$LUNITS
 70
     2
  9
$LUPREC
 70
     3
  9
$SKETCHINC
 40
0.1
  9
$FILLETRAD
 40
0.0
  9
$AUNITS
 70
     0
  9
$AUPREC
 70
     0
  9
$MENU
  1
.
  9
$ELEVATION
 40
0.0
  9
$PELEVATION
 40
0.0
  9
$THICKNESS
 40
0.0
  9
$LIMCHECK
 70
     0
  9
$CHAMFERA
 40
0.0
  9
$CHAMFERB
 40
0.0
  9
$SKPOLY
 70
     0
  9
$TDCREATE
 40
2460493.731235671
  9
$TDUPDATE
 40
2460493.731250232
  9
$TDINDWG
 40
0.0000000116
  9
$TDUSRTIMER
 40
0.0000000116
  9
$USRTIMER
 70
     1
  9
$ANGBASE
 50
0.0
  9
$ANGDIR
 70
     0
  9
$PDMODE
 70
     0
  9
$PDSIZE
 40
0.0
  9
$PLINEWID
 40
0.0
  9
$COORDS
 70
     1
  9
$SPLFRAME
 70
     0
  9
$SPLINETYPE
 70
     6
  9
$SPLINESEGS
 70
     8
  9
$ATTDIA
 70
     0
  9
$ATTREQ
 70
     1
  9
$HANDLING
 70
     1
  9
$HANDSEED
  5
16B
  9
$SURFTAB1
 70
     6
  9
$SURFTAB2
 70
     6
  9
$SURFTYPE
 70
     6
  9
$SURFU
 70
     6
  9
$SURFV
 70
     6
  9
$UCSNAME
  2

  9
$UCSORG
 10
0.0
 20
0.0
 30
0.0
  9
$UCSXDIR
 10
1.0
 20
0.0
 30
0.0
  9
$UCSYDIR
 10
0.0
 20
1.0
 30
0.0
  9
$PUCSNAME
  2

  9
$PUCSORG
 10
0.0
 20
0.0
 30
0.0
  9
$PUCSXDIR
 10
1.0
 20
0.0
 30
0.0
  9
$PUCSYDIR
 10
0.0
 20
1.0
 30
0.0
  9
$USERI1
 70
     0
  9
$USERI2
 70
     0
  9
$USERI3
 70
     0
  9
$USERI4
 70
     0
  9
$USERI5
 70
     0
  9
$USERR1
 40
0.0
  9
$USERR2
 40
0.0
  9
$USERR3
 40
0.0
  9
$USERR4
 40
0.0
  9
$USERR5
 40
0.0
  9
$WORLDVIEW
 70
     1
  9
$SHADEDGE
 70
     3
  9
$SHADEDIF
 70
    70
  9
$TILEMODE
 70
     1
  9
$MAXACTVP
 70
    64
  9
$PLIMCHECK
 70
     0
  9
$PEXTMIN
 10
1.000000000000000E+20
 20
1.000000000000000E+20
 30
1.000000000000000E+20
  9
$PEXTMAX
 10
-1.000000000000000E+20
 20
-1.000000000000000E+20
 30
-1.000000000000000E+20
  9
$PLIMMIN
 10
0.0
 20
0.0
  9
$PLIMMAX
 10
12.0
 20
9.0
  9
$UNITMODE
 70
     0
  9
$VISRETAIN
 70
     1
  9
$PLINEGEN
 70
     0
  9
$PSLTSCALE
 70
     1
  0
ENDSEC
  0
SECTION
  2
TABLES
  0
TABLE
  2
VPORT
 70
     1
  0
VPORT
  2
*ACTIVE
 70
     0
 10
0.0
 20
0.0
 11
1.0
 21
1.0
 12
10.42990654205607
 22
4.5
 13
0.0
 23
0.0
 14
0.5
 24
0.5
 15
0.5
 25
0.5
 16
0.0
 26
0.0
 36
1.0
 17
0.0
 27
0.0
 37
0.0
 40
9.0
 41
1.972972972850329
 42
50.0
 43
0.0
 44
0.0
 50
0.0
 51
0.0
 71
     0
 72
   100
 73
     1
 74
     3
 75
     0
 76
     0
 77
     0
 78
     0
  0
ENDTAB
  0
TABLE
  2
LTYPE
 70
     1
  0
LTYPE
  2
CONTINUOUS
 70
     0
  3
Solid line
 72
    65
 73
     0
 40
0.0
  0
ENDTAB
  0
TABLE
  2
LAYER
 70
     3
  0
LAYER
  2
0
 70
     0
 62
     7
  6
CONTINUOUS
  0
LAYER
  2
DEFAULT
 70
     0
 62
     7
  6
CONTINUOUS
  0
LAYER
  2
MARKS
 70
     0
 62
   172
  6
CONTINUOUS
  0
ENDTAB
  0
TABLE
  2
STYLE
 70
     1
  0
STYLE
  2
STANDARD
 70
     0
 40
0.0
 41
1.0
 50
0.0
 71
     0
 42
0.2
  3
txt
  4

  0
ENDTAB
  0
TABLE
  2
VIEW
 70
     0
  0
ENDTAB
  0
TABLE
  2
UCS
 70
     0
  0
ENDTAB
  0
TABLE
  2
APPID
 70
     2
  0
APPID
  2
ACAD
 70
     0
  0
APPID
  2
RHINO
 70
     0
  0
ENDTAB
  0
TABLE
  2
DIMSTYLE
 70
     1
  0
DIMSTYLE
  2
STANDARD_ACAD
 70
     0
  3

  4

  5

  6

  7

 40
1.0
 41
0.18
 42
0.0625
 43
0.38
 44
0.18
 45
0.0
 46
0.0
 47
0.0
 48
0.0
140
0.18
141
0.09
142
0.0
143
25.4
144
1.0
145
0.0
146
1.0
147
0.09
 71
     0
 72
     0
 73
     1
 74
     1
 75
     0
 76
     0
 77
     0
 78
     0
170
     0
171
     2
172
     0
173
     0
174
     0
175
     0
176
     0
177
     0
178
     0
  0
ENDTAB
  0
ENDSEC
  0
SECTION
  2
BLOCKS
  0
BLOCK
  8
0
  2
$MODEL_SPACE
 70
     0
 10
0.0
 20
0.0
 30
0.0
  3
$MODEL_SPACE
  1

  0
ENDBLK
  5
21
  8
0
  0
BLOCK
 67
     1
  8
0
  2
$PAPER_SPACE
 70
     0
 10
0.0
 20
0.0
 30
0.0
  3
$PAPER_SPACE
  1

  0
ENDBLK
  5
1D
 67
     1
  8
0
  0
ENDSEC
  0
SECTION
  2
ENTITIES
  0
CIRCLE
  5
60
  8
DEFAULT
 10
1013.428334804033
 20
187.0035074581037
 30
-52.85584841099308
 40
2.5
  0
CIRCLE
  5
61
  8
DEFAULT
 10
1013.428334804033
 20
153.003147718811
 30
-52.85584841099308
 40
2.5
  0
CIRCLE
  5
62
  8
DEFAULT
 10
1013.428334804033
 20
119.0027879795183
 30
-52.85584841099308
 40
2.500000000000114
  0
CIRCLE
  5
63
  8
DEFAULT
 10
1013.428334804033
 20
85.0024282402256
 30
-52.85584841099308
 40
2.5
  0
CIRCLE
  5
64
  8
DEFAULT
 10
1013.428334804033
 20
51.002068500933
 30
-52.85584841099308
 40
2.5
  0
CIRCLE
  5
65
  8
DEFAULT
 10
1013.428334804033
 20
17.00170876164024
 30
-52.85584841099308
 40
2.5
  0
CIRCLE
  5
66
  8
DEFAULT
 10
1013.428334804033
 20
-16.99865097765236
 30
-52.85584841099308
 40
2.500000000000114
  0
CIRCLE
  5
67
  8
DEFAULT
 10
1013.428334804033
 20
-50.99901071694512
 30
-52.85584841099308
 40
2.5
  0
CIRCLE
  5
68
  8
DEFAULT
 10
1013.428334804033
 20
-84.99937045623788
 30
-52.85584841099308
 40
2.5
  0
CIRCLE
  5
69
  8
DEFAULT
 10
-1013.390900514539
 20
-118.9997301955306
 30
52.85584841099308
 40
2.5
210
0.0
220
0.0
230
-1.0
  0
CIRCLE
  5
6A
  8
DEFAULT
 10
1013.390900514539
 20
-153.0000899348233
 30
-52.85584841099308
 40
2.500000000000114
  0
CIRCLE
  5
6B
  8
DEFAULT
 10
979.4279750647403
 20
187.0035074581038
 30
-52.85584841099308
 40
2.500000000000114
  0
CIRCLE
  5
6C
  8
DEFAULT
 10
945.4276153254475
 20
187.0035074581039
 30
-52.85584841099308
 40
2.5
  0
CIRCLE
  5
6D
  8
DEFAULT
 10
911.427255586155
 20
187.0035074581038
 30
-52.85584841099308
 40
2.500000000000114
  0
CIRCLE
  5
6E
  8
DEFAULT
 10
877.4268958468622
 20
187.0035074581039
 30
-52.85584841099308
 40
2.5
  0
CIRCLE
  5
6F
  8
DEFAULT
 10
843.4265361075696
 20
187.0035074581038
 30
-52.85584841099308
 40
2.500000000000114
  0
CIRCLE
  5
70
  8
DEFAULT
 10
809.4261763682769
 20
187.0035074581039
 30
-52.85584841099308
 40
2.5
  0
CIRCLE
  5
71
  8
DEFAULT
 10
775.4258166289842
 20
187.003507458104
 30
-52.85584841099308
 40
2.5
  0
CIRCLE
  5
72
  8
DEFAULT
 10
741.4254568896916
 20
187.0035074581038
 30
-52.85584841099308
 40
2.500000000000114
  0
CIRCLE
  5
73
  8
DEFAULT
 10
707.4250971503989
 20
187.0035074581039
 30
-52.85584841099308
 40
2.5
  0
CIRCLE
  5
74
  8
DEFAULT
 10
673.4247374111062
 20
187.0035074581038
 30
-52.85584841099308
 40
2.5
  0
CIRCLE
  5
75
  8
DEFAULT
 10
639.4243776718135
 20
187.0035074581039
 30
-52.85584841099308
 40
2.5
  0
CIRCLE
  5
76
  8
DEFAULT
 10
605.424017932521
 20
187.0035074581039
 30
-52.85584841099308
 40
2.500000000000114
  0
CIRCLE
  5
77
  8
DEFAULT
 10
571.4236581932282
 20
187.0035074581039
 30
-52.85584841099308
 40
2.5
  0
CIRCLE
  5
78
  8
DEFAULT
 10
979.4279750647402
 20
153.0031477188111
 30
-52.85584841099308
 40
2.5
  0
CIRCLE
  5
79
  8
DEFAULT
 10
945.4276153254474
 20
153.0031477188112
 30
-52.85584841099308
 40
2.499999999999886
  0
CIRCLE
  5
7A
  8
DEFAULT
 10
911.4272555861548
 20
153.0031477188111
 30
-52.85584841099308
 40
2.5
  0
CIRCLE
  5
7B
  8
DEFAULT
 10
877.4268958468621
 20
153.0031477188112
 30
-52.85584841099308
 40
2.499999999999886
  0
CIRCLE
  5
7C
  8
DEFAULT
 10
843.4265361075696
 20
153.0031477188112
 30
-52.85584841099308
 40
2.500000000000114
  0
CIRCLE
  5
7D
  8
DEFAULT
 10
809.4261763682769
 20
153.0031477188111
 30
-52.85584841099308
 40
2.5
  0
CIRCLE
  5
7E
  8
DEFAULT
 10
775.4258166289842
 20
153.0031477188112
 30
-52.85584841099308
 40
2.5
  0
CIRCLE
  5
7F
  8
DEFAULT
 10
741.4254568896915
 20
153.0031477188111
 30
-52.85584841099308
 40
2.5
  0
CIRCLE
  5
80
  8
DEFAULT
 10
707.4250971503989
 20
153.0031477188111
 30
-52.85584841099308
 40
2.5
  0
CIRCLE
  5
81
  8
DEFAULT
 10
673.4247374111063
 20
153.0031477188112
 30
-52.85584841099308
 40
2.500000000000114
  0
CIRCLE
  5
82
  8
DEFAULT
 10
639.4243776718135
 20
153.0031477188112
 30
-52.85584841099308
 40
2.5
  0
CIRCLE
  5
83
  8
DEFAULT
 10
605.4240179325209
 20
153.0031477188112
 30
-52.85584841099308
 40
2.5
  0
CIRCLE
  5
84
  8
DEFAULT
 10
571.4236581932283
 20
153.0031477188112
 30
-52.85584841099308
 40
2.500000000000114
  0
CIRCLE
  5
85
  8
DEFAULT
 10
979.4279750647403
 20
119.0027879795184
 30
-52.85584841099308
 40
2.500000000000114
  0
CIRCLE
  5
86
  8
DEFAULT
 10
945.4276153254475
 20
119.0027879795185
 30
-52.85584841099308
 40
2.5
  0
CIRCLE
  5
87
  8
DEFAULT
 10
911.427255586155
 20
119.0027879795184
 30
-52.85584841099308
 40
2.500000000000114
  0
CIRCLE
  5
88
  8
DEFAULT
 10
877.4268958468622
 20
119.0027879795185
 30
-52.85584841099308
 40
2.5
  0
CIRCLE
  5
89
  8
DEFAULT
 10
843.4265361075697
 20
119.0027879795185
 30
-52.85584841099308
 40
2.500000000000227
  0
CIRCLE
  5
8A
  8
DEFAULT
 10
809.4261763682769
 20
119.0027879795186
 30
-52.85584841099308
 40
2.5
  0
CIRCLE
  5
8B
  8
DEFAULT
 10
775.4258166289842
 20
119.0027879795186
 30
-52.85584841099308
 40
2.5
  0
CIRCLE
  5
8C
  8
DEFAULT
 10
741.4254568896915
 20
119.0027879795185
 30
-52.85584841099308
 40
2.5
  0
CIRCLE
  5
8D
  8
DEFAULT
 10
707.4250971503989
 20
119.0027879795185
 30
-52.85584841099308
 40
2.5
  0
CIRCLE
  5
8E
  8
DEFAULT
 10
673.4247374111062
 20
119.0027879795185
 30
-52.85584841099308
 40
2.5
  0
CIRCLE
  5
8F
  8
DEFAULT
 10
639.4243776718135
 20
119.0027879795186
 30
-52.85584841099308
 40
2.5
  0
CIRCLE
  5
90
  8
DEFAULT
 10
605.4240179325209
 20
119.0027879795185
 30
-52.85584841099308
 40
2.5
  0
CIRCLE
  5
91
  8
DEFAULT
 10
571.4236581932282
 20
119.0027879795185
 30
-52.85584841099308
 40
2.5
  0
CIRCLE
  5
92
  8
DEFAULT
 10
979.4279750647402
 20
85.00242824022577
 30
-52.85584841099308
 40
2.5
  0
CIRCLE
  5
93
  8
DEFAULT
 10
945.4276153254475
 20
85.00242824022584
 30
-52.85584841099308
 40
2.5
  0
CIRCLE
  5
94
  8
DEFAULT
 10
911.4272555861548
 20
85.00242824022577
 30
-52.85584841099308
 40
2.5
  0
CIRCLE
  5
95
  8
DEFAULT
 10
877.4268958468622
 20
85.00242824022577
 30
-52.85584841099308
 40
2.5
  0
CIRCLE
  5
96
  8
DEFAULT
 10
843.4265361075696
 20
85.00242824022584
 30
-52.85584841099308
 40
2.500000000000114
  0
CIRCLE
  5
97
  8
DEFAULT
 10
809.4261763682769
 20
85.00242824022577
 30
-52.85584841099308
 40
2.5
  0
CIRCLE
  5
98
  8
DEFAULT
 10
775.4258166289842
 20
85.00242824022584
 30
-52.85584841099308
 40
2.5
  0
CIRCLE
  5
99
  8
DEFAULT
 10
741.4254568896915
 20
85.00242824022577
 30
-52.85584841099308
 40
2.5
  0
CIRCLE
  5
9A
  8
DEFAULT
 10
707.4250971503989
 20
85.00242824022581
 30
-52.85584841099308
 40
2.5
  0
CIRCLE
  5
9B
  8
DEFAULT
 10
673.4247374111063
 20
85.00242824022584
 30
-52.85584841099308
 40
2.500000000000114
  0
CIRCLE
  5
9C
  8
DEFAULT
 10
639.4243776718135
 20
85.00242824022577
 30
-52.85584841099308
 40
2.5
  0
CIRCLE
  5
9D
  8
DEFAULT
 10
605.4240179325209
 20
85.00242824022581
 30
-52.85584841099308
 40
2.5
  0
CIRCLE
  5
9E
  8
DEFAULT
 10
571.4236581932283
 20
85.00242824022584
 30
-52.85584841099308
 40
2.500000000000114
  0
CIRCLE
  5
9F
  8
DEFAULT
 10
979.4279750647403
 20
51.00206850093316
 30
-52.85584841099308
 40
2.500000000000114
  0
CIRCLE
  5
A0
  8
DEFAULT
 10
945.4276153254475
 20
51.00206850093324
 30
-52.85584841099308
 40
2.5
  0
CIRCLE
  5
A1
  8
DEFAULT
 10
911.427255586155
 20
51.00206850093308
 30
-52.85584841099308
 40
2.500000000000114
  0
CIRCLE
  5
A2
  8
DEFAULT
 10
877.4268958468622
 20
51.00206850093324
 30
-52.85584841099308
 40
2.5
  0
CIRCLE
  5
A3
  8
DEFAULT
 10
843.4265361075696
 20
51.00206850093316
 30
-52.85584841099308
 40
2.500000000000114
  0
CIRCLE
  5
A4
  8
DEFAULT
 10
809.4261763682769
 20
51.00206850093316
 30
-52.85584841099308
 40
2.5
  0
CIRCLE
  5
A5
  8
DEFAULT
 10
775.4258166289842
 20
51.00206850093324
 30
-52.85584841099308
 40
2.5
  0
CIRCLE
  5
A6
  8
DEFAULT
 10
741.4254568896915
 20
51.00206850093312
 30
-52.85584841099308
 40
2.5
  0
CIRCLE
  5
A7
  8
DEFAULT
 10
707.425097150399
 20
51.00206850093316
 30
-52.85584841099308
 40
2.500000000000114
  0
CIRCLE
  5
A8
  8
DEFAULT
 10
673.4247374111063
 20
51.00206850093304
 30
-52.85584841099308
 40
2.500000000000114
  0
CIRCLE
  5
A9
  8
DEFAULT
 10
639.4243776718135
 20
51.00206850093312
 30
-52.85584841099308
 40
2.5
  0
CIRCLE
  5
AA
  8
DEFAULT
 10
605.4240179325209
 20
51.00206850093312
 30
-52.85584841099308
 40
2.5
  0
CIRCLE
  5
AB
  8
DEFAULT
 10
571.4236581932283
 20
51.00206850093308
 30
-52.85584841099308
 40
2.500000000000114
  0
CIRCLE
  5
AC
  8
DEFAULT
 10
979.4279750647402
 20
17.00170876164032
 30
-52.85584841099308
 40
2.5
  0
CIRCLE
  5
AD
  8
DEFAULT
 10
945.4276153254476
 20
17.0017087616404
 30
-52.85584841099308
 40
2.500000000000114
  0
CIRCLE
  5
AE
  8
DEFAULT
 10
911.4272555861548
 20
17.00170876164032
 30
-52.85584841099308
 40
2.5
  0
CIRCLE
  5
AF
  8
DEFAULT
 10
877.4268958468623
 20
17.0017087616404
 30
-52.85584841099308
 40
2.500000000000114
  0
CIRCLE
  5
B0
  8
DEFAULT
 10
843.4265361075696
 20
17.0017087616404
 30
-52.85584841099308
 40
2.500000000000114
  0
CIRCLE
  5
B1
  8
DEFAULT
 10
809.4261763682769
 20
17.00170876164032
 30
-52.85584841099308
 40
2.5
  0
CIRCLE
  5
B2
  8
DEFAULT
 10
775.4258166289842
 20
17.00170876164048
 30
-52.85584841099308
 40
2.5
  0
CIRCLE
  5
B3
  8
DEFAULT
 10
741.4254568896915
 20
17.00170876164032
 30
-52.85584841099308
 40
2.5
  0
CIRCLE
  5
B4
  8
DEFAULT
 10
707.425097150399
 20
17.00170876164036
 30
-52.85584841099308
 40
2.500000000000114
  0
CIRCLE
  5
B5
  8
DEFAULT
 10
673.4247374111063
 20
17.0017087616404
 30
-52.85584841099308
 40
2.500000000000114
  0
CIRCLE
  5
B6
  8
DEFAULT
 10
639.4243776718135
 20
17.00170876164036
 30
-52.85584841099308
 40
2.5
  0
CIRCLE
  5
B7
  8
DEFAULT
 10
605.424017932521
 20
17.0017087616404
 30
-52.85584841099308
 40
2.500000000000114
  0
CIRCLE
  5
B8
  8
DEFAULT
 10
571.4236581932283
 20
17.0017087616404
 30
-52.85584841099308
 40
2.500000000000114
  0
CIRCLE
  5
B9
  8
DEFAULT
 10
979.4279750647403
 20
-16.99865097765228
 30
-52.85584841099308
 40
2.500000000000114
  0
CIRCLE
  5
BA
  8
DEFAULT
 10
945.4276153254476
 20
-16.99865097765212
 30
-52.85584841099308
 40
2.500000000000114
  0
CIRCLE
  5
BB
  8
DEFAULT
 10
911.427255586155
 20
-16.99865097765228
 30
-52.85584841099308
 40
2.500000000000114
  0
CIRCLE
  5
BC
  8
DEFAULT
 10
877.4268958468622
 20
-16.9986509776522
 30
-52.85584841099308
 40
2.5
  0
CIRCLE
  5
BD
  8
DEFAULT
 10
843.4265361075696
 20
-16.9986509776522
 30
-52.85584841099308
 40
2.500000000000114
  0
CIRCLE
  5
BE
  8
DEFAULT
 10
809.4261763682769
 20
-16.9986509776522
 30
-52.85584841099308
 40
2.5
  0
CIRCLE
  5
BF
  8
DEFAULT
 10
775.4258166289843
 20
-16.99865097765212
 30
-52.85584841099308
 40
2.500000000000114
  0
CIRCLE
  5
C0
  8
DEFAULT
 10
741.4254568896916
 20
-16.99865097765228
 30
-52.85584841099308
 40
2.500000000000114
  0
CIRCLE
  5
C1
  8
DEFAULT
 10
707.425097150399
 20
-16.99865097765228
 30
-52.85584841099308
 40
2.500000000000114
  0
CIRCLE
  5
C2
  8
DEFAULT
 10
673.4247374111062
 20
-16.99865097765232
 30
-52.85584841099308
 40
2.5
  0
CIRCLE
  5
C3
  8
DEFAULT
 10
639.4243776718135
 20
-16.99865097765228
 30
-52.85584841099308
 40
2.5
  0
CIRCLE
  5
C4
  8
DEFAULT
 10
605.424017932521
 20
-16.99865097765224
 30
-52.85584841099308
 40
2.500000000000114
  0
CIRCLE
  5
C5
  8
DEFAULT
 10
571.4236581932283
 20
-16.99865097765224
 30
-52.85584841099308
 40
2.500000000000114
  0
CIRCLE
  5
C6
  8
DEFAULT
 10
979.4279750647403
 20
-50.99901071694504
 30
-52.85584841099308
 40
2.500000000000114
  0
CIRCLE
  5
C7
  8
DEFAULT
 10
945.4276153254475
 20
-50.99901071694488
 30
-52.85584841099308
 40
2.5
  0
CIRCLE
  5
C8
  8
DEFAULT
 10
911.4272555861548
 20
-50.99901071694497
 30
-52.85584841099308
 40
2.5
  0
CIRCLE
  5
C9
  8
DEFAULT
 10
877.4268958468622
 20
-50.99901071694497
 30
-52.85584841099308
 40
2.5
  0
CIRCLE
  5
CA
  8
DEFAULT
 10
843.4265361075696
 20
-50.99901071694497
 30
-52.85584841099308
 40
2.500000000000114
  0
CIRCLE
  5
CB
  8
DEFAULT
 10
809.4261763682769
 20
-50.99901071694497
 30
-52.85584841099308
 40
2.5
  0
CIRCLE
  5
CC
  8
DEFAULT
 10
775.4258166289842
 20
-50.99901071694488
 30
-52.85584841099308
 40
2.5
  0
CIRCLE
  5
CD
  8
DEFAULT
 10
741.4254568896916
 20
-50.99901071694504
 30
-52.85584841099308
 40
2.500000000000114
  0
CIRCLE
  5
CE
  8
DEFAULT
 10
707.4250971503989
 20
-50.999010716945
 30
-52.85584841099308
 40
2.5
  0
CIRCLE
  5
CF
  8
DEFAULT
 10
673.4247374111062
 20
-50.99901071694497
 30
-52.85584841099308
 40
2.5
  0
CIRCLE
  5
D0
  8
DEFAULT
 10
639.4243776718135
 20
-50.99901071694497
 30
-52.85584841099308
 40
2.5
  0
CIRCLE
  5
D1
  8
DEFAULT
 10
605.424017932521
 20
-50.99901071694492
 30
-52.85584841099308
 40
2.500000000000114
  0
CIRCLE
  5
D2
  8
DEFAULT
 10
571.4236581932283
 20
-50.99901071694492
 30
-52.85584841099308
 40
2.500000000000114
  0
CIRCLE
  5
D3
  8
DEFAULT
 10
979.4279750647402
 20
-84.99937045623773
 30
-52.85584841099308
 40
2.5
  0
CIRCLE
  5
D4
  8
DEFAULT
 10
945.4276153254476
 20
-84.99937045623757
 30
-52.85584841099308
 40
2.500000000000114
  0
CIRCLE
  5
D5
  8
DEFAULT
 10
911.4272555861548
 20
-84.99937045623764
 30
-52.85584841099308
 40
2.5
  0
CIRCLE
  5
D6
  8
DEFAULT
 10
877.4268958468622
 20
-84.99937045623764
 30
-52.85584841099308
 40
2.5
  0
CIRCLE
  5
D7
  8
DEFAULT
 10
843.4265361075697
 20
-84.99937045623757
 30
-52.85584841099308
 40
2.500000000000227
  0
CIRCLE
  5
D8
  8
DEFAULT
 10
809.426176368277
 20
-84.99937045623757
 30
-52.85584841099308
 40
2.500000000000114
  0
CIRCLE
  5
D9
  8
DEFAULT
 10
775.4258166289843
 20
-84.99937045623757
 30
-52.85584841099308
 40
2.500000000000114
  0
CIRCLE
  5
DA
  8
DEFAULT
 10
741.4254568896916
 20
-84.99937045623768
 30
-52.85584841099308
 40
2.500000000000114
  0
CIRCLE
  5
DB
  8
DEFAULT
 10
707.4250971503989
 20
-84.99937045623764
 30
-52.85584841099308
 40
2.5
  0
CIRCLE
  5
DC
  8
DEFAULT
 10
673.4247374111063
 20
-84.99937045623768
 30
-52.85584841099308
 40
2.500000000000114
  0
CIRCLE
  5
DD
  8
DEFAULT
 10
639.4243776718135
 20
-84.99937045623764
 30
-52.85584841099308
 40
2.5
  0
CIRCLE
  5
DE
  8
DEFAULT
 10
605.424017932521
 20
-84.9993704562376
 30
-52.85584841099308
 40
2.500000000000114
  0
CIRCLE
  5
DF
  8
DEFAULT
 10
571.4236581932283
 20
-84.99937045623764
 30
-52.85584841099308
 40
2.500000000000114
  0
CIRCLE
  5
E0
  8
DEFAULT
 10
979.4279750647402
 20
-118.9997301955303
 30
-52.85584841099308
 40
2.5
  0
CIRCLE
  5
E1
  8
DEFAULT
 10
911.4272555861548
 20
-118.9997301955304
 30
-52.85584841099308
 40
2.5
  0
CIRCLE
  5
E2
  8
DEFAULT
 10
877.4268958468622
 20
-118.9997301955303
 30
-52.85584841099308
 40
2.5
  0
CIRCLE
  5
E3
  8
DEFAULT
 10
843.4265361075696
 20
-118.9997301955302
 30
-52.85584841099308
 40
2.500000000000114
  0
CIRCLE
  5
E4
  8
DEFAULT
 10
809.4261763682769
 20
-118.9997301955303
 30
-52.85584841099308
 40
2.5
  0
CIRCLE
  5
E5
  8
DEFAULT
 10
775.4258166289842
 20
-118.9997301955303
 30
-52.85584841099308
 40
2.5
  0
CIRCLE
  5
E6
  8
DEFAULT
 10
741.4254568896915
 20
-118.9997301955304
 30
-52.85584841099308
 40
2.5
  0
CIRCLE
  5
E7
  8
DEFAULT
 10
707.425097150399
 20
-118.9997301955304
 30
-52.85584841099308
 40
2.500000000000114
  0
CIRCLE
  5
E8
  8
DEFAULT
 10
673.4247374111062
 20
-118.9997301955303
 30
-52.85584841099308
 40
2.5
  0
CIRCLE
  5
E9
  8
DEFAULT
 10
639.4243776718135
 20
-118.9997301955303
 30
-52.85584841099308
 40
2.5
  0
CIRCLE
  5
EA
  8
DEFAULT
 10
605.424017932521
 20
-118.9997301955303
 30
-52.85584841099308
 40
2.500000000000114
  0
CIRCLE
  5
EB
  8
DEFAULT
 10
571.4236581932282
 20
-118.9997301955303
 30
-52.85584841099308
 40
2.5
  0
CIRCLE
  5
EC
  8
DEFAULT
 10
979.4279750647402
 20
-153.0000899348231
 30
-52.85584841099308
 40
2.5
  0
CIRCLE
  5
ED
  8
DEFAULT
 10
911.4272555861548
 20
-153.0000899348231
 30
-52.85584841099308
 40
2.5
  0
CIRCLE
  5
EE
  8
DEFAULT
 10
877.4268958468622
 20
-153.0000899348231
 30
-52.85584841099308
 40
2.5
  0
CIRCLE
  5
EF
  8
DEFAULT
 10
843.4265361075696
 20
-153.0000899348231
 30
-52.85584841099308
 40
2.500000000000114
  0
CIRCLE
  5
F0
  8
DEFAULT
 10
809.4261763682769
 20
-153.0000899348231
 30
-52.85584841099308
 40
2.5
  0
CIRCLE
  5
F1
  8
DEFAULT
 10
775.4258166289842
 20
-153.0000899348231
 30
-52.85584841099308
 40
2.5
  0
CIRCLE
  5
F2
  8
DEFAULT
 10
741.4254568896915
 20
-153.0000899348231
 30
-52.85584841099308
 40
2.5
  0
CIRCLE
  5
F3
  8
DEFAULT
 10
707.4250971503989
 20
-153.0000899348231
 30
-52.85584841099308
 40
2.5
  0
CIRCLE
  5
F4
  8
DEFAULT
 10
673.4247374111063
 20
-153.0000899348231
 30
-52.85584841099308
 40
2.500000000000114
  0
CIRCLE
  5
F5
  8
DEFAULT
 10
639.4243776718135
 20
-153.0000899348231
 30
-52.85584841099308
 40
2.5
  0
CIRCLE
  5
F6
  8
DEFAULT
 10
605.4240179325209
 20
-153.000089934823
 30
-52.85584841099308
 40
2.5
  0
CIRCLE
  5
F7
  8
DEFAULT
 10
-945.390181035953
 20
-118.9997301955304
 30
52.85584841099308
 40
2.5
210
0.0
220
0.0
230
-1.0
  0
CIRCLE
  5
F8
  8
DEFAULT
 10
945.390181035953
 20
-153.0000899348231
 30
-52.85584841099308
 40
2.5
  0
CIRCLE
  5
F9
  8
DEFAULT
 10
-571.4236581932282
 20
-118.9997301955304
 30
52.85584841099308
 40
2.5
210
0.0
220
0.0
230
-1.0
  0
CIRCLE
  5
FA
  8
DEFAULT
 10
571.4236581932283
 20
-153.0000899348231
 30
-52.85584841099308
 40
2.500000000000114
  0
LINE
  5
FC
  8
MARKS
 10
564.0000000000003
 20
-166.9999100651767
 30
-52.85584841099308
 11
952.8138392291809
 21
-166.9999100651767
 31
-52.85584841099308
  0
LINE
  5
FD
  8
MARKS
 10
952.8138392291809
 20
-166.9999100651767
 30
-52.85584841099308
 11
952.8138392291809
 21
-104.9999100651767
 31
-52.85584841099308
  0
LINE
  5
FE
  8
MARKS
 10
952.8138392291809
 20
-104.9999100651767
 30
-52.85584841099308
 11
564.0000000000003
 21
-104.9999100651767
 31
-52.85584841099308
  0
LINE
  5
FF
  8
MARKS
 10
564.0000000000003
 20
-104.9999100651767
 30
-52.85584841099308
 11
564.0000000000003
 21
-166.9999100651767
 31
-52.85584841099308
  0
LINE
  5
100
  8
DEFAULT
 10
563.9999999999999
 20
312.6451243320489
 30
-52.85584841099308
 11
1020.814558707767
 21
312.6451243320489
 31
-52.85584841099308
  0
LINE
  5
101
  8
DEFAULT
 10
1020.814558707767
 20
312.6451243320489
 30
-52.85584841099308
 11
1020.814558707767
 21
-288.0
 31
-52.85584841099308
  0
LINE
  5
102
  8
DEFAULT
 10
1020.814558707767
 20
-288.0
 30
-52.85584841099308
 11
563.9999999999999
 21
-288.0
 31
-52.85584841099308
  0
LINE
  5
103
  8
DEFAULT
 10
563.9999999999999
 20
-288.0
 30
-52.85584841099308
 11
563.9999999999999
 21
312.6451243320489
 31
-52.85584841099308
  0
ARC
  5
104
  8
DEFAULT
 10
660.1818738978382
 20
-193.0000051746162
 30
-52.85584841099308
 40
1.500000000000057
 50
269.9999999999956
 51
90.00000000000436
  0
LINE
  5
105
  8
DEFAULT
 10
660.181873897838
 20
-191.5000051746161
 30
-52.85584841099308
 11
647.8181397271591
 21
-191.5000051746161
 31
-52.85584841099308
  0
ARC
  5
106
  8
DEFAULT
 10
647.818139727159
 20
-193.0000051746162
 30
-52.85584841099308
 40
1.500000000000057
 50
89.99999999999567
 51
270.0000000000043
  0
LINE
  5
107
  8
DEFAULT
 10
647.8181397271591
 20
-194.5000051746163
 30
-52.85584841099308
 11
660.181873897838
 21
-194.5000051746163
 31
-52.85584841099308
  0
ARC
  5
108
  8
DEFAULT
 10
660.1818738978382
 20
-213.5759169165901
 30
-52.85584841099308
 40
1.500000000000028
 50
269.9999999999956
 51
90.00000000000436
  0
LINE
  5
109
  8
DEFAULT
 10
660.181873897838
 20
-212.07591691659
 30
-52.85584841099308
 11
647.8181397271591
 21
-212.07591691659
 31
-52.85584841099308
  0
ARC
  5
10A
  8
DEFAULT
 10
647.818139727159
 20
-213.5759169165901
 30
-52.85584841099308
 40
1.500000000000057
 50
89.99999999999567
 51
270.0000000000043
  0
LINE
  5
10B
  8
DEFAULT
 10
647.8181397271591
 20
-215.0759169165902
 30
-52.85584841099308
 11
660.181873897838
 21
-215.0759169165901
 31
-52.85584841099308
  0
ARC
  5
10C
  8
DEFAULT
 10
660.181860272841
 20
-234.1612472920582
 30
-52.85584841099308
 40
1.500000000000085
 50
270.0
 51
90.0
  0
LINE
  5
10D
  8
DEFAULT
 10
660.181860272841
 20
-232.6612472920582
 30
-52.85584841099308
 11
647.8181261021621
 21
-232.6612472920583
 31
-52.85584841099308
  0
ARC
  5
10E
  8
DEFAULT
 10
647.8181261021618
 20
-234.1612472920584
 30
-52.85584841099308
 40
1.500000000000114
 50
89.99999999999133
 51
270.0000000000086
  0
LINE
  5
10F
  8
DEFAULT
 10
647.8181261021621
 20
-235.6612472920584
 30
-52.85584841099308
 11
660.181860272841
 21
-235.6612472920583
 31
-52.85584841099308
  0
ARC
  5
110
  8
DEFAULT
 10
595.818141728578
 20
-193.0000112369171
 30
-52.85584841099308
 40
1.500000000000114
 50
270.0
 51
90.0
  0
LINE
  5
111
  8
DEFAULT
 10
595.818141728578
 20
-191.5000112369171
 30
-52.85584841099308
 11
583.454407557899
 21
-191.5000112369171
 31
-52.85584841099308
  0
ARC
  5
112
  8
DEFAULT
 10
583.4544075578988
 20
-193.0000112369171
 30
-52.85584841099308
 40
1.5
 50
89.99999999999133
 51
270.0000000000043
  0
LINE
  5
113
  8
DEFAULT
 10
583.4544075578989
 20
-194.5000112369171
 30
-52.85584841099308
 11
595.818141728578
 21
-194.5000112369172
 31
-52.85584841099308
  0
ARC
  5
114
  8
DEFAULT
 10
595.818141728578
 20
-213.5759229788911
 30
-52.85584841099308
 40
1.5
 50
270.0
 51
90.0
  0
LINE
  5
115
  8
DEFAULT
 10
595.818141728578
 20
-212.075922978891
 30
-52.85584841099308
 11
583.4544075578989
 21
-212.075922978891
 31
-52.85584841099308
  0
ARC
  5
116
  8
DEFAULT
 10
583.4544075578989
 20
-213.575922978891
 30
-52.85584841099308
 40
1.5
 50
90.0
 51
270.0
  0
LINE
  5
117
  8
DEFAULT
 10
583.4544075578989
 20
-215.075922978891
 30
-52.85584841099308
 11
595.818141728578
 21
-215.0759229788911
 31
-52.85584841099308
  0
ARC
  5
118
  8
DEFAULT
 10
595.8181281035809
 20
-234.1612533543591
 30
-52.85584841099308
 40
1.500000000000114
 50
270.0000000000043
 51
90.0
  0
LINE
  5
119
  8
DEFAULT
 10
595.8181281035809
 20
-232.6612533543591
 30
-52.85584841099308
 11
583.4543939329019
 21
-232.6612533543591
 31
-52.85584841099308
  0
ARC
  5
11A
  8
DEFAULT
 10
583.454393932902
 20
-234.1612533543592
 30
-52.85584841099308
 40
1.500000000000114
 50
90.00000000000436
 51
269.9999999999956
  0
LINE
  5
11B
  8
DEFAULT
 10
583.4543939329019
 20
-235.6612533543592
 30
-52.85584841099308
 11
595.818128103581
 21
-235.6612533543592
 31
-52.85584841099308
  0
ARC
  5
11C
  8
DEFAULT
 10
886.0953342536118
 20
-230.0000112369175
 30
-52.85584841099308
 40
1.500000000000085
 50
269.9999999999826
 51
90.00000000001738
  0
LINE
  5
11D
  8
DEFAULT
 10
886.0953342536113
 20
-228.5000112369175
 30
-52.85584841099308
 11
873.7316000829323
 21
-228.5000112369175
 31
-52.85584841099308
  0
ARC
  5
11E
  8
DEFAULT
 10
873.7316000829325
 20
-230.0000112369173
 30
-52.85584841099308
 40
1.499999999999773
 50
90.00000000000436
 51
269.9999999999956
  0
LINE
  5
11F
  8
DEFAULT
 10
873.7316000829323
 20
-231.5000112369176
 30
-52.85584841099308
 11
886.0953342536113
 21
-231.5000112369176
 31
-52.85584841099308
  0
ARC
  5
120
  8
DEFAULT
 10
886.0953342536117
 20
-250.5759229788915
 30
-52.85584841099308
 40
1.500000000000085
 50
269.999999999987
 51
90.00000000000436
  0
LINE
  5
121
  8
DEFAULT
 10
886.0953342536116
 20
-249.0759229788914
 30
-52.85584841099308
 11
873.7316000829323
 21
-249.0759229788914
 31
-52.85584841099308
  0
ARC
  5
122
  8
DEFAULT
 10
873.7316000829326
 20
-250.5759229788913
 30
-52.85584841099308
 40
1.499999999999886
 50
90.0000000000087
 51
269.9999999999913
  0
LINE
  5
123
  8
DEFAULT
 10
873.7316000829323
 20
-252.0759229788914
 30
-52.85584841099308
 11
886.0953342536113
 21
-252.0759229788916
 31
-52.85584841099308
  0
ARC
  5
124
  8
DEFAULT
 10
886.0953206286144
 20
-271.1612533543597
 30
-52.85584841099308
 40
1.5
 50
270.0
 51
90.0
  0
LINE
  5
125
  8
DEFAULT
 10
886.0953206286144
 20
-269.6612533543596
 30
-52.85584841099308
 11
873.7315864579355
 21
-269.6612533543596
 31
-52.85584841099308
  0
ARC
  5
126
  8
DEFAULT
 10
873.7315864579355
 20
-271.1612533543596
 30
-52.85584841099308
 40
1.5
 50
90.0
 51
270.0
  0
LINE
  5
127
  8
DEFAULT
 10
873.7315864579355
 20
-272.6612533543597
 30
-52.85584841099308
 11
886.0953206286144
 21
-272.6612533543597
 31
-52.85584841099308
  0
ARC
  5
128
  8
DEFAULT
 10
950.4590527978747
 20
-271.1612472920588
 30
-52.85584841099308
 40
1.500000000000057
 50
269.9999999999956
 51
90.00000000000436
  0
LINE
  5
129
  8
DEFAULT
 10
950.4590527978746
 20
-269.6612472920586
 30
-52.85584841099308
 11
938.0953186271954
 21
-269.6612472920588
 31
-52.85584841099308
  0
ARC
  5
12A
  8
DEFAULT
 10
938.0953186271955
 20
-271.1612472920588
 30
-52.85584841099308
 40
1.5
 50
90.00000000000436
 51
269.9999999999956
  0
LINE
  5
12B
  8
DEFAULT
 10
938.0953186271954
 20
-272.6612472920587
 30
-52.85584841099308
 11
950.4590527978746
 21
-272.6612472920589
 31
-52.85584841099308
  0
ARC
  5
12C
  8
DEFAULT
 10
950.4590664228715
 20
-250.5759169165905
 30
-52.85584841099308
 40
1.500000000000057
 50
270.0000000000086
 51
89.99999999999133
  0
LINE
  5
12D
  8
DEFAULT
 10
950.4590664228717
 20
-249.0759169165905
 30
-52.85584841099308
 11
938.0953322521927
 21
-249.0759169165904
 31
-52.85584841099308
  0
ARC
  5
12E
  8
DEFAULT
 10
938.0953322521925
 20
-250.5759169165905
 30
-52.85584841099308
 40
1.500000000000057
 50
89.99999999999133
 51
270.0000000000086
  0
LINE
  5
12F
  8
DEFAULT
 10
938.0953322521927
 20
-252.0759169165906
 30
-52.85584841099308
 11
950.4590664228717
 21
-252.0759169165905
 31
-52.85584841099308
  0
ARC
  5
130
  8
DEFAULT
 10
950.4590664228715
 20
-230.0000051746165
 30
-52.85584841099308
 40
1.500000000000227
 50
270.0000000000086
 51
89.99999999999133
  0
LINE
  5
131
  8
DEFAULT
 10
950.4590664228717
 20
-228.5000051746166
 30
-52.85584841099308
 11
938.0953322521927
 21
-228.5000051746166
 31
-52.85584841099308
  0
ARC
  5
132
  8
DEFAULT
 10
938.0953322521925
 20
-230.0000051746167
 30
-52.85584841099308
 40
1.500000000000085
 50
89.99999999999133
 51
270.0000000000086
  0
LINE
  5
133
  8
DEFAULT
 10
938.0953322521927
 20
-231.5000051746167
 30
-52.85584841099308
 11
950.4590664228717
 21
-231.5000051746167
 31
-52.85584841099308
  0
ARC
  5
134
  8
DEFAULT
 10
886.0953206286143
 20
254.6357168126922
 30
-52.85584841099308
 40
1.5
 50
270.0000000000043
 51
89.99999999999567
  0
LINE
  5
135
  8
DEFAULT
 10
886.0953206286144
 20
256.1357168126923
 30
-52.85584841099308
 11
873.7315864579355
 21
256.1357168126923
 31
-52.85584841099308
  0
ARC
  5
136
  8
DEFAULT
 10
873.7315864579357
 20
254.6357168126921
 30
-52.85584841099308
 40
1.500000000000227
 50
90.0000000000087
 51
269.9999999999913
  0
LINE
  5
137
  8
DEFAULT
 10
873.7315864579355
 20
253.1357168126922
 30
-52.85584841099308
 11
886.0953206286144
 21
253.1357168126922
 31
-52.85584841099308
  0
ARC
  5
138
  8
DEFAULT
 10
886.0953342536118
 20
275.2210471881604
 30
-52.85584841099308
 40
1.5
 50
269.9999999999913
 51
90.0000000000087
  0
LINE
  5
139
  8
DEFAULT
 10
886.0953342536116
 20
276.7210471881605
 30
-52.85584841099308
 11
873.7316000829323
 21
276.7210471881605
 31
-52.85584841099308
  0
ARC
  5
13A
  8
DEFAULT
 10
873.7316000829322
 20
275.2210471881605
 30
-52.85584841099308
 40
1.5
 50
89.99999999999567
 51
270.0000000000043
  0
LINE
  5
13B
  8
DEFAULT
 10
873.7316000829323
 20
273.7210471881604
 30
-52.85584841099308
 11
886.0953342536116
 21
273.7210471881604
 31
-52.85584841099308
  0
ARC
  5
13C
  8
DEFAULT
 10
950.4590527978746
 20
254.6357228749931
 30
-52.85584841099308
 40
1.500000000000057
 50
270.0
 51
90.0
  0
LINE
  5
13D
  8
DEFAULT
 10
950.4590527978746
 20
256.1357228749932
 30
-52.85584841099308
 11
938.0953186271954
 21
256.1357228749932
 31
-52.85584841099308
  0
ARC
  5
13E
  8
DEFAULT
 10
938.0953186271955
 20
254.6357228749931
 30
-52.85584841099308
 40
1.500000000000114
 50
90.00000000000436
 51
269.9999999999956
  0
LINE
  5
13F
  8
DEFAULT
 10
938.0953186271954
 20
253.1357228749931
 30
-52.85584841099308
 11
950.4590527978746
 21
253.1357228749931
 31
-52.85584841099308
  0
ARC
  5
140
  8
DEFAULT
 10
950.4590664228715
 20
275.2210532504615
 30
-52.85584841099308
 40
1.500000000000227
 50
270.0000000000086
 51
89.99999999999133
  0
LINE
  5
141
  8
DEFAULT
 10
950.4590664228717
 20
276.7210532504614
 30
-52.85584841099308
 11
938.0953322521927
 21
276.7210532504614
 31
-52.85584841099308
  0
ARC
  5
142
  8
DEFAULT
 10
938.0953322521929
 20
275.2210532504613
 30
-52.85584841099308
 40
1.500000000000114
 50
90.00000000000436
 51
269.9999999999956
  0
LINE
  5
143
  8
DEFAULT
 10
938.0953322521927
 20
273.7210532504613
 30
-52.85584841099308
 11
950.4590664228717
 21
273.7210532504613
 31
-52.85584841099308
  0
ARC
  5
144
  8
DEFAULT
 10
950.4590664228715
 20
295.7969649924354
 30
-52.85584841099308
 40
1.500000000000227
 50
270.0000000000086
 51
89.99999999999133
  0
LINE
  5
145
  8
DEFAULT
 10
950.4590664228717
 20
297.2969649924353
 30
-52.85584841099308
 11
938.0953322521927
 21
297.2969649924353
 31
-52.85584841099308
  0
ARC
  5
146
  8
DEFAULT
 10
938.0953322521929
 20
295.7969649924352
 30
-52.85584841099308
 40
1.500000000000114
 50
90.00000000000436
 51
269.9999999999956
  0
LINE
  5
147
  8
DEFAULT
 10
938.0953322521927
 20
294.2969649924352
 30
-52.85584841099308
 11
950.4590664228717
 21
294.2969649924352
 31
-52.85584841099308
  0
ARC
  5
148
  8
DEFAULT
 10
886.0953342536114
 20
295.7969589301342
 30
-52.85584841099308
 40
1.5
 50
270.0000000000043
 51
89.99999999999567
  0
LINE
  5
149
  8
DEFAULT
 10
886.0953342536116
 20
297.2969589301343
 30
-52.85584841099308
 11
873.7316000829323
 21
297.2969589301344
 31
-52.85584841099308
  0
ARC
  5
14A
  8
DEFAULT
 10
873.7316000829322
 20
295.7969589301345
 30
-52.85584841099308
 40
1.499999999999943
 50
89.99999999999567
 51
270.0000000000043
  0
LINE
  5
14B
  8
DEFAULT
 10
873.7316000829323
 20
294.2969589301343
 30
-52.85584841099308
 11
886.0953342536116
 21
294.2969589301342
 31
-52.85584841099308
  0
ARC
  5
14C
  8
DEFAULT
 10
660.1818602728409
 20
217.6357228749928
 30
-52.85584841099308
 40
1.500000000000171
 50
270.0000000000043
 51
89.99999999999567
  0
LINE
  5
14D
  8
DEFAULT
 10
660.181860272841
 20
219.1357228749928
 30
-52.85584841099308
 11
647.8181261021621
 21
219.1357228749927
 31
-52.85584841099308
  0
ARC
  5
14E
  8
DEFAULT
 10
647.818126102162
 20
217.6357228749929
 30
-52.85584841099308
 40
1.499999999999829
 50
89.99999999999567
 51
270.0000000000043
  0
LINE
  5
14F
  8
DEFAULT
 10
647.8181261021621
 20
216.1357228749926
 30
-52.85584841099308
 11
660.181860272841
 21
216.1357228749926
 31
-52.85584841099308
  0
ARC
  5
150
  8
DEFAULT
 10
660.1818738978382
 20
238.2210532504608
 30
-52.85584841099308
 40
1.500000000000028
 50
269.9999999999956
 51
90.00000000000436
  0
LINE
  5
151
  8
DEFAULT
 10
660.181873897838
 20
239.721053250461
 30
-52.85584841099308
 11
647.8181397271591
 21
239.721053250461
 31
-52.85584841099308
  0
ARC
  5
152
  8
DEFAULT
 10
647.818139727159
 20
238.221053250461
 30
-52.85584841099308
 40
1.5
 50
89.99999999999567
 51
270.0000000000043
  0
LINE
  5
153
  8
DEFAULT
 10
647.8181397271591
 20
236.7210532504608
 30
-52.85584841099308
 11
660.181873897838
 21
236.7210532504608
 31
-52.85584841099308
  0
ARC
  5
154
  8
DEFAULT
 10
595.8181281035811
 20
217.6357168126918
 30
-52.85584841099308
 40
1.500000000000085
 50
269.9999999999956
 51
90.00000000000436
  0
LINE
  5
155
  8
DEFAULT
 10
595.818128103581
 20
219.1357168126918
 30
-52.85584841099308
 11
583.4543939329019
 21
219.1357168126918
 31
-52.85584841099308
  0
ARC
  5
156
  8
DEFAULT
 10
583.454393932902
 20
217.6357168126917
 30
-52.85584841099308
 40
1.500000000000114
 50
90.00000000000436
 51
269.9999999999956
  0
LINE
  5
157
  8
DEFAULT
 10
583.4543939329019
 20
216.1357168126917
 30
-52.85584841099308
 11
595.818128103581
 21
216.1357168126917
 31
-52.85584841099308
  0
ARC
  5
158
  8
DEFAULT
 10
595.8181417285779
 20
238.22104718816
 30
-52.85584841099308
 40
1.500000000000057
 50
270.0
 51
89.99999999999567
  0
LINE
  5
159
  8
DEFAULT
 10
595.818141728578
 20
239.7210471881601
 30
-52.85584841099308
 11
583.454407557899
 21
239.7210471881601
 31
-52.85584841099308
  0
ARC
  5
15A
  8
DEFAULT
 10
583.4544075578988
 20
238.2210471881601
 30
-52.85584841099308
 40
1.499999999999943
 50
89.99999999999133
 51
270.0000000000043
  0
LINE
  5
15B
  8
DEFAULT
 10
583.4544075578989
 20
236.72104718816
 30
-52.85584841099308
 11
595.8181417285779
 21
236.72104718816
 31
-52.85584841099308
  0
ARC
  5
15C
  8
DEFAULT
 10
595.818141728578
 20
258.7969589301339
 30
-52.85584841099308
 40
1.500000000000171
 50
270.0
 51
90.0
  0
LINE
  5
15D
  8
DEFAULT
 10
595.818141728578
 20
260.2969589301339
 30
-52.85584841099308
 11
583.4544075578989
 21
260.2969589301339
 31
-52.85584841099308
  0
ARC
  5
15E
  8
DEFAULT
 10
583.454407557899
 20
258.7969589301338
 30
-52.85584841099308
 40
1.500000000000057
 50
90.00000000000436
 51
270.0
  0
LINE
  5
15F
  8
DEFAULT
 10
583.454407557899
 20
257.2969589301338
 30
-52.85584841099308
 11
595.818141728578
 21
257.2969589301338
 31
-52.85584841099308
  0
ARC
  5
160
  8
DEFAULT
 10
660.1818738978379
 20
258.7969649924348
 30
-52.85584841099308
 40
1.500000000000057
 50
270.0000000000043
 51
89.99999999999567
  0
LINE
  5
161
  8
DEFAULT
 10
660.181873897838
 20
260.2969649924348
 30
-52.85584841099308
 11
647.8181397271591
 21
260.2969649924348
 31
-52.85584841099308
  0
ARC
  5
162
  8
DEFAULT
 10
647.8181397271592
 20
258.7969649924347
 30
-52.85584841099308
 40
1.500000000000057
 50
90.00000000000436
 51
269.9999999999956
  0
LINE
  5
163
  8
DEFAULT
 10
647.8181397271591
 20
257.2969649924348
 30
-52.85584841099308
 11
660.181873897838
 21
257.2969649924348
 31
-52.85584841099308
  0
ENDSEC
  0
EOF
