  0
SECTION
  2
HEADER
  9
$ACADVER
  1
AC1009
  9
$DWGCODEPAGE
  3
ansi_1252
  9
$INSBASE
 10
0.0
 20
0.0
 30
0.0
  9
$EXTMIN
 10
563.9999999999999
 20
-288.0
 30
-70.85584843459112
  9
$EXTMAX
 10
1020.814558707767
 20
312.6451243320489
 30
-70.85584841098803
  9
$LIMMIN
 10
0.0
 20
0.0
  9
$LIMMAX
 10
12.0
 20
9.0
  9
$ORTHOMODE
 70
     0
  9
$REGENMODE
 70
     1
  9
$FILLMODE
 70
     1
  9
$QTEXTMODE
 70
     0
  9
$MIRRTEXT
 70
     1
  9
$DRAGMODE
 70
     2
  9
$LTSCALE
 40
1.0
  9
$OSMODE
 70
    37
  9
$ATTMODE
 70
     1
  9
$TEXTSIZE
 40
0.2
  9
$TRACEWID
 40
0.05
  9
$TEXTSTYLE
  7
STANDARD
  9
$CLAYER
  8
DEFAULT
  9
$CELTYPE
  6
BYLAYER
  9
$CECOLOR
 62
   256
  9
$DIMSCALE
 40
1.0
  9
$DIMASZ
 40
0.18
  9
$DIMEXO
 40
0.0625
  9
$DIMDLI
 40
0.38
  9
$DIMRND
 40
0.0
  9
$DIMDLE
 40
0.0
  9
$DIMEXE
 40
0.18
  9
$DIMTP
 40
0.0
  9
$DIMTM
 40
0.0
  9
$DIMTXT
 40
0.18
  9
$DIMCEN
 40
0.09
  9
$DIMTSZ
 40
0.0
  9
$DIMTOL
 70
     0
  9
$DIMLIM
 70
     0
  9
$DIMTIH
 70
     1
  9
$DIMTOH
 70
     1
  9
$DIMSE1
 70
     0
  9
$DIMSE2
 70
     0
  9
$DIMTAD
 70
     0
  9
$DIMZIN
 70
     0
  9
$DIMBLK
  1

  9
$DIMASO
 70
     1
  9
$DIMSHO
 70
     1
  9
$DIMPOST
  1

  9
$DIMAPOST
  1

  9
$DIMALT
 70
     0
  9
$DIMALTD
 70
     2
  9
$DIMALTF
 40
25.4
  9
$DIMLFAC
 40
1.0
  9
$DIMTOFL
 70
     0
  9
$DIMTVP
 40
0.0
  9
$DIMTIX
 70
     0
  9
$DIMSOXD
 70
     0
  9
$DIMSAH
 70
     0
  9
$DIMBLK1
  1

  9
$DIMBLK2
  1

  9
$DIMSTYLE
  2
STANDARD_ACAD
  9
$DIMCLRD
 70
     0
  9
$DIMCLRE
 70
     0
  9
$DIMCLRT
 70
     0
  9
$DIMTFAC
 40
1.0
  9
$DIMGAP
 40
0.09
  9
$LUNITS
 70
     2
  9
$LUPREC
 70
     3
  9
$SKETCHINC
 40
0.1
  9
$FILLETRAD
 40
0.0
  9
$AUNITS
 70
     0
  9
$AUPREC
 70
     0
  9
$MENU
  1
.
  9
$ELEVATION
 40
0.0
  9
$PELEVATION
 40
0.0
  9
$THICKNESS
 40
0.0
  9
$LIMCHECK
 70
     0
  9
$CHAMFERA
 40
0.0
  9
$CHAMFERB
 40
0.0
  9
$SKPOLY
 70
     0
  9
$TDCREATE
 40
2460493.731540347
  9
$TDUPDATE
 40
2460493.731551852
  9
$TDINDWG
 40
0.0000000116
  9
$TDUSRTIMER
 40
0.0000000116
  9
$USRTIMER
 70
     1
  9
$ANGBASE
 50
0.0
  9
$ANGDIR
 70
     0
  9
$PDMODE
 70
     0
  9
$PDSIZE
 40
0.0
  9
$PLINEWID
 40
0.0
  9
$COORDS
 70
     1
  9
$SPLFRAME
 70
     0
  9
$SPLINETYPE
 70
     6
  9
$SPLINESEGS
 70
     8
  9
$ATTDIA
 70
     0
  9
$ATTREQ
 70
     1
  9
$HANDLING
 70
     1
  9
$HANDSEED
  5
198
  9
$SURFTAB1
 70
     6
  9
$SURFTAB2
 70
     6
  9
$SURFTYPE
 70
     6
  9
$SURFU
 70
     6
  9
$SURFV
 70
     6
  9
$UCSNAME
  2

  9
$UCSORG
 10
0.0
 20
0.0
 30
0.0
  9
$UCSXDIR
 10
1.0
 20
0.0
 30
0.0
  9
$UCSYDIR
 10
0.0
 20
1.0
 30
0.0
  9
$PUCSNAME
  2

  9
$PUCSORG
 10
0.0
 20
0.0
 30
0.0
  9
$PUCSXDIR
 10
1.0
 20
0.0
 30
0.0
  9
$PUCSYDIR
 10
0.0
 20
1.0
 30
0.0
  9
$USERI1
 70
     0
  9
$USERI2
 70
     0
  9
$USERI3
 70
     0
  9
$USERI4
 70
     0
  9
$USERI5
 70
     0
  9
$USERR1
 40
0.0
  9
$USERR2
 40
0.0
  9
$USERR3
 40
0.0
  9
$USERR4
 40
0.0
  9
$USERR5
 40
0.0
  9
$WORLDVIEW
 70
     1
  9
$SHADEDGE
 70
     3
  9
$SHADEDIF
 70
    70
  9
$TILEMODE
 70
     1
  9
$MAXACTVP
 70
    64
  9
$PLIMCHECK
 70
     0
  9
$PEXTMIN
 10
1.000000000000000E+20
 20
1.000000000000000E+20
 30
1.000000000000000E+20
  9
$PEXTMAX
 10
-1.000000000000000E+20
 20
-1.000000000000000E+20
 30
-1.000000000000000E+20
  9
$PLIMMIN
 10
0.0
 20
0.0
  9
$PLIMMAX
 10
12.0
 20
9.0
  9
$UNITMODE
 70
     0
  9
$VISRETAIN
 70
     1
  9
$PLINEGEN
 70
     0
  9
$PSLTSCALE
 70
     1
  0
ENDSEC
  0
SECTION
  2
TABLES
  0
TABLE
  2
VPORT
 70
     1
  0
VPORT
  2
*ACTIVE
 70
     0
 10
0.0
 20
0.0
 11
1.0
 21
1.0
 12
10.42990654205607
 22
4.5
 13
0.0
 23
0.0
 14
0.5
 24
0.5
 15
0.5
 25
0.5
 16
0.0
 26
0.0
 36
1.0
 17
0.0
 27
0.0
 37
0.0
 40
9.0
 41
1.972972972850329
 42
50.0
 43
0.0
 44
0.0
 50
0.0
 51
0.0
 71
     0
 72
   100
 73
     1
 74
     3
 75
     0
 76
     0
 77
     0
 78
     0
  0
ENDTAB
  0
TABLE
  2
LTYPE
 70
     1
  0
LTYPE
  2
CONTINUOUS
 70
     0
  3
Solid line
 72
    65
 73
     0
 40
0.0
  0
ENDTAB
  0
TABLE
  2
LAYER
 70
     2
  0
LAYER
  2
0
 70
     0
 62
     7
  6
CONTINUOUS
  0
LAYER
  2
DEFAULT
 70
     0
 62
     7
  6
CONTINUOUS
  0
ENDTAB
  0
TABLE
  2
STYLE
 70
     1
  0
STYLE
  2
STANDARD
 70
     0
 40
0.0
 41
1.0
 50
0.0
 71
     0
 42
0.2
  3
txt
  4

  0
ENDTAB
  0
TABLE
  2
VIEW
 70
     0
  0
ENDTAB
  0
TABLE
  2
UCS
 70
     0
  0
ENDTAB
  0
TABLE
  2
APPID
 70
     2
  0
APPID
  2
ACAD
 70
     0
  0
APPID
  2
RHINO
 70
     0
  0
ENDTAB
  0
TABLE
  2
DIMSTYLE
 70
     1
  0
DIMSTYLE
  2
STANDARD_ACAD
 70
     0
  3

  4

  5

  6

  7

 40
1.0
 41
0.18
 42
0.0625
 43
0.38
 44
0.18
 45
0.0
 46
0.0
 47
0.0
 48
0.0
140
0.18
141
0.09
142
0.0
143
25.4
144
1.0
145
0.0
146
1.0
147
0.09
 71
     0
 72
     0
 73
     1
 74
     1
 75
     0
 76
     0
 77
     0
 78
     0
170
     0
171
     2
172
     0
173
     0
174
     0
175
     0
176
     0
177
     0
178
     0
  0
ENDTAB
  0
ENDSEC
  0
SECTION
  2
BLOCKS
  0
BLOCK
  8
0
  2
$MODEL_SPACE
 70
     0
 10
0.0
 20
0.0
 30
0.0
  3
$MODEL_SPACE
  1

  0
ENDBLK
  5
21
  8
0
  0
BLOCK
 67
     1
  8
0
  2
$PAPER_SPACE
 70
     0
 10
0.0
 20
0.0
 30
0.0
  3
$PAPER_SPACE
  1

  0
ENDBLK
  5
1D
 67
     1
  8
0
  0
ENDSEC
  0
SECTION
  2
ENTITIES
  0
CIRCLE
  5
60
  8
DEFAULT
 10
1013.423658193228
 20
186.999910065177
 30
-70.85584841099308
 40
5.0
  0
CIRCLE
  5
61
  8
DEFAULT
 10
979.4236581932284
 20
186.9999100651771
 30
-70.85584841099308
 40
4.999999999999886
  0
CIRCLE
  5
62
  8
DEFAULT
 10
945.4236581932284
 20
186.999910065177
 30
-70.85584841099308
 40
4.999999999999886
  0
CIRCLE
  5
63
  8
DEFAULT
 10
911.4236581932283
 20
186.999910065177
 30
-70.85584841099308
 40
5.0
  0
CIRCLE
  5
64
  8
DEFAULT
 10
877.4236581932282
 20
186.9999100651769
 30
-70.85584841099308
 40
5.000000000000114
  0
CIRCLE
  5
65
  8
DEFAULT
 10
843.4236581932282
 20
186.9999100651769
 30
-70.85584841099308
 40
5.000000000000114
  0
CIRCLE
  5
66
  8
DEFAULT
 10
809.4236581932283
 20
186.9999100651771
 30
-70.85584841099308
 40
5.0
  0
CIRCLE
  5
67
  8
DEFAULT
 10
775.4236581932283
 20
186.999910065177
 30
-70.85584841099308
 40
5.0
  0
CIRCLE
  5
68
  8
DEFAULT
 10
741.4236581932284
 20
186.9999100651771
 30
-70.85584841099308
 40
4.999999999999886
  0
CIRCLE
  5
69
  8
DEFAULT
 10
707.4236581932283
 20
186.9999100651769
 30
-70.85584841099308
 40
5.0
  0
CIRCLE
  5
6A
  8
DEFAULT
 10
673.4236581932283
 20
186.9999100651769
 30
-70.85584841099308
 40
5.0
  0
CIRCLE
  5
6B
  8
DEFAULT
 10
639.4236581932283
 20
186.999910065177
 30
-70.85584841099308
 40
5.0
  0
CIRCLE
  5
6C
  8
DEFAULT
 10
605.4236581932283
 20
186.9999100651769
 30
-70.85584841099308
 40
5.0
  0
CIRCLE
  5
6D
  8
DEFAULT
 10
571.4236581932283
 20
186.9999100651769
 30
-70.85584841099308
 40
5.0
  0
CIRCLE
  5
6E
  8
DEFAULT
 10
1013.423658193228
 20
152.9999100651769
 30
-70.85584841099308
 40
5.000000000000114
  0
CIRCLE
  5
6F
  8
DEFAULT
 10
979.4236581932282
 20
152.9999100651769
 30
-70.85584841099308
 40
5.000000000000114
  0
CIRCLE
  5
70
  8
DEFAULT
 10
945.4236581932283
 20
152.999910065177
 30
-70.85584841099308
 40
5.0
  0
CIRCLE
  5
71
  8
DEFAULT
 10
911.4236581932283
 20
152.9999100651769
 30
-70.85584841099308
 40
5.0
  0
CIRCLE
  5
72
  8
DEFAULT
 10
877.4236581932284
 20
152.999910065177
 30
-70.85584841099308
 40
4.999999999999886
  0
CIRCLE
  5
73
  8
DEFAULT
 10
843.4236581932284
 20
152.999910065177
 30
-70.85584841099308
 40
4.999999999999886
  0
CIRCLE
  5
74
  8
DEFAULT
 10
809.4236581932283
 20
152.999910065177
 30
-70.85584841099308
 40
5.0
  0
CIRCLE
  5
75
  8
DEFAULT
 10
775.4236581932282
 20
152.9999100651769
 30
-70.85584841099308
 40
5.000000000000114
  0
CIRCLE
  5
76
  8
DEFAULT
 10
741.4236581932282
 20
152.9999100651768
 30
-70.85584841099308
 40
5.000000000000114
  0
CIRCLE
  5
77
  8
DEFAULT
 10
707.4236581932283
 20
152.999910065177
 30
-70.85584841099308
 40
5.0
  0
CIRCLE
  5
78
  8
DEFAULT
 10
673.4236581932283
 20
152.9999100651769
 30
-70.85584841099308
 40
5.0
  0
CIRCLE
  5
79
  8
DEFAULT
 10
639.4236581932283
 20
152.9999100651769
 30
-70.85584841099308
 40
5.0
  0
CIRCLE
  5
7A
  8
DEFAULT
 10
605.4236581932284
 20
152.9999100651771
 30
-70.85584841099308
 40
4.999999999999886
  0
CIRCLE
  5
7B
  8
DEFAULT
 10
571.4236581932283
 20
152.9999100651769
 30
-70.85584841099308
 40
5.0
  0
CIRCLE
  5
7C
  8
DEFAULT
 10
1013.423658193228
 20
118.9999100651769
 30
-70.85584841099308
 40
5.0
  0
CIRCLE
  5
7D
  8
DEFAULT
 10
979.4236581932284
 20
118.999910065177
 30
-70.85584841099308
 40
4.999999999999886
  0
CIRCLE
  5
7E
  8
DEFAULT
 10
945.4236581932284
 20
118.999910065177
 30
-70.85584841099308
 40
4.999999999999886
  0
CIRCLE
  5
7F
  8
DEFAULT
 10
911.4236581932283
 20
118.999910065177
 30
-70.85584841099308
 40
5.0
  0
CIRCLE
  5
80
  8
DEFAULT
 10
877.4236581932282
 20
118.9999100651768
 30
-70.85584841099308
 40
5.000000000000114
  0
CIRCLE
  5
81
  8
DEFAULT
 10
843.4236581932282
 20
118.9999100651768
 30
-70.85584841099308
 40
5.000000000000114
  0
CIRCLE
  5
82
  8
DEFAULT
 10
809.4236581932283
 20
118.999910065177
 30
-70.85584841099308
 40
5.0
  0
CIRCLE
  5
83
  8
DEFAULT
 10
775.4236581932282
 20
118.9999100651769
 30
-70.85584841099308
 40
5.000000000000114
  0
CIRCLE
  5
84
  8
DEFAULT
 10
741.4236581932284
 20
118.999910065177
 30
-70.85584841099308
 40
4.999999999999886
  0
CIRCLE
  5
85
  8
DEFAULT
 10
707.4236581932283
 20
118.999910065177
 30
-70.85584841099308
 40
5.0
  0
CIRCLE
  5
86
  8
DEFAULT
 10
673.4236581932283
 20
118.999910065177
 30
-70.85584841099308
 40
5.0
  0
CIRCLE
  5
87
  8
DEFAULT
 10
639.4236581932283
 20
118.9999100651769
 30
-70.85584841099308
 40
5.0
  0
CIRCLE
  5
88
  8
DEFAULT
 10
605.4236581932283
 20
118.9999100651769
 30
-70.85584841099308
 40
5.0
  0
CIRCLE
  5
89
  8
DEFAULT
 10
571.4236581932283
 20
118.999910065177
 30
-70.85584841099308
 40
5.0
  0
CIRCLE
  5
8A
  8
DEFAULT
 10
1013.423658193228
 20
84.999910065177
 30
-70.85584841099308
 40
5.0
  0
CIRCLE
  5
8B
  8
DEFAULT
 10
979.4236581932284
 20
84.999910065177
 30
-70.85584841099308
 40
4.999999999999886
  0
CIRCLE
  5
8C
  8
DEFAULT
 10
945.4236581932284
 20
84.999910065177
 30
-70.85584841099308
 40
4.999999999999886
  0
CIRCLE
  5
8D
  8
DEFAULT
 10
911.4236581932283
 20
84.999910065177
 30
-70.85584841099308
 40
5.0
  0
CIRCLE
  5
8E
  8
DEFAULT
 10
877.4236581932282
 20
84.99991006517689
 30
-70.85584841099308
 40
5.000000000000114
  0
CIRCLE
  5
8F
  8
DEFAULT
 10
843.4236581932282
 20
84.99991006517678
 30
-70.85584841099308
 40
5.000000000000114
  0
CIRCLE
  5
90
  8
DEFAULT
 10
809.4236581932283
 20
84.999910065177
 30
-70.85584841099308
 40
5.0
  0
CIRCLE
  5
91
  8
DEFAULT
 10
775.4236581932283
 20
84.999910065177
 30
-70.85584841099308
 40
5.0
  0
CIRCLE
  5
92
  8
DEFAULT
 10
741.4236581932282
 20
84.99991006517689
 30
-70.85584841099308
 40
5.000000000000114
  0
CIRCLE
  5
93
  8
DEFAULT
 10
707.4236581932283
 20
84.999910065177
 30
-70.85584841099308
 40
5.0
  0
CIRCLE
  5
94
  8
DEFAULT
 10
673.4236581932283
 20
84.99991006517689
 30
-70.85584841099308
 40
5.0
  0
CIRCLE
  5
95
  8
DEFAULT
 10
639.4236581932283
 20
84.999910065177
 30
-70.85584841099308
 40
5.0
  0
CIRCLE
  5
96
  8
DEFAULT
 10
605.4236581932283
 20
84.99991006517689
 30
-70.85584841099308
 40
5.0
  0
CIRCLE
  5
97
  8
DEFAULT
 10
571.4236581932283
 20
84.99991006517695
 30
-70.85584841099308
 40
5.0
  0
CIRCLE
  5
98
  8
DEFAULT
 10
1013.423658193228
 20
50.999910065177
 30
-70.85584841099308
 40
5.0
  0
CIRCLE
  5
99
  8
DEFAULT
 10
979.4236581932284
 20
50.99991006517712
 30
-70.85584841099308
 40
4.999999999999886
  0
CIRCLE
  5
9A
  8
DEFAULT
 10
945.4236581932284
 20
50.999910065177
 30
-70.85584841099308
 40
4.999999999999886
  0
CIRCLE
  5
9B
  8
DEFAULT
 10
911.4236581932283
 20
50.999910065177
 30
-70.85584841099308
 40
5.0
  0
CIRCLE
  5
9C
  8
DEFAULT
 10
877.4236581932282
 20
50.99991006517689
 30
-70.85584841099308
 40
5.000000000000114
  0
CIRCLE
  5
9D
  8
DEFAULT
 10
843.4236581932282
 20
50.99991006517689
 30
-70.85584841099308
 40
5.000000000000114
  0
CIRCLE
  5
9E
  8
DEFAULT
 10
809.4236581932283
 20
50.99991006517712
 30
-70.85584841099308
 40
5.0
  0
CIRCLE
  5
9F
  8
DEFAULT
 10
775.4236581932283
 20
50.999910065177
 30
-70.85584841099308
 40
5.0
  0
CIRCLE
  5
A0
  8
DEFAULT
 10
741.4236581932284
 20
50.999910065177
 30
-70.85584841099308
 40
4.999999999999886
  0
CIRCLE
  5
A1
  8
DEFAULT
 10
707.4236581932283
 20
50.999910065177
 30
-70.85584841099308
 40
5.0
  0
CIRCLE
  5
A2
  8
DEFAULT
 10
673.4236581932283
 20
50.99991006517689
 30
-70.85584841099308
 40
5.0
  0
CIRCLE
  5
A3
  8
DEFAULT
 10
639.4236581932283
 20
50.99991006517689
 30
-70.85584841099308
 40
5.0
  0
CIRCLE
  5
A4
  8
DEFAULT
 10
605.4236581932283
 20
50.99991006517689
 30
-70.85584841099308
 40
5.0
  0
CIRCLE
  5
A5
  8
DEFAULT
 10
571.4236581932283
 20
50.99991006517689
 30
-70.85584841099308
 40
5.0
  0
CIRCLE
  5
A6
  8
DEFAULT
 10
1013.423658193228
 20
16.99991006517689
 30
-70.85584841099308
 40
5.0
  0
CIRCLE
  5
A7
  8
DEFAULT
 10
979.4236581932284
 20
16.999910065177
 30
-70.85584841099308
 40
4.999999999999886
  0
CIRCLE
  5
A8
  8
DEFAULT
 10
945.4236581932284
 20
16.99991006517689
 30
-70.85584841099308
 40
4.999999999999886
  0
CIRCLE
  5
A9
  8
DEFAULT
 10
911.4236581932283
 20
16.99991006517689
 30
-70.85584841099308
 40
5.0
  0
CIRCLE
  5
AA
  8
DEFAULT
 10
877.4236581932282
 20
16.99991006517678
 30
-70.85584841099308
 40
5.000000000000114
  0
CIRCLE
  5
AB
  8
DEFAULT
 10
843.4236581932282
 20
16.99991006517678
 30
-70.85584841099308
 40
5.000000000000114
  0
CIRCLE
  5
AC
  8
DEFAULT
 10
809.4236581932283
 20
16.999910065177
 30
-70.85584841099308
 40
5.0
  0
CIRCLE
  5
AD
  8
DEFAULT
 10
775.4236581932283
 20
16.99991006517689
 30
-70.85584841099308
 40
5.0
  0
CIRCLE
  5
AE
  8
DEFAULT
 10
741.4236581932284
 20
16.999910065177
 30
-70.85584841099308
 40
4.999999999999886
  0
CIRCLE
  5
AF
  8
DEFAULT
 10
707.4236581932283
 20
16.999910065177
 30
-70.85584841099308
 40
5.0
  0
CIRCLE
  5
B0
  8
DEFAULT
 10
673.4236581932283
 20
16.999910065177
 30
-70.85584841099308
 40
5.0
  0
CIRCLE
  5
B1
  8
DEFAULT
 10
639.4236581932283
 20
16.999910065177
 30
-70.85584841099308
 40
5.0
  0
CIRCLE
  5
B2
  8
DEFAULT
 10
605.4236581932283
 20
16.99991006517689
 30
-70.85584841099308
 40
5.0
  0
CIRCLE
  5
B3
  8
DEFAULT
 10
571.4236581932283
 20
16.999910065177
 30
-70.85584841099308
 40
5.0
  0
CIRCLE
  5
B4
  8
DEFAULT
 10
1013.423658193228
 20
-17.000089934823
 30
-70.85584841099308
 40
5.0
  0
CIRCLE
  5
B5
  8
DEFAULT
 10
979.4236581932284
 20
-17.000089934823
 30
-70.85584841099308
 40
4.999999999999886
  0
CIRCLE
  5
B6
  8
DEFAULT
 10
945.4236581932284
 20
-17.000089934823
 30
-70.85584841099308
 40
4.999999999999886
  0
CIRCLE
  5
B7
  8
DEFAULT
 10
911.4236581932283
 20
-17.000089934823
 30
-70.85584841099308
 40
5.0
  0
CIRCLE
  5
B8
  8
DEFAULT
 10
877.4236581932282
 20
-17.00008993482322
 30
-70.85584841099308
 40
5.000000000000114
  0
CIRCLE
  5
B9
  8
DEFAULT
 10
843.4236581932282
 20
-17.00008993482322
 30
-70.85584841099308
 40
5.000000000000114
  0
CIRCLE
  5
BA
  8
DEFAULT
 10
809.4236581932283
 20
-17.000089934823
 30
-70.85584841099308
 40
5.0
  0
CIRCLE
  5
BB
  8
DEFAULT
 10
775.4236581932283
 20
-17.000089934823
 30
-70.85584841099308
 40
5.0
  0
CIRCLE
  5
BC
  8
DEFAULT
 10
741.4236581932284
 20
-17.000089934823
 30
-70.85584841099308
 40
4.999999999999886
  0
CIRCLE
  5
BD
  8
DEFAULT
 10
707.4236581932283
 20
-17.000089934823
 30
-70.85584841099308
 40
5.0
  0
CIRCLE
  5
BE
  8
DEFAULT
 10
673.4236581932283
 20
-17.00008993482311
 30
-70.85584841099308
 40
5.0
  0
CIRCLE
  5
BF
  8
DEFAULT
 10
639.4236581932283
 20
-17.000089934823
 30
-70.85584841099308
 40
5.0
  0
CIRCLE
  5
C0
  8
DEFAULT
 10
605.4236581932283
 20
-17.00008993482311
 30
-70.85584841099308
 40
5.0
  0
CIRCLE
  5
C1
  8
DEFAULT
 10
571.4236581932283
 20
-17.00008993482311
 30
-70.85584841099308
 40
5.0
  0
CIRCLE
  5
C2
  8
DEFAULT
 10
1013.423658193228
 20
-51.000089934823
 30
-70.85584841099308
 40
5.0
  0
CIRCLE
  5
C3
  8
DEFAULT
 10
979.4236581932284
 20
-51.00008993482288
 30
-70.85584841099308
 40
4.999999999999886
  0
CIRCLE
  5
C4
  8
DEFAULT
 10
945.4236581932284
 20
-51.000089934823
 30
-70.85584841099308
 40
4.999999999999886
  0
CIRCLE
  5
C5
  8
DEFAULT
 10
911.4236581932283
 20
-51.000089934823
 30
-70.85584841099308
 40
5.0
  0
CIRCLE
  5
C6
  8
DEFAULT
 10
877.4236581932282
 20
-51.00008993482311
 30
-70.85584841099308
 40
5.000000000000114
  0
CIRCLE
  5
C7
  8
DEFAULT
 10
843.4236581932282
 20
-51.00008993482322
 30
-70.85584841099308
 40
5.000000000000114
  0
CIRCLE
  5
C8
  8
DEFAULT
 10
809.4236581932283
 20
-51.000089934823
 30
-70.85584841099308
 40
5.0
  0
CIRCLE
  5
C9
  8
DEFAULT
 10
775.4236581932283
 20
-51.000089934823
 30
-70.85584841099308
 40
5.0
  0
CIRCLE
  5
CA
  8
DEFAULT
 10
741.4236581932284
 20
-51.00008993482288
 30
-70.85584841099308
 40
4.999999999999886
  0
CIRCLE
  5
CB
  8
DEFAULT
 10
707.4236581932283
 20
-51.00008993482311
 30
-70.85584841099308
 40
5.0
  0
CIRCLE
  5
CC
  8
DEFAULT
 10
673.4236581932283
 20
-51.00008993482311
 30
-70.85584841099308
 40
5.0
  0
CIRCLE
  5
CD
  8
DEFAULT
 10
639.4236581932283
 20
-51.000089934823
 30
-70.85584841099308
 40
5.0
  0
CIRCLE
  5
CE
  8
DEFAULT
 10
605.4236581932282
 20
-51.00008993482311
 30
-70.85584841099308
 40
5.000000000000114
  0
CIRCLE
  5
CF
  8
DEFAULT
 10
571.4236581932283
 20
-51.000089934823
 30
-70.85584841099308
 40
5.0
  0
CIRCLE
  5
D0
  8
DEFAULT
 10
1013.423658193228
 20
-85.000089934823
 30
-70.85584841099308
 40
5.0
  0
CIRCLE
  5
D1
  8
DEFAULT
 10
979.4236581932284
 20
-85.00008993482288
 30
-70.85584841099308
 40
4.999999999999886
  0
CIRCLE
  5
D2
  8
DEFAULT
 10
945.4236581932284
 20
-85.00008993482288
 30
-70.85584841099308
 40
4.999999999999886
  0
CIRCLE
  5
D3
  8
DEFAULT
 10
911.4236581932283
 20
-85.00008993482288
 30
-70.85584841099308
 40
5.0
  0
CIRCLE
  5
D4
  8
DEFAULT
 10
877.4236581932282
 20
-85.00008993482311
 30
-70.85584841099308
 40
5.000000000000114
  0
CIRCLE
  5
D5
  8
DEFAULT
 10
843.4236581932282
 20
-85.00008993482311
 30
-70.85584841099308
 40
5.000000000000114
  0
CIRCLE
  5
D6
  8
DEFAULT
 10
809.4236581932283
 20
-85.00008993482288
 30
-70.85584841099308
 40
5.0
  0
CIRCLE
  5
D7
  8
DEFAULT
 10
775.4236581932282
 20
-85.00008993482311
 30
-70.85584841099308
 40
5.000000000000114
  0
CIRCLE
  5
D8
  8
DEFAULT
 10
741.4236581932282
 20
-85.00008993482311
 30
-70.85584841099308
 40
5.000000000000114
  0
CIRCLE
  5
D9
  8
DEFAULT
 10
707.4236581932283
 20
-85.000089934823
 30
-70.85584841099308
 40
5.0
  0
CIRCLE
  5
DA
  8
DEFAULT
 10
673.4236581932283
 20
-85.00008993482311
 30
-70.85584841099308
 40
5.0
  0
CIRCLE
  5
DB
  8
DEFAULT
 10
639.4236581932283
 20
-85.000089934823
 30
-70.85584841099308
 40
5.0
  0
CIRCLE
  5
DC
  8
DEFAULT
 10
605.4236581932283
 20
-85.00008993482311
 30
-70.85584841099308
 40
5.0
  0
CIRCLE
  5
DD
  8
DEFAULT
 10
571.4236581932283
 20
-85.000089934823
 30
-70.85584841099308
 40
5.0
  0
CIRCLE
  5
DE
  8
DEFAULT
 10
1013.423658193228
 20
-119.0000899348231
 30
-70.85584841099308
 40
5.000000000000114
  0
CIRCLE
  5
DF
  8
DEFAULT
 10
979.4236581932284
 20
-119.0000899348231
 30
-70.85584841099308
 40
4.999999999999886
  0
CIRCLE
  5
E0
  8
DEFAULT
 10
945.4236581932284
 20
-119.0000899348231
 30
-70.85584841099308
 40
4.999999999999886
  0
CIRCLE
  5
E1
  8
DEFAULT
 10
911.4236581932283
 20
-119.000089934823
 30
-70.85584841099308
 40
5.0
  0
CIRCLE
  5
E2
  8
DEFAULT
 10
877.4236581932282
 20
-119.0000899348232
 30
-70.85584841099308
 40
5.000000000000114
  0
CIRCLE
  5
E3
  8
DEFAULT
 10
843.4236581932282
 20
-119.0000899348232
 30
-70.85584841099308
 40
5.000000000000114
  0
CIRCLE
  5
E4
  8
DEFAULT
 10
809.4236581932283
 20
-119.000089934823
 30
-70.85584841099308
 40
5.0
  0
CIRCLE
  5
E5
  8
DEFAULT
 10
775.4236581932283
 20
-119.0000899348231
 30
-70.85584841099308
 40
5.0
  0
CIRCLE
  5
E6
  8
DEFAULT
 10
741.4236581932284
 20
-119.000089934823
 30
-70.85584841099308
 40
4.999999999999886
  0
CIRCLE
  5
E7
  8
DEFAULT
 10
707.4236581932283
 20
-119.000089934823
 30
-70.85584841099308
 40
5.0
  0
CIRCLE
  5
E8
  8
DEFAULT
 10
673.4236581932283
 20
-119.000089934823
 30
-70.85584841099308
 40
5.0
  0
CIRCLE
  5
E9
  8
DEFAULT
 10
639.4236581932283
 20
-119.0000899348231
 30
-70.85584841099308
 40
5.0
  0
CIRCLE
  5
EA
  8
DEFAULT
 10
605.4236581932284
 20
-119.000089934823
 30
-70.85584841099308
 40
4.999999999999886
  0
CIRCLE
  5
EB
  8
DEFAULT
 10
571.4236581932283
 20
-119.000089934823
 30
-70.85584841099308
 40
5.0
  0
CIRCLE
  5
EC
  8
DEFAULT
 10
1013.423658193228
 20
-153.000089934823
 30
-70.85584841099308
 40
5.0
  0
CIRCLE
  5
ED
  8
DEFAULT
 10
979.4236581932282
 20
-153.0000899348231
 30
-70.85584841099308
 40
5.000000000000114
  0
CIRCLE
  5
EE
  8
DEFAULT
 10
945.4236581932284
 20
-153.0000899348231
 30
-70.85584841099308
 40
4.999999999999886
  0
CIRCLE
  5
EF
  8
DEFAULT
 10
911.4236581932283
 20
-153.000089934823
 30
-70.85584841099308
 40
5.0
  0
CIRCLE
  5
F0
  8
DEFAULT
 10
877.4236581932282
 20
-153.0000899348231
 30
-70.85584841099308
 40
5.000000000000114
  0
CIRCLE
  5
F1
  8
DEFAULT
 10
843.4236581932282
 20
-153.0000899348232
 30
-70.85584841099308
 40
5.000000000000114
  0
CIRCLE
  5
F2
  8
DEFAULT
 10
809.4236581932283
 20
-153.000089934823
 30
-70.85584841099308
 40
5.0
  0
CIRCLE
  5
F3
  8
DEFAULT
 10
775.4236581932283
 20
-153.000089934823
 30
-70.85584841099308
 40
5.0
  0
CIRCLE
  5
F4
  8
DEFAULT
 10
741.4236581932284
 20
-153.000089934823
 30
-70.85584841099308
 40
4.999999999999886
  0
CIRCLE
  5
F5
  8
DEFAULT
 10
707.4236581932283
 20
-153.000089934823
 30
-70.85584841099308
 40
5.0
  0
CIRCLE
  5
F6
  8
DEFAULT
 10
673.4236581932283
 20
-153.000089934823
 30
-70.85584841099308
 40
5.0
  0
CIRCLE
  5
F7
  8
DEFAULT
 10
639.4236581932283
 20
-153.000089934823
 30
-70.85584841099308
 40
5.0
  0
CIRCLE
  5
F8
  8
DEFAULT
 10
605.4236581932283
 20
-153.0000899348231
 30
-70.85584841099308
 40
5.0
  0
CIRCLE
  5
F9
  8
DEFAULT
 10
571.4236581932283
 20
-153.000089934823
 30
-70.85584841099308
 40
5.0
  0
LINE
  5
FA
  8
DEFAULT
 10
563.9999999999999
 20
312.6451243320489
 30
-70.85584841099308
 11
1020.814558707767
 21
312.6451243320489
 31
-70.85584841099308
  0
LINE
  5
FB
  8
DEFAULT
 10
1020.814558707767
 20
312.6451243320489
 30
-70.85584841099308
 11
1020.814558707767
 21
-288.0
 31
-70.85584841099308
  0
LINE
  5
FC
  8
DEFAULT
 10
1020.814558707767
 20
-288.0
 30
-70.85584841099308
 11
563.9999999999999
 21
-288.0
 31
-70.85584841099308
  0
LINE
  5
FD
  8
DEFAULT
 10
563.9999999999999
 20
-288.0
 30
-70.85584841099308
 11
563.9999999999999
 21
312.6451243320489
 31
-70.85584841099308
  0
ARC
  5
FE
  8
DEFAULT
 10
658.1818749330571
 20
-193.000010238766
 30
-70.85584841099308
 40
3.499999482353473
 50
270.0
 51
0.000136769599234
  0
ARC
  5
FF
  8
DEFAULT
 10
658.181874933057
 20
-193.0000092036338
 30
-70.8558484109931
 40
3.499999482351236
 50
0.0001198242527626
 51
89.99999999999814
  0
LINE
  5
100
  8
DEFAULT
 10
658.1818749330571
 20
-189.5000097212826
 30
-70.85584841099308
 11
649.8181407622146
 21
-189.5000097212825
 31
-70.85584841099308
  0
ARC
  5
101
  8
DEFAULT
 10
649.818140762215
 20
-193.0000097212016
 30
-70.85584841099308
 40
3.499999999919112
 50
90.00000000000557
 51
179.9617074974974
  0
ARC
  5
102
  8
DEFAULT
 10
647.8181412730339
 20
-193.000005174638
 30
-70.8558332002583
 40
1.499999878323603
 50
179.9108244569927
 51
180.0889150617595
210
2.353442284310371E-8
220
-5.349674867889598E-14
230
0.9999999999999998
  0
ARC
  5
103
  8
DEFAULT
 10
649.8181407622145
 20
-193.0000097212013
 30
-70.85584841099303
 40
3.499999999918271
 50
180.0380320111329
 51
270.0000000000018
  0
LINE
  5
104
  8
DEFAULT
 10
649.8181407622146
 20
-196.5000097211195
 30
-70.85584841099308
 11
658.1818749330571
 21
-196.5000097211195
 31
-70.85584841099308
  0
ARC
  5
105
  8
DEFAULT
 10
948.4590674580904
 20
-230.0000102386227
 30
-70.85584841099305
 40
3.499999482351939
 50
270.0
 51
0.0000828989297885
  0
ARC
  5
106
  8
DEFAULT
 10
948.4590674580908
 20
-230.0000092034881
 30
-70.85584841099305
 40
3.499999482350335
 50
0.0000659535437691
 51
90.00000000000557
  0
LINE
  5
107
  8
DEFAULT
 10
948.4590674580904
 20
-226.5000097211377
 30
-70.85584841099308
 11
940.0953332872482
 21
-226.5000097211377
 31
-70.85584841099308
  0
ARC
  5
108
  8
DEFAULT
 10
940.0953332872483
 20
-230.000010756198
 30
-70.85584841099305
 40
3.500001035060251
 50
90.00000000000188
 51
179.9999086282977
  0
ARC
  5
109
  8
DEFAULT
 10
938.1012123011827
 20
-230.0000006117251
 30
-70.85578924804213
 40
1.505875572316284
 50
180.0001734774094
 51
180.088747797665
210
6.318014296550819E-8
220
4.902682228147491E-11
230
0.999999999999998
  0
ARC
  5
10A
  8
DEFAULT
 10
940.0953332872484
 20
-230.0000097212008
 30
-70.85584841099309
 40
3.49999999977412
 50
180.0380346747065
 51
269.9999999999963
  0
LINE
  5
10B
  8
DEFAULT
 10
940.0953332872482
 20
-233.5000097209746
 30
-70.85584841099308
 11
948.4590674580904
 21
-233.5000097209746
 31
-70.85584841099308
  0
ARC
  5
10C
  8
DEFAULT
 10
658.1818749330571
 20
258.7969599284433
 30
-70.85584841099312
 40
3.499999482351711
 50
269.9999999999981
 51
0.0000828987166949
  0
ARC
  5
10D
  8
DEFAULT
 10
658.1818749330575
 20
258.7969609635784
 30
-70.85584841099308
 40
3.499999482349994
 50
0.0000659533223007
 51
90.00000000000743
  0
LINE
  5
10E
  8
DEFAULT
 10
658.1818749330571
 20
262.2969604459284
 30
-70.85584841099308
 11
649.8181407622146
 21
262.2969604459284
 31
-70.85584841099308
  0
ARC
  5
10F
  8
DEFAULT
 10
649.8181407622145
 20
258.7969594108684
 30
-70.85584841099308
 40
3.500001035060052
 50
89.99999999999814
 51
179.9999086285424
  0
ARC
  5
110
  8
DEFAULT
 10
647.8181393397379
 20
258.7969649922421
 30
-70.85584843459112
 40
1.499999612578904
 50
179.9999999926394
 51
180.0889180243094
  0
ARC
  5
111
  8
DEFAULT
 10
649.8181407622144
 20
258.7969604459412
 30
-70.85584841099305
 40
3.499999999849604
 50
180.0380332784017
 51
270.0000000000037
  0
LINE
  5
112
  8
DEFAULT
 10
649.8181407622146
 20
255.2969604460916
 30
-70.85584841099308
 11
658.181874933057
 21
255.2969604460916
 31
-70.85584841099308
  0
ARC
  5
113
  8
DEFAULT
 10
649.8181397270776
 20
-213.5759169165333
 30
-70.85584841099305
 40
3.499999999918527
 50
180.0000087133604
 51
270.0
  0
LINE
  5
114
  8
DEFAULT
 10
649.8181397270776
 20
-217.0759169164518
 30
-70.85584841099308
 11
658.1818738979199
 21
-217.0759169164518
 31
-70.85584841099308
  0
ARC
  5
115
  8
DEFAULT
 10
658.1818738979201
 20
-213.5759169165336
 30
-70.85584841099309
 40
3.499999999918174
 50
269.9999999999963
 51
359.9999999991397
  0
ARC
  5
116
  8
DEFAULT
 10
658.18187389792
 20
-213.5759169165331
 30
-70.85584841099313
 40
3.499999999918259
 50
359.9999999991309
 51
90.00000000000188
  0
LINE
  5
117
  8
DEFAULT
 10
658.1818738979199
 20
-210.0759169166149
 30
-70.85584841099308
 11
649.8181397270776
 21
-210.0759169166148
 31
-70.85584841099308
  0
ARC
  5
118
  8
DEFAULT
 10
649.8181397270774
 20
-213.5759169165333
 30
-70.85584841099309
 40
3.499999999918487
 50
89.99999999999814
 51
180.00000871336
  0
ARC
  5
119
  8
DEFAULT
 10
649.8181261020804
 20
-234.1612472920016
 30
-70.8558484109931
 40
3.499999999918318
 50
180.0000180082489
 51
270.0000000000018
  0
LINE
  5
11A
  8
DEFAULT
 10
649.8181261020806
 20
-237.6612472919199
 30
-70.85584841099308
 11
658.1818602729229
 21
-237.6612472919199
 31
-70.85584841099308
  0
ARC
  5
11B
  8
DEFAULT
 10
658.1818602729226
 20
-234.1612472920014
 30
-70.85584841099308
 40
3.499999999918572
 50
270.0000000000056
 51
359.999999999069
  0
ARC
  5
11C
  8
DEFAULT
 10
658.181860272923
 20
-234.1612472920012
 30
-70.85584841099312
 40
3.499999999918259
 50
359.9999999990657
 51
90.00000000000188
  0
LINE
  5
11D
  8
DEFAULT
 10
658.1818602729229
 20
-230.661247292083
 30
-70.85584841099308
 11
649.8181261020806
 21
-230.661247292083
 31
-70.85584841099308
  0
ARC
  5
11E
  8
DEFAULT
 10
649.8181261020806
 20
-234.1612472920015
 30
-70.85584841099312
 40
3.499999999918487
 50
90.0
 51
180.0000180082517
  0
ARC
  5
11F
  8
DEFAULT
 10
585.4544075578173
 20
-193.0000112369506
 30
-70.85584841099308
 40
3.499999999918185
 50
179.9999829810373
 51
270.0000000000018
  0
LINE
  5
120
  8
DEFAULT
 10
585.4544075578174
 20
-196.5000112368688
 30
-70.85584841099308
 11
593.8181417286598
 21
-196.5000112368688
 31
-70.85584841099308
  0
ARC
  5
121
  8
DEFAULT
 10
593.8181417286597
 20
-193.0000112369505
 30
-70.85584841099308
 40
3.499999999918316
 50
270.0000000000018
 51
0.0000000000032569
  0
ARC
  5
122
  8
DEFAULT
 10
593.8181417286597
 20
-193.0000112369501
 30
-70.85584841099308
 40
3.499999999918373
 50
359.9999999999981
 51
89.99999999999814
  0
LINE
  5
123
  8
DEFAULT
 10
593.8181417286598
 20
-189.5000112370318
 30
-70.85584841099308
 11
585.4544075578175
 21
-189.5000112370319
 31
-70.85584841099308
  0
ARC
  5
124
  8
DEFAULT
 10
585.4544075578175
 20
-193.0000112369503
 30
-70.855848410993
 40
3.499999999918401
 50
90.0
 51
179.999982981042
  0
ARC
  5
125
  8
DEFAULT
 10
585.4544075578171
 20
-213.5759229789245
 30
-70.8558484109931
 40
3.49999999991804
 50
179.999984882255
 51
270.0000000000056
  0
LINE
  5
126
  8
DEFAULT
 10
585.4544075578175
 20
-217.0759229788426
 30
-70.85584841099308
 11
593.8181417286598
 21
-217.0759229788426
 31
-70.85584841099308
  0
ARC
  5
127
  8
DEFAULT
 10
593.8181417286603
 20
-213.5759229789246
 30
-70.85584841099305
 40
3.499999999917947
 50
269.9999999999926
 51
0.0000000013637055
  0
ARC
  5
128
  8
DEFAULT
 10
593.8181417286597
 20
-213.5759229789242
 30
-70.85584841099308
 40
3.499999999918487
 50
0.0000000013567265
 51
89.99999999999814
  0
LINE
  5
129
  8
DEFAULT
 10
593.8181417286598
 20
-210.0759229790057
 30
-70.85584841099308
 11
585.4544075578175
 21
-210.0759229790057
 31
-70.85584841099308
  0
ARC
  5
12A
  8
DEFAULT
 10
585.4544075578178
 20
-213.5759229789244
 30
-70.85584841099308
 40
3.499999999918742
 50
90.00000000000557
 51
179.9999848822564
  0
ARC
  5
12B
  8
DEFAULT
 10
585.4543939328205
 20
-234.1612533543923
 30
-70.85584841099303
 40
3.499999999918544
 50
180.0000104002479
 51
270.0
  0
LINE
  5
12C
  8
DEFAULT
 10
585.4543939328205
 20
-237.6612533543108
 30
-70.85584841099308
 11
593.8181281036627
 21
-237.6612533543108
 31
-70.85584841099308
  0
ARC
  5
12D
  8
DEFAULT
 10
593.8181281036627
 20
-234.1612533543924
 30
-70.85584841099308
 40
3.499999999918373
 50
270.0
 51
0.0000000005062134
  0
ARC
  5
12E
  8
DEFAULT
 10
593.8181281036624
 20
-234.1612533543926
 30
-70.85584841099309
 40
3.499999999918714
 50
0.0000000005094703
 51
89.99999999999255
  0
LINE
  5
12F
  8
DEFAULT
 10
593.8181281036628
 20
-230.661253354474
 30
-70.85584841099308
 11
585.4543939328205
 21
-230.661253354474
 31
-70.85584841099308
  0
ARC
  5
130
  8
DEFAULT
 10
585.4543939328206
 20
-234.1612533543926
 30
-70.85584841099308
 40
3.499999999918657
 50
90.00000000000188
 51
180.0000104002423
  0
ARC
  5
131
  8
DEFAULT
 10
875.7316000828507
 20
-230.0000112368056
 30
-70.85584841099306
 40
3.499999999918373
 50
180.0000000017052
 51
270.0000000000037
  0
LINE
  5
132
  8
DEFAULT
 10
875.731600082851
 20
-233.5000112367239
 30
-70.85584841099308
 11
884.0953342536932
 21
-233.5000112367239
 31
-70.85584841099308
  0
ARC
  5
133
  8
DEFAULT
 10
884.0953342536931
 20
-230.0000112368052
 30
-70.85584841099306
 40
3.499999999918771
 50
270.0000000000018
 51
0.0000038574181268
  0
ARC
  5
134
  8
DEFAULT
 10
884.095334253693
 20
-230.0000112368058
 30
-70.85584841099308
 40
3.499999999918835
 50
0.0000038574283627
 51
89.99999999999628
  0
LINE
  5
135
  8
DEFAULT
 10
884.0953342536932
 20
-226.500011236887
 30
-70.85584841099308
 11
875.731600082851
 21
-226.500011236887
 31
-70.85584841099308
  0
ARC
  5
136
  8
DEFAULT
 10
875.7316000828511
 20
-230.0000112368056
 30
-70.85584841099306
 40
3.499999999918629
 50
90.00000000000188
 51
180.0000000017043
  0
ARC
  5
137
  8
DEFAULT
 10
875.7316000828506
 20
-250.5759229787795
 30
-70.85584841099308
 40
3.499999999918259
 50
180.0000000045848
 51
270.0000000000056
  0
LINE
  5
138
  8
DEFAULT
 10
875.731600082851
 20
-254.0759229786979
 30
-70.85584841099308
 11
884.0953342536932
 21
-254.0759229786977
 31
-70.85584841099308
  0
ARC
  5
139
  8
DEFAULT
 10
884.0953342536931
 20
-250.575922978779
 30
-70.85584841099302
 40
3.499999999918714
 50
270.0000000000018
 51
0.0000031452711855
  0
ARC
  5
13A
  8
DEFAULT
 10
884.095334253693
 20
-250.5759229787797
 30
-70.85584841099299
 40
3.499999999918833
 50
0.0000031452814214
 51
89.99999999999628
  0
LINE
  5
13B
  8
DEFAULT
 10
884.0953342536932
 20
-247.0759229788609
 30
-70.85584841099308
 11
875.731600082851
 21
-247.0759229788609
 31
-70.85584841099308
  0
ARC
  5
13C
  8
DEFAULT
 10
875.7316000828511
 20
-250.5759229787796
 30
-70.85584841099308
 40
3.499999999918685
 50
90.00000000000188
 51
180.0000000045834
  0
ARC
  5
13D
  8
DEFAULT
 10
875.7315864578536
 20
-271.1612533542478
 30
-70.85584841099308
 40
3.499999999918169
 50
180.0000067208387
 51
270.0000000000018
  0
LINE
  5
13E
  8
DEFAULT
 10
875.7315864578538
 20
-274.661253354166
 30
-70.85584841099308
 11
884.0953206286963
 21
-274.661253354166
 31
-70.85584841099308
  0
ARC
  5
13F
  8
DEFAULT
 10
884.0953206286961
 20
-271.1612533542477
 30
-70.8558484109931
 40
3.499999999918316
 50
270.0000000000037
 51
359.9999984220945
  0
ARC
  5
140
  8
DEFAULT
 10
884.0953206286963
 20
-271.1612533542473
 30
-70.85584841099306
 40
3.499999999918146
 50
359.9999984220889
 51
90.0
  0
LINE
  5
141
  8
DEFAULT
 10
884.0953206286963
 20
-267.6612533543291
 30
-70.85584841099308
 11
875.7315864578538
 21
-267.6612533543291
 31
-70.85584841099308
  0
ARC
  5
142
  8
DEFAULT
 10
875.731586457854
 20
-271.1612533542477
 30
-70.85584841099305
 40
3.4999999999186
 50
90.00000000000188
 51
180.0000067208406
  0
ARC
  5
143
  8
DEFAULT
 10
940.0953186271144
 20
-271.1612472918563
 30
-70.85584841099305
 40
3.499999999918941
 50
180.0000000082753
 51
269.9999999999944
  0
LINE
  5
144
  8
DEFAULT
 10
940.095318627114
 20
-274.6612472917751
 30
-70.85584841099308
 11
948.4590527979562
 21
-274.6612472917751
 31
-70.85584841099308
  0
ARC
  5
145
  8
DEFAULT
 10
948.4590527979558
 20
-271.1612472918561
 30
-70.85584841099308
 40
3.499999999918998
 50
270.0000000000074
 51
359.9999999999907
  0
ARC
  5
146
  8
DEFAULT
 10
948.4590527979566
 20
-271.1612472918565
 30
-70.85584841099303
 40
3.499999999918259
 50
359.9999999999972
 51
90.00000000000743
  0
LINE
  5
147
  8
DEFAULT
 10
948.4590527979562
 20
-267.6612472919381
 30
-70.85584841099308
 11
940.095318627114
 21
-267.6612472919381
 31
-70.85584841099308
  0
ARC
  5
148
  8
DEFAULT
 10
940.0953186271144
 20
-271.1612472918571
 30
-70.85584841099308
 40
3.499999999918941
 50
90.00000000000557
 51
180.0000000082622
  0
ARC
  5
149
  8
DEFAULT
 10
940.0953322521107
 20
-250.5759169163888
 30
-70.85584841099302
 40
3.499999999918145
 50
180.0000000082641
 51
270.0000000000037
  0
LINE
  5
14A
  8
DEFAULT
 10
940.0953322521109
 20
-254.075916916307
 30
-70.85584841099308
 11
948.4590664229531
 21
-254.075916916307
 31
-70.85584841099308
  0
ARC
  5
14B
  8
DEFAULT
 10
948.4590664229531
 20
-250.5759169163884
 30
-70.85584841099308
 40
3.499999999918572
 50
270.0
 51
0.0
  0
ARC
  5
14C
  8
DEFAULT
 10
948.4590664229531
 20
-250.5759169163886
 30
-70.85584841099305
 40
3.4999999999186
 50
0.0000000000023263
 51
90.0
  0
LINE
  5
14D
  8
DEFAULT
 10
948.4590664229531
 20
-247.07591691647
 30
-70.85584841099308
 11
940.0953322521109
 21
-247.07591691647
 31
-70.85584841099308
  0
ARC
  5
14E
  8
DEFAULT
 10
940.0953322521113
 20
-250.5759169163889
 30
-70.85584841099299
 40
3.499999999918828
 50
90.00000000000743
 51
180.0000000082627
  0
ARC
  5
14F
  8
DEFAULT
 10
875.7356975197627
 20
254.7466955714514
 30
-70.85584841099305
 40
3.499999999918657
 50
90.0
 51
179.9999999999665
  0
ARC
  5
150
  8
DEFAULT
 10
873.7315864583971
 20
254.6357168127182
 30
-70.85584841099306
 40
1.500000000458642
 50
175.7570467332736
 51
190.5820500201275
  0
ARC
  5
151
  8
DEFAULT
 10
875.7356975197627
 20
254.7466955714517
 30
-70.8558484109931
 40
3.499999999918556
 50
186.339096753418
 51
270.0
  0
LINE
  5
152
  8
DEFAULT
 10
875.7356975197627
 20
251.2466955715333
 30
-70.85584841099308
 11
884.0994316906049
 21
251.2466955715332
 31
-70.85584841099308
  0
ARC
  5
153
  8
DEFAULT
 10
884.099431690605
 20
254.7466955714515
 30
-70.85584841099308
 40
3.499999999918316
 50
269.9999999999981
 51
90.00000000000188
  0
LINE
  5
154
  8
DEFAULT
 10
884.0994316906049
 20
258.2466955713701
 30
-70.85584841099308
 11
875.7356975197627
 21
258.2466955713701
 31
-70.85584841099308
  0
ARC
  5
155
  8
DEFAULT
 10
875.7357111447594
 20
275.3320259469201
 30
-70.85584841099308
 40
3.499999999918145
 50
89.99999999999814
 51
179.9999999999712
  0
ARC
  5
156
  8
DEFAULT
 10
873.7316000829335
 20
275.2210471881598
 30
-70.85584841099308
 40
1.500000000001115
 50
175.7570467309505
 51
190.5820500223752
  0
ARC
  5
157
  8
DEFAULT
 10
875.7357111447596
 20
275.3320259469199
 30
-70.85584841099303
 40
3.49999999991849
 50
186.3390967534252
 51
269.9999999999981
  0
LINE
  5
158
  8
DEFAULT
 10
875.7357111447595
 20
271.8320259470014
 30
-70.85584841099308
 11
884.0994453156018
 21
271.8320259470014
 31
-70.85584841099308
  0
ARC
  5
159
  8
DEFAULT
 10
884.099445315602
 20
275.3320259469198
 30
-70.85584841099308
 40
3.49999999991843
 50
269.9999999999963
 51
90.00000000000374
  0
LINE
  5
15A
  8
DEFAULT
 10
884.0994453156018
 20
278.8320259468383
 30
-70.85584841099308
 11
875.7357111447595
 21
278.8320259468383
 31
-70.85584841099308
  0
ARC
  5
15B
  8
DEFAULT
 10
940.0994296890226
 20
254.7467016338423
 30
-70.855848410993
 40
3.499999999918714
 50
90.0
 51
180.0000000014619
  0
ARC
  5
15C
  8
DEFAULT
 10
938.0953186272218
 20
254.6357228749951
 30
-70.85584841099221
 40
1.500000000026206
 50
175.7570467311795
 51
190.5820500273384
  0
ARC
  5
15D
  8
DEFAULT
 10
940.0994296890226
 20
254.7467016338427
 30
-70.85584841099312
 40
3.49999999991869
 50
186.3390967570448
 51
270.0
  0
LINE
  5
15E
  8
DEFAULT
 10
940.0994296890226
 20
251.2467016339241
 30
-70.85584841099308
 11
948.4631638598648
 21
251.2467016339241
 31
-70.85584841099308
  0
ARC
  5
15F
  8
DEFAULT
 10
948.4631638598648
 20
254.7467016338426
 30
-70.85584841099308
 40
3.499999999918543
 50
270.0
 51
90.0
  0
LINE
  5
160
  8
DEFAULT
 10
948.4631638598648
 20
258.2467016337611
 30
-70.85584841099308
 11
940.0994296890226
 21
258.2467016337611
 31
-70.85584841099308
  0
ARC
  5
161
  8
DEFAULT
 10
940.0994433140193
 20
275.3320320093111
 30
-70.85584841099299
 40
3.499999999918089
 50
89.99999999999628
 51
180.0000000014786
  0
ARC
  5
162
  8
DEFAULT
 10
938.095332252659
 20
275.2210532504868
 30
-70.85584841098803
 40
1.500000000463305
 50
175.757046733338
 51
190.5820500251491
  0
ARC
  5
163
  8
DEFAULT
 10
940.0994433140198
 20
275.3320320093109
 30
-70.85584841099306
 40
3.499999999918618
 50
186.339096757051
 51
269.9999999999944
  0
LINE
  5
164
  8
DEFAULT
 10
940.0994433140195
 20
271.8320320093923
 30
-70.85584841099308
 11
948.463177484862
 21
271.8320320093923
 31
-70.85584841099308
  0
ARC
  5
165
  8
DEFAULT
 10
948.4631774848621
 20
275.3320320093105
 30
-70.85584841099308
 40
3.499999999918259
 50
269.9999999999981
 51
90.00000000000188
  0
LINE
  5
166
  8
DEFAULT
 10
948.463177484862
 20
278.8320320092292
 30
-70.85584841099308
 11
940.0994433140195
 21
278.8320320092292
 31
-70.85584841099308
  0
ARC
  5
167
  8
DEFAULT
 10
940.0994443491567
 20
295.9079392046433
 30
-70.85584841099308
 40
3.499999999918202
 50
89.99999999999814
 51
179.9996971672329
  0
ARC
  5
168
  8
DEFAULT
 10
938.0953322525904
 20
295.7969649924563
 30
-70.85584841099477
 40
1.50000000039517
 50
175.7565123238101
 51
190.5823219930028
  0
ARC
  5
169
  8
DEFAULT
 10
940.0994443491561
 20
295.9079392046424
 30
-70.85584841099312
 40
3.499999999917729
 50
186.3391371496375
 51
270.0000000000111
  0
LINE
  5
16A
  8
DEFAULT
 10
940.0994443491568
 20
292.4079392047245
 30
-70.85584841099308
 11
948.463178519999
 21
292.4079392047246
 31
-70.85584841099308
  0
ARC
  5
16B
  8
DEFAULT
 10
948.463178519999
 20
295.9079392046431
 30
-70.85584841099308
 40
3.499999999918487
 50
270.0
 51
90.0
  0
LINE
  5
16C
  8
DEFAULT
 10
948.463178519999
 20
299.4079392045616
 30
-70.85584841099308
 11
940.0994443491568
 21
299.4079392045615
 31
-70.85584841099308
  0
ARC
  5
16D
  8
DEFAULT
 10
875.7357111447599
 20
295.9079376888932
 30
-70.85584841099308
 40
3.499999999918884
 50
90.00000000000557
 51
179.9999999999916
  0
ARC
  5
16E
  8
DEFAULT
 10
873.7316000827471
 20
295.7969589301247
 30
-70.85584841099222
 40
1.499999999816037
 50
175.7570467301583
 51
190.5820500232674
  0
ARC
  5
16F
  8
DEFAULT
 10
875.7357111447594
 20
295.9079376888938
 30
-70.85584841099302
 40
3.499999999918484
 50
186.3390967533905
 51
270.0000000000018
  0
LINE
  5
170
  8
DEFAULT
 10
875.7357111447595
 20
292.4079376889753
 30
-70.85584841099308
 11
884.0994453156018
 21
292.4079376889753
 31
-70.85584841099308
  0
ARC
  5
171
  8
DEFAULT
 10
884.0994453156019
 20
295.9079376888937
 30
-70.85584841099308
 40
3.49999999991843
 50
269.9999999999981
 51
90.00000000000188
  0
LINE
  5
172
  8
DEFAULT
 10
884.0994453156018
 20
299.4079376888122
 30
-70.85584841099308
 11
875.7357111447595
 21
299.4079376888121
 31
-70.85584841099308
  0
ARC
  5
173
  8
DEFAULT
 10
649.8181261020804
 20
217.6357228752096
 30
-70.85584841099308
 40
3.499999999918374
 50
179.9999983404416
 51
270.0000000000018
  0
LINE
  5
174
  8
DEFAULT
 10
649.8181261020804
 20
214.1357228752911
 30
-70.85584841099308
 11
658.1818602729229
 21
214.1357228752911
 31
-70.85584841099308
  0
ARC
  5
175
  8
DEFAULT
 10
658.181860272923
 20
217.6357228752094
 30
-70.85584841099308
 40
3.499999999918259
 50
269.9999999999981
 51
359.9999999911287
  0
ARC
  5
176
  8
DEFAULT
 10
658.1818602729231
 20
217.6357228752099
 30
-70.85584841099308
 40
3.499999999918145
 50
359.9999999911203
 51
90.00000000000374
  0
LINE
  5
177
  8
DEFAULT
 10
658.1818602729229
 20
221.135722875128
 30
-70.85584841099308
 11
649.8181261020804
 21
221.135722875128
 31
-70.85584841099308
  0
ARC
  5
178
  8
DEFAULT
 10
649.8181261020806
 20
217.6357228752095
 30
-70.8558484109931
 40
3.499999999918487
 50
90.00000000000188
 51
179.9999983404406
  0
ARC
  5
179
  8
DEFAULT
 10
649.8181397270776
 20
238.2210532506776
 30
-70.8558484109931
 40
3.499999999918502
 50
180.0000054356916
 51
269.9999999999981
  0
LINE
  5
17A
  8
DEFAULT
 10
649.8181397270774
 20
234.7210532507593
 30
-70.85584841099308
 11
658.1818738979198
 21
234.7210532507593
 31
-70.85584841099308
  0
ARC
  5
17B
  8
DEFAULT
 10
658.18187389792
 20
238.2210532506773
 30
-70.85584841099305
 40
3.499999999918003
 50
269.9999999999963
 51
359.9999999964579
  0
ARC
  5
17C
  8
DEFAULT
 10
658.1818738979199
 20
238.2210532506778
 30
-70.85584841099312
 40
3.499999999918259
 50
359.9999999964486
 51
90.00000000000188
  0
LINE
  5
17D
  8
DEFAULT
 10
658.1818738979198
 20
241.7210532505961
 30
-70.85584841099308
 11
649.8181397270774
 21
241.7210532505961
 31
-70.85584841099308
  0
ARC
  5
17E
  8
DEFAULT
 10
649.8181397270773
 20
238.2210532506778
 30
-70.85584841099308
 40
3.499999999918316
 50
89.99999999999814
 51
180.0000054356944
  0
ARC
  5
17F
  8
DEFAULT
 10
585.4543939328204
 20
217.6357168128187
 30
-70.85584841099308
 40
3.499999999918542
 50
180.000010260526
 51
270.0
  0
LINE
  5
180
  8
DEFAULT
 10
585.4543939328204
 20
214.1357168129002
 30
-70.85584841099308
 11
593.8181281036627
 21
214.1357168129002
 31
-70.85584841099308
  0
ARC
  5
181
  8
DEFAULT
 10
593.818128103663
 20
217.6357168128184
 30
-70.85584841099308
 40
3.499999999918202
 50
269.9999999999963
 51
359.9999999948095
  0
ARC
  5
182
  8
DEFAULT
 10
593.818128103663
 20
217.6357168128189
 30
-70.85584841099308
 40
3.499999999918145
 50
359.9999999948011
 51
90.00000000000374
  0
LINE
  5
183
  8
DEFAULT
 10
593.8181281036627
 20
221.1357168127371
 30
-70.85584841099308
 11
585.4543939328204
 21
221.135716812737
 31
-70.85584841099308
  0
ARC
  5
184
  8
DEFAULT
 10
585.4543939328205
 20
217.6357168128184
 30
-70.85584841099308
 40
3.499999999918657
 50
90.00000000000188
 51
180.0000102605204
  0
ARC
  5
185
  8
DEFAULT
 10
585.454407557817
 20
238.2210471882865
 30
-70.8558484109931
 40
3.49999999991806
 50
180.0000163576767
 51
270.0000000000056
  0
LINE
  5
186
  8
DEFAULT
 10
585.4544075578174
 20
234.7210471883684
 30
-70.85584841099308
 11
593.8181417286598
 21
234.7210471883684
 31
-70.85584841099308
  0
ARC
  5
187
  8
DEFAULT
 10
593.8181417286596
 20
238.2210471882867
 30
-70.85584841099306
 40
3.499999999918259
 50
270.0000000000037
 51
0.000011006267732
  0
ARC
  5
188
  8
DEFAULT
 10
593.81814172866
 20
238.2210471882871
 30
-70.85584841099305
 40
3.499999999918096
 50
0.000011006260753
 51
90.00000000000188
  0
LINE
  5
189
  8
DEFAULT
 10
593.8181417286598
 20
241.7210471882053
 30
-70.85584841099308
 11
585.4544075578174
 21
241.7210471882053
 31
-70.85584841099308
  0
ARC
  5
18A
  8
DEFAULT
 10
585.454407557817
 20
238.2210471882871
 30
-70.85584841099308
 40
3.499999999918145
 50
89.99999999999442
 51
180.0000163576864
  0
ARC
  5
18B
  8
DEFAULT
 10
585.4544075578176
 20
258.796958930261
 30
-70.85584841099308
 40
3.499999999918746
 50
179.9999922827499
 51
269.9999999999963
  0
LINE
  5
18C
  8
DEFAULT
 10
585.4544075578174
 20
255.2969589303422
 30
-70.85584841099308
 11
593.8181417286597
 21
255.2969589303422
 31
-70.85584841099308
  0
ARC
  5
18D
  8
DEFAULT
 10
593.8181417286597
 20
258.7969589302605
 30
-70.85584841099308
 40
3.499999999918316
 50
270.0
 51
359.9999999994175
  0
ARC
  5
18E
  8
DEFAULT
 10
593.81814172866
 20
258.796958930261
 30
-70.85584841099312
 40
3.499999999918145
 50
359.99999999941
 51
90.00000000000188
  0
LINE
  5
18F
  8
DEFAULT
 10
593.8181417286598
 20
262.2969589301791
 30
-70.85584841099308
 11
585.4544075578174
 21
262.2969589301791
 31
-70.85584841099308
  0
ARC
  5
190
  8
DEFAULT
 10
585.4544075578176
 20
258.7969589302603
 30
-70.85584841099308
 40
3.499999999918828
 50
90.00000000000374
 51
179.9999922827388
  0
ENDSEC
  0
EOF
