  0
SECTION
  2
HEADER
  9
$ACADVER
  1
AC1009
  9
$DWGCODEPAGE
  3
ansi_1252
  9
$INSBASE
 10
0.0
 20
0.0
 30
0.0
  9
$EXTMIN
 10
2075.0
 20
-286.0
 30
234.9999999999208
  9
$EXTMAX
 10
2244.0
 20
319.0
 30
258.0
  9
$LIMMIN
 10
0.0
 20
0.0
  9
$LIMMAX
 10
12.0
 20
9.0
  9
$ORTHOMODE
 70
     0
  9
$REGENMODE
 70
     1
  9
$FILLMODE
 70
     1
  9
$QTEXTMODE
 70
     0
  9
$MIRRTEXT
 70
     1
  9
$DRAGMODE
 70
     2
  9
$LTSCALE
 40
1.0
  9
$OSMODE
 70
    37
  9
$ATTMODE
 70
     1
  9
$TEXTSIZE
 40
0.2
  9
$TRACEWID
 40
0.05
  9
$TEXTSTYLE
  7
STANDARD
  9
$CLAYER
  8
CAMERA_RIG
  9
$CELTYPE
  6
BYLAYER
  9
$CECOLOR
 62
   256
  9
$DIMSCALE
 40
1.0
  9
$DIMASZ
 40
0.18
  9
$DIMEXO
 40
0.0625
  9
$DIMDLI
 40
0.38
  9
$DIMRND
 40
0.0
  9
$DIMDLE
 40
0.0
  9
$DIMEXE
 40
0.18
  9
$DIMTP
 40
0.0
  9
$DIMTM
 40
0.0
  9
$DIMTXT
 40
0.18
  9
$DIMCEN
 40
0.09
  9
$DIMTSZ
 40
0.0
  9
$DIMTOL
 70
     0
  9
$DIMLIM
 70
     0
  9
$DIMTIH
 70
     1
  9
$DIMTOH
 70
     1
  9
$DIMSE1
 70
     0
  9
$DIMSE2
 70
     0
  9
$DIMTAD
 70
     0
  9
$DIMZIN
 70
     0
  9
$DIMBLK
  1

  9
$DIMASO
 70
     1
  9
$DIMSHO
 70
     1
  9
$DIMPOST
  1

  9
$DIMAPOST
  1

  9
$DIMALT
 70
     0
  9
$DIMALTD
 70
     2
  9
$DIMALTF
 40
25.4
  9
$DIMLFAC
 40
1.0
  9
$DIMTOFL
 70
     0
  9
$DIMTVP
 40
0.0
  9
$DIMTIX
 70
     0
  9
$DIMSOXD
 70
     0
  9
$DIMSAH
 70
     0
  9
$DIMBLK1
  1

  9
$DIMBLK2
  1

  9
$DIMSTYLE
  2
STANDARD_ACAD
  9
$DIMCLRD
 70
     0
  9
$DIMCLRE
 70
     0
  9
$DIMCLRT
 70
     0
  9
$DIMTFAC
 40
1.0
  9
$DIMGAP
 40
0.09
  9
$LUNITS
 70
     2
  9
$LUPREC
 70
     3
  9
$SKETCHINC
 40
0.1
  9
$FILLETRAD
 40
0.0
  9
$AUNITS
 70
     0
  9
$AUPREC
 70
     0
  9
$MENU
  1
.
  9
$ELEVATION
 40
0.0
  9
$PELEVATION
 40
0.0
  9
$THICKNESS
 40
0.0
  9
$LIMCHECK
 70
     0
  9
$CHAMFERA
 40
0.0
  9
$CHAMFERB
 40
0.0
  9
$SKPOLY
 70
     0
  9
$TDCREATE
 40
2460469.751062153
  9
$TDUPDATE
 40
2460469.751072326
  9
$TDINDWG
 40
0.0000000116
  9
$TDUSRTIMER
 40
0.0000000116
  9
$USRTIMER
 70
     1
  9
$ANGBASE
 50
0.0
  9
$ANGDIR
 70
     0
  9
$PDMODE
 70
     0
  9
$PDSIZE
 40
0.0
  9
$PLINEWID
 40
0.0
  9
$COORDS
 70
     1
  9
$SPLFRAME
 70
     0
  9
$SPLINETYPE
 70
     6
  9
$SPLINESEGS
 70
     8
  9
$ATTDIA
 70
     0
  9
$ATTREQ
 70
     1
  9
$HANDLING
 70
     1
  9
$HANDSEED
  5
10F
  9
$SURFTAB1
 70
     6
  9
$SURFTAB2
 70
     6
  9
$SURFTYPE
 70
     6
  9
$SURFU
 70
     6
  9
$SURFV
 70
     6
  9
$UCSNAME
  2

  9
$UCSORG
 10
0.0
 20
0.0
 30
0.0
  9
$UCSXDIR
 10
1.0
 20
0.0
 30
0.0
  9
$UCSYDIR
 10
0.0
 20
1.0
 30
0.0
  9
$PUCSNAME
  2

  9
$PUCSORG
 10
0.0
 20
0.0
 30
0.0
  9
$PUCSXDIR
 10
1.0
 20
0.0
 30
0.0
  9
$PUCSYDIR
 10
0.0
 20
1.0
 30
0.0
  9
$USERI1
 70
     0
  9
$USERI2
 70
     0
  9
$USERI3
 70
     0
  9
$USERI4
 70
     0
  9
$USERI5
 70
     0
  9
$USERR1
 40
0.0
  9
$USERR2
 40
0.0
  9
$USERR3
 40
0.0
  9
$USERR4
 40
0.0
  9
$USERR5
 40
0.0
  9
$WORLDVIEW
 70
     1
  9
$SHADEDGE
 70
     3
  9
$SHADEDIF
 70
    70
  9
$TILEMODE
 70
     1
  9
$MAXACTVP
 70
    64
  9
$PLIMCHECK
 70
     0
  9
$PEXTMIN
 10
1.000000000000000E+20
 20
1.000000000000000E+20
 30
1.000000000000000E+20
  9
$PEXTMAX
 10
-1.000000000000000E+20
 20
-1.000000000000000E+20
 30
-1.000000000000000E+20
  9
$PLIMMIN
 10
0.0
 20
0.0
  9
$PLIMMAX
 10
12.0
 20
9.0
  9
$UNITMODE
 70
     0
  9
$VISRETAIN
 70
     1
  9
$PLINEGEN
 70
     0
  9
$PSLTSCALE
 70
     1
  0
ENDSEC
  0
SECTION
  2
TABLES
  0
TABLE
  2
VPORT
 70
     1
  0
VPORT
  2
*ACTIVE
 70
     0
 10
0.0
 20
0.0
 11
1.0
 21
1.0
 12
10.42990654205607
 22
4.5
 13
0.0
 23
0.0
 14
0.5
 24
0.5
 15
0.5
 25
0.5
 16
0.0
 26
0.0
 36
1.0
 17
0.0
 27
0.0
 37
0.0
 40
9.0
 41
1.972972972850329
 42
50.0
 43
0.0
 44
0.0
 50
0.0
 51
0.0
 71
     0
 72
   100
 73
     1
 74
     3
 75
     0
 76
     0
 77
     0
 78
     0
  0
ENDTAB
  0
TABLE
  2
LTYPE
 70
     1
  0
LTYPE
  2
CONTINUOUS
 70
     0
  3
Solid line
 72
    65
 73
     0
 40
0.0
  0
ENDTAB
  0
TABLE
  2
LAYER
 70
     2
  0
LAYER
  2
0
 70
     0
 62
     7
  6
CONTINUOUS
  0
LAYER
  2
CAMERA_RIG
 70
     0
 62
     7
  6
CONTINUOUS
  0
ENDTAB
  0
TABLE
  2
STYLE
 70
     1
  0
STYLE
  2
STANDARD
 70
     0
 40
0.0
 41
1.0
 50
0.0
 71
     0
 42
0.2
  3
txt
  4

  0
ENDTAB
  0
TABLE
  2
VIEW
 70
     0
  0
ENDTAB
  0
TABLE
  2
UCS
 70
     0
  0
ENDTAB
  0
TABLE
  2
APPID
 70
     2
  0
APPID
  2
ACAD
 70
     0
  0
APPID
  2
RHINO
 70
     0
  0
ENDTAB
  0
TABLE
  2
DIMSTYLE
 70
     1
  0
DIMSTYLE
  2
STANDARD_ACAD
 70
     0
  3

  4

  5

  6

  7

 40
1.0
 41
0.18
 42
0.0625
 43
0.38
 44
0.18
 45
0.0
 46
0.0
 47
0.0
 48
0.0
140
0.18
141
0.09
142
0.0
143
25.4
144
1.0
145
0.0
146
1.0
147
0.09
 71
     0
 72
     0
 73
     1
 74
     1
 75
     0
 76
     0
 77
     0
 78
     0
170
     0
171
     2
172
     0
173
     0
174
     0
175
     0
176
     0
177
     0
178
     0
  0
ENDTAB
  0
ENDSEC
  0
SECTION
  2
BLOCKS
  0
BLOCK
  8
0
  2
$MODEL_SPACE
 70
     0
 10
0.0
 20
0.0
 30
0.0
  3
$MODEL_SPACE
  1

  0
ENDBLK
  5
21
  8
0
  0
BLOCK
 67
     1
  8
0
  2
$PAPER_SPACE
 70
     0
 10
0.0
 20
0.0
 30
0.0
  3
$PAPER_SPACE
  1

  0
ENDBLK
  5
1D
 67
     1
  8
0
  0
ENDSEC
  0
SECTION
  2
ENTITIES
  0
LINE
  5
60
  8
CAMERA_RIG
 10
2244.0
 20
-146.0
 30
258.0
 11
2235.000000000001
 21
-146.0
 31
258.0
  0
LINE
  5
61
  8
CAMERA_RIG
 10
2235.000000000001
 20
-146.0
 30
258.0
 11
2235.000000000001
 21
-190.9999999999999
 31
258.0
  0
LINE
  5
62
  8
CAMERA_RIG
 10
2235.000000000001
 20
-190.9999999999999
 30
258.0
 11
2207.000000000001
 21
-190.9999999999999
 31
258.0
  0
LINE
  5
63
  8
CAMERA_RIG
 10
2207.000000000001
 20
-190.9999999999999
 30
258.0
 11
2207.000000000001
 21
223.9999999999999
 31
258.0
  0
LINE
  5
64
  8
CAMERA_RIG
 10
2207.000000000001
 20
223.9999999999999
 30
258.0
 11
2235.000000000001
 21
223.9999999999999
 31
258.0
  0
LINE
  5
65
  8
CAMERA_RIG
 10
2235.000000000001
 20
223.9999999999999
 30
258.0
 11
2235.000000000001
 21
179.0
 31
258.0
  0
LINE
  5
66
  8
CAMERA_RIG
 10
2235.000000000001
 20
179.0
 30
258.0
 11
2244.0
 21
179.0
 31
258.0
  0
LINE
  5
67
  8
CAMERA_RIG
 10
2244.0
 20
179.0
 30
258.0
 11
2244.0
 21
156.0
 31
258.0
  0
LINE
  5
68
  8
CAMERA_RIG
 10
2244.0
 20
156.0
 30
258.0
 11
2235.000000000001
 21
156.0
 31
258.0
  0
LINE
  5
69
  8
CAMERA_RIG
 10
2235.000000000001
 20
156.0
 30
258.0
 11
2235.000000000001
 21
82.0
 31
258.0
  0
LINE
  5
6A
  8
CAMERA_RIG
 10
2235.000000000001
 20
82.0
 30
258.0
 11
2244.0
 21
82.0
 31
258.0
  0
LINE
  5
6B
  8
CAMERA_RIG
 10
2244.0
 20
82.0
 30
258.0
 11
2244.0
 21
59.0
 31
258.0
  0
LINE
  5
6C
  8
CAMERA_RIG
 10
2244.0
 20
59.0
 30
258.0
 11
2235.000000000001
 21
59.0
 31
258.0
  0
LINE
  5
6D
  8
CAMERA_RIG
 10
2235.000000000001
 20
59.0
 30
258.0
 11
2235.000000000001
 21
-26.0
 31
258.0
  0
LINE
  5
6E
  8
CAMERA_RIG
 10
2235.000000000001
 20
-26.0
 30
258.0
 11
2244.0
 21
-26.0
 31
258.0
  0
LINE
  5
6F
  8
CAMERA_RIG
 10
2244.0
 20
-26.0
 30
258.0
 11
2244.0
 21
-49.0
 31
258.0
  0
LINE
  5
70
  8
CAMERA_RIG
 10
2244.0
 20
-49.0
 30
258.0
 11
2235.000000000001
 21
-49.0
 31
258.0
  0
LINE
  5
71
  8
CAMERA_RIG
 10
2235.000000000001
 20
-49.0
 30
258.0
 11
2235.000000000001
 21
-123.0
 31
258.0
  0
LINE
  5
72
  8
CAMERA_RIG
 10
2235.000000000001
 20
-123.0
 30
258.0
 11
2244.0
 21
-123.0
 31
258.0
  0
LINE
  5
73
  8
CAMERA_RIG
 10
2244.0
 20
-123.0
 30
258.0
 11
2244.0
 21
-146.0
 31
258.0
  0
CIRCLE
  5
74
  8
CAMERA_RIG
 10
2221.000000000001
 20
167.5
 30
258.0
 40
1.5
  0
CIRCLE
  5
75
  8
CAMERA_RIG
 10
2221.000000000001
 20
70.0
 30
258.0
 40
1.5
  0
CIRCLE
  5
76
  8
CAMERA_RIG
 10
2221.000000000001
 20
-38.0
 30
258.0
 40
1.5
  0
CIRCLE
  5
77
  8
CAMERA_RIG
 10
2221.000000000001
 20
-135.0
 30
258.0
 40
1.5
  0
LINE
  5
78
  8
CAMERA_RIG
 10
2075.0
 20
-286.0
 30
235.0000000000005
 11
2075.0
 21
319.0
 31
235.0000000000005
  0
LINE
  5
79
  8
CAMERA_RIG
 10
2075.0
 20
319.0
 30
235.0000000000005
 11
2160.0
 21
319.0
 31
235.0000000000005
  0
LINE
  5
7A
  8
CAMERA_RIG
 10
2160.0
 20
319.0
 30
235.0000000000005
 11
2160.0
 21
-286.0
 31
235.0000000000005
  0
LINE
  5
7B
  8
CAMERA_RIG
 10
2160.0
 20
-286.0
 30
235.0000000000005
 11
2075.0
 21
-286.0
 31
235.0000000000005
  0
CIRCLE
  5
7C
  8
CAMERA_RIG
 10
2083.999961764649
 20
-187.000038388124
 30
235.0000000000005
 40
1.500038235841733
  0
CIRCLE
  5
7D
  8
CAMERA_RIG
 10
2117.638601540579
 20
-276.9999968982743
 30
235.0000000000005
 40
1.500002197998878
  0
CIRCLE
  5
7E
  8
CAMERA_RIG
 10
2151.27719231721
 20
-187.0000036474084
 30
235.0000000000005
 40
1.500002939465451
  0
CIRCLE
  5
7F
  8
CAMERA_RIG
 10
2128.0
 20
8.999999999999977
 30
235.0000000000005
 40
1.500000000000083
  0
CIRCLE
  5
80
  8
CAMERA_RIG
 10
2107.0
 20
8.999999999999886
 30
235.0000000000005
 40
1.500000000000284
  0
CIRCLE
  5
81
  8
CAMERA_RIG
 10
2083.99999997862
 20
-276.9999999631267
 30
235.0000000000005
 40
1.500000021380402
  0
CIRCLE
  5
82
  8
CAMERA_RIG
 10
2151.277192525034
 20
-276.9999999999995
 30
235.0000000000005
 40
1.500000000000455
  0
CIRCLE
  5
83
  8
CAMERA_RIG
 10
2117.63859626252
 20
-186.9999999965266
 30
235.0000000000005
 40
1.499999999996817
  0
LINE
  5
84
  8
CAMERA_RIG
 10
2122.0
 20
-189.8425968103636
 30
235.0000000000004
 11
2120.602316473397
 21
-189.5749763332782
 31
235.0000000000004
  0
LINE
  5
85
  8
CAMERA_RIG
 10
2120.602316473397
 20
-189.5749763332782
 30
235.0000000000004
 11
2119.955409240118
 21
-189.4682113774791
 31
235.0000000000004
  0
LINE
  5
86
  8
CAMERA_RIG
 10
2119.955409240118
 20
-189.4682113774791
 30
235.0000000000004
 11
2119.357734944104
 21
-189.38147568249
 31
235.0000000000004
  0
LINE
  5
87
  8
CAMERA_RIG
 10
2119.357734944104
 20
-189.38147568249
 30
235.0000000000004
 11
2118.817441927549
 21
-189.3152906666889
 31
235.0000000000005
  0
LINE
  5
88
  8
CAMERA_RIG
 10
2118.817441927549
 20
-189.3152906666889
 30
235.0000000000005
 11
2118.340050655286
 21
-189.2694236771014
 31
235.0000000000004
  0
LINE
  5
89
  8
CAMERA_RIG
 10
2118.340050655286
 20
-189.2694236771014
 30
235.0000000000004
 11
2118.12593910695
 21
-189.2538529426797
 31
235.0000000000004
  0
LINE
  5
8A
  8
CAMERA_RIG
 10
2118.12593910695
 20
-189.2538529426797
 30
235.0000000000004
 11
2117.928429554383
 21
-189.2429827105142
 31
235.0000000000005
  0
LINE
  5
8B
  8
CAMERA_RIG
 10
2117.928429554383
 20
-189.2429827105142
 30
235.0000000000005
 11
2117.747498128977
 21
-189.2366206069925
 31
235.0000000000005
  0
LINE
  5
8C
  8
CAMERA_RIG
 10
2117.747498128977
 20
-189.2366206069925
 30
235.0000000000005
 11
2117.582988613073
 21
-189.2345510341524
 31
235.0000000000005
  0
LINE
  5
8D
  8
CAMERA_RIG
 10
2117.582988613073
 20
-189.2345510341524
 30
235.0000000000005
 11
2117.413511425553
 21
-189.2367424121518
 31
235.0000000000004
  0
LINE
  5
8E
  8
CAMERA_RIG
 10
2117.413511425553
 20
-189.2367424121518
 30
235.0000000000004
 11
2117.226649272834
 21
-189.2434832512975
 31
235.0000000000005
  0
LINE
  5
8F
  8
CAMERA_RIG
 10
2117.226649272834
 20
-189.2434832512975
 30
235.0000000000005
 11
2117.022238103118
 21
-189.2550072515462
 31
235.0000000000005
  0
LINE
  5
90
  8
CAMERA_RIG
 10
2117.022238103118
 20
-189.2550072515462
 30
235.0000000000005
 11
2116.800262910841
 21
-189.2715217857121
 31
235.0000000000005
  0
LINE
  5
91
  8
CAMERA_RIG
 10
2116.800262910841
 20
-189.2715217857121
 30
235.0000000000005
 11
2116.304387088151
 21
-189.3201865392242
 31
235.0000000000005
  0
LINE
  5
92
  8
CAMERA_RIG
 10
2116.304387088151
 20
-189.3201865392242
 30
235.0000000000005
 11
2115.742348921386
 21
-189.3904005025457
 31
235.0000000000005
  0
LINE
  5
93
  8
CAMERA_RIG
 10
2115.742348921386
 20
-189.3904005025457
 30
235.0000000000005
 11
2115.120451320122
 21
-189.4823374324138
 31
235.0000000000005
  0
LINE
  5
94
  8
CAMERA_RIG
 10
2115.120451320122
 20
-189.4823374324138
 30
235.0000000000005
 11
2114.447916667359
 21
-189.5953189414905
 31
235.0000000000005
  0
LINE
  5
95
  8
CAMERA_RIG
 10
2114.447916667359
 20
-189.5953189414905
 30
235.0000000000005
 11
2113.0
 21
-189.8773434960484
 31
235.0000000000005
  0
ARC
  5
96
  8
CAMERA_RIG
 10
2123.591892872076
 20
-240.0756117848351
 30
235.0000000000218
 40
51.3035508888668
 50
101.9147074942222
 51
106.0202566860142
  0
ARC
  5
97
  8
CAMERA_RIG
 10
-2107.768706468486
 20
-184.9999999999905
 30
-235.0000000000005
 40
6.000000000009368
 50
253.8931544140648
 51
269.9999999999826
210
0.0
220
0.0
230
-1.0
  0
LINE
  5
98
  8
CAMERA_RIG
 10
2107.768706468487
 20
-190.9999999999999
 30
235.0000000000005
 11
2089.0
 21
-190.9999999999999
 31
235.0000000000005
  0
LINE
  5
99
  8
CAMERA_RIG
 10
2089.0
 20
-190.9999999999999
 30
235.0000000000005
 11
2089.0
 21
-273.0511058816143
 31
235.0000000000005
  0
LINE
  5
9A
  8
CAMERA_RIG
 10
2089.0
 20
-273.0511058816143
 30
235.0000000000005
 11
2107.768706468487
 21
-273.0511058816141
 31
235.0000000000005
  0
ARC
  5
9B
  8
CAMERA_RIG
 10
-2107.768706468486
 20
-279.0511058816064
 30
-235.0000000000005
 40
5.999999999992326
 50
90.00000000000436
 51
106.106845585964
210
0.0
220
0.0
230
-1.0
  0
LINE
  5
9C
  8
CAMERA_RIG
 10
2109.433283128334
 20
-273.2866297958377
 30
235.0000000000005
 11
2110.51495598072
 21
-273.5847510799216
 31
235.0000000000004
  0
LINE
  5
9D
  8
CAMERA_RIG
 10
2110.51495598072
 20
-273.5847510799216
 30
235.0000000000004
 11
2111.688204970648
 21
-273.8788014550553
 31
235.0000000000004
  0
LINE
  5
9E
  8
CAMERA_RIG
 10
2111.688204970648
 20
-273.8788014550553
 30
235.0000000000004
 11
2112.901149312131
 21
-274.1527874512756
 31
235.0000000000004
  0
LINE
  5
9F
  8
CAMERA_RIG
 10
2112.901149312131
 20
-274.1527874512756
 30
235.0000000000004
 11
2114.09186775662
 21
-274.3910408200992
 31
235.0000000000004
  0
LINE
  5
A0
  8
CAMERA_RIG
 10
2114.09186775662
 20
-274.3910408200992
 30
235.0000000000004
 11
2115.19820093198
 21
-274.5809711113613
 31
235.0000000000003
  0
LINE
  5
A1
  8
CAMERA_RIG
 10
2115.19820093198
 20
-274.5809711113613
 30
235.0000000000003
 11
2115.702850920662
 21
-274.6552750520353
 31
235.0000000000003
  0
LINE
  5
A2
  8
CAMERA_RIG
 10
2115.702850920662
 20
-274.6552750520353
 30
235.0000000000003
 11
2116.168200897837
 21
-274.7152068810292
 31
235.0000000000003
  0
LINE
  5
A3
  8
CAMERA_RIG
 10
2116.168200897837
 20
-274.7152068810292
 30
235.0000000000003
 11
2116.590601322187
 21
-274.7607918580988
 31
235.0000000000003
  0
LINE
  5
A4
  8
CAMERA_RIG
 10
2116.590601322187
 20
-274.7607918580988
 30
235.0000000000003
 11
2116.967716963711
 21
-274.7923982769635
 31
235.0000000000002
  0
LINE
  5
A5
  8
CAMERA_RIG
 10
2116.967716963711
 20
-274.7923982769635
 30
235.0000000000002
 11
2117.29848189806
 21
-274.8106876483362
 31
235.0000000000003
  0
LINE
  5
A6
  8
CAMERA_RIG
 10
2117.29848189806
 20
-274.8106876483362
 30
235.0000000000003
 11
2117.446470583164
 21
-274.8151107145486
 31
235.0000000000003
  0
LINE
  5
A7
  8
CAMERA_RIG
 10
2117.446470583164
 20
-274.8151107145486
 30
235.0000000000003
 11
2117.582988613073
 21
-274.816554847461
 31
235.0000000000002
  0
LINE
  5
A8
  8
CAMERA_RIG
 10
2117.582988613073
 20
-274.816554847461
 30
235.0000000000002
 11
2117.719506642982
 21
-274.8151107145485
 31
235.0000000000002
  0
LINE
  5
A9
  8
CAMERA_RIG
 10
2117.719506642982
 20
-274.8151107145485
 30
235.0000000000002
 11
2117.867495328087
 21
-274.8106876483362
 31
235.0000000000003
  0
LINE
  5
AA
  8
CAMERA_RIG
 10
2117.867495328087
 20
-274.8106876483362
 30
235.0000000000003
 11
2118.198260262434
 21
-274.7923982769635
 31
235.0000000000003
  0
LINE
  5
AB
  8
CAMERA_RIG
 10
2118.198260262434
 20
-274.7923982769635
 30
235.0000000000003
 11
2118.575375903959
 21
-274.7607918580986
 31
235.0000000000003
  0
LINE
  5
AC
  8
CAMERA_RIG
 10
2118.575375903959
 20
-274.7607918580986
 30
235.0000000000003
 11
2118.997776328308
 21
-274.7152068810291
 31
235.0000000000003
  0
LINE
  5
AD
  8
CAMERA_RIG
 10
2118.997776328308
 20
-274.7152068810291
 30
235.0000000000003
 11
2119.463126305484
 21
-274.6552750520352
 31
235.0000000000003
  0
LINE
  5
AE
  8
CAMERA_RIG
 10
2119.463126305484
 20
-274.6552750520352
 30
235.0000000000003
 11
2119.967776294166
 21
-274.5809711113612
 31
235.0000000000003
  0
LINE
  5
AF
  8
CAMERA_RIG
 10
2119.967776294166
 20
-274.5809711113612
 30
235.0000000000003
 11
2121.074109469525
 21
-274.3910408200992
 31
235.0000000000004
  0
LINE
  5
B0
  8
CAMERA_RIG
 10
2121.074109469525
 20
-274.3910408200992
 30
235.0000000000004
 11
2122.264827914013
 21
-274.1527874512757
 31
235.0000000000005
  0
LINE
  5
B1
  8
CAMERA_RIG
 10
2122.264827914013
 20
-274.1527874512757
 30
235.0000000000005
 11
2123.477772255497
 21
-273.8788014550556
 31
235.0000000000005
  0
LINE
  5
B2
  8
CAMERA_RIG
 10
2123.477772255497
 20
-273.8788014550556
 30
235.0000000000005
 11
2124.651021245425
 21
-273.5847510799221
 31
235.0000000000005
  0
LINE
  5
B3
  8
CAMERA_RIG
 10
2124.651021245425
 20
-273.5847510799221
 30
235.0000000000005
 11
2125.732694097811
 21
-273.2866297958383
 31
235.0000000000005
  0
ARC
  5
B4
  8
CAMERA_RIG
 10
-2127.397270757657
 20
-279.0511058815871
 30
-235.0000000000133
 40
5.999999999972851
 50
73.8931544139958
 51
90.00000000005213
210
0.0
220
0.0
230
-1.0
  0
LINE
  5
B5
  8
CAMERA_RIG
 10
2127.397270757662
 20
-273.0511058816141
 30
235.0000000000005
 11
2146.165977226146
 21
-273.0511058816141
 31
235.0000000000005
  0
LINE
  5
B6
  8
CAMERA_RIG
 10
2146.165977226146
 20
-273.0511058816141
 30
235.0000000000005
 11
2146.165977226146
 21
-190.9999999999999
 31
235.0000000000005
  0
LINE
  5
B7
  8
CAMERA_RIG
 10
2146.165977226146
 20
-190.9999999999999
 30
235.0000000000005
 11
2127.397270757662
 21
-190.9999999999999
 31
235.0000000000005
  0
ARC
  5
B8
  8
CAMERA_RIG
 10
-2127.397270757661
 20
-185.0000000000016
 30
-235.0000000000005
 40
5.999999999998266
 50
269.9999999999956
 51
286.1068455859748
210
0.0
220
0.0
230
-1.0
  0
ARC
  5
B9
  8
CAMERA_RIG
 10
2111.560709441345
 20
-240.1291286841165
 30
235.0000000000425
 40
51.35868062224708
 50
73.98187852497274
 51
78.27219738875642
  0
LINE
  5
BA
  8
CAMERA_RIG
 10
2113.0
 20
-26.0
 30
234.9999999999989
 11
2122.0
 21
-26.0
 31
234.9999999999989
  0
LINE
  5
BB
  8
CAMERA_RIG
 10
2122.0
 20
-26.0
 30
234.9999999999989
 11
2122.0
 21
-49.0
 31
234.9999999999989
  0
LINE
  5
BC
  8
CAMERA_RIG
 10
2122.0
 20
-49.0
 30
234.9999999999989
 11
2113.0
 21
-49.0
 31
234.9999999999989
  0
LINE
  5
BD
  8
CAMERA_RIG
 10
2113.0
 20
-49.0
 30
234.9999999999989
 11
2113.0
 21
-26.0
 31
234.9999999999989
  0
LINE
  5
BE
  8
CAMERA_RIG
 10
2122.0
 20
-146.0
 30
234.9999999999989
 11
2113.0
 21
-146.0
 31
234.9999999999989
  0
LINE
  5
BF
  8
CAMERA_RIG
 10
2113.0
 20
-146.0
 30
234.9999999999989
 11
2113.0
 21
-123.0
 31
234.9999999999989
  0
LINE
  5
C0
  8
CAMERA_RIG
 10
2113.0
 20
-123.0
 30
234.9999999999989
 11
2122.0
 21
-123.0
 31
234.9999999999989
  0
LINE
  5
C1
  8
CAMERA_RIG
 10
2122.0
 20
-123.0
 30
234.9999999999989
 11
2122.0
 21
-146.0
 31
234.9999999999989
  0
CIRCLE
  5
C2
  8
CAMERA_RIG
 10
-2083.999961764649
 20
220.000038388124
 30
-235.0000000000005
 40
1.500038235841733
210
0.0
220
0.0
230
-1.0
  0
CIRCLE
  5
C3
  8
CAMERA_RIG
 10
-2117.638601540579
 20
309.9999968982743
 30
-235.0000000000005
 40
1.500002197998878
210
0.0
220
0.0
230
-1.0
  0
CIRCLE
  5
C4
  8
CAMERA_RIG
 10
-2151.277192317209
 20
220.0000036474082
 30
-235.0000000000005
 40
1.500002939464811
210
0.0
220
0.0
230
-1.0
  0
CIRCLE
  5
C5
  8
CAMERA_RIG
 10
-2107.0
 20
22.49999999999978
 30
-235.0000000000005
 40
1.500000000000126
210
0.0
220
0.0
230
-1.0
  0
CIRCLE
  5
C6
  8
CAMERA_RIG
 10
-2128.0
 20
22.50000000000005
 30
-235.0000000000005
 40
1.499999999999977
210
0.0
220
0.0
230
-1.0
  0
CIRCLE
  5
C7
  8
CAMERA_RIG
 10
-2117.63859626252
 20
219.9999999965266
 30
-235.0000000000005
 40
1.499999999996817
210
0.0
220
0.0
230
-1.0
  0
CIRCLE
  5
C8
  8
CAMERA_RIG
 10
-2083.99999997862
 20
309.9999999631265
 30
-235.0000000000005
 40
1.500000021380402
210
0.0
220
0.0
230
-1.0
  0
CIRCLE
  5
C9
  8
CAMERA_RIG
 10
-2151.277192525034
 20
310.0
 30
-235.0000000000005
 40
1.5
210
0.0
220
0.0
230
-1.0
  0
LINE
  5
CA
  8
CAMERA_RIG
 10
2122.0
 20
222.8425968103636
 30
235.0000000000004
 11
2120.602316473398
 21
222.5749763332782
 31
235.0000000000005
  0
LINE
  5
CB
  8
CAMERA_RIG
 10
2120.602316473398
 20
222.5749763332782
 30
235.0000000000005
 11
2119.955409240118
 21
222.4682113774791
 31
235.0000000000005
  0
LINE
  5
CC
  8
CAMERA_RIG
 10
2119.955409240118
 20
222.4682113774791
 30
235.0000000000005
 11
2119.357734944103
 21
222.38147568249
 31
235.0000000000004
  0
LINE
  5
CD
  8
CAMERA_RIG
 10
2119.357734944103
 20
222.38147568249
 30
235.0000000000004
 11
2118.817441927548
 21
222.3152906666889
 31
235.0000000000004
  0
LINE
  5
CE
  8
CAMERA_RIG
 10
2118.817441927548
 20
222.3152906666889
 30
235.0000000000004
 11
2118.340050655286
 21
222.2694236771014
 31
235.0000000000004
  0
LINE
  5
CF
  8
CAMERA_RIG
 10
2118.340050655286
 20
222.2694236771014
 30
235.0000000000004
 11
2118.12593910695
 21
222.2538529426797
 31
235.0000000000004
  0
LINE
  5
D0
  8
CAMERA_RIG
 10
2118.12593910695
 20
222.2538529426797
 30
235.0000000000004
 11
2117.928429554383
 21
222.2429827105141
 31
235.0000000000004
  0
LINE
  5
D1
  8
CAMERA_RIG
 10
2117.928429554383
 20
222.2429827105141
 30
235.0000000000004
 11
2117.747498128977
 21
222.2366206069925
 31
235.0000000000004
  0
LINE
  5
D2
  8
CAMERA_RIG
 10
2117.747498128977
 20
222.2366206069925
 30
235.0000000000004
 11
2117.582988613073
 21
222.2345510341524
 31
235.0000000000005
  0
LINE
  5
D3
  8
CAMERA_RIG
 10
2117.582988613073
 20
222.2345510341524
 30
235.0000000000005
 11
2117.413511425553
 21
222.2367424121518
 31
235.0000000000004
  0
LINE
  5
D4
  8
CAMERA_RIG
 10
2117.413511425553
 20
222.2367424121518
 30
235.0000000000004
 11
2117.226649272834
 21
222.2434832512975
 31
235.0000000000005
  0
LINE
  5
D5
  8
CAMERA_RIG
 10
2117.226649272834
 20
222.2434832512975
 30
235.0000000000005
 11
2117.022238103118
 21
222.2550072515462
 31
235.0000000000005
  0
LINE
  5
D6
  8
CAMERA_RIG
 10
2117.022238103118
 20
222.2550072515462
 30
235.0000000000005
 11
2116.800262910841
 21
222.2715217857121
 31
235.0000000000005
  0
LINE
  5
D7
  8
CAMERA_RIG
 10
2116.800262910841
 20
222.2715217857121
 30
235.0000000000005
 11
2116.304387088151
 21
222.3201865392242
 31
235.0000000000005
  0
LINE
  5
D8
  8
CAMERA_RIG
 10
2116.304387088151
 20
222.3201865392242
 30
235.0000000000005
 11
2115.742348921386
 21
222.3904005025457
 31
235.0000000000005
  0
LINE
  5
D9
  8
CAMERA_RIG
 10
2115.742348921386
 20
222.3904005025457
 30
235.0000000000005
 11
2115.120451320122
 21
222.4823374324139
 31
235.0000000000005
  0
LINE
  5
DA
  8
CAMERA_RIG
 10
2115.120451320122
 20
222.4823374324139
 30
235.0000000000005
 11
2114.447916667359
 21
222.5953189414905
 31
235.0000000000005
  0
LINE
  5
DB
  8
CAMERA_RIG
 10
2114.447916667359
 20
222.5953189414905
 30
235.0000000000005
 11
2113.0
 21
222.8773434960485
 31
235.0000000000005
  0
ARC
  5
DC
  8
CAMERA_RIG
 10
-2123.591892872085
 20
273.0756117848728
 30
-235.0000000000218
 40
51.30355088890553
 50
281.9147074942235
 51
286.0202566860124
210
0.0
220
0.0
230
-1.0
  0
ARC
  5
DD
  8
CAMERA_RIG
 10
2107.768706468485
 20
217.9999999999909
 30
235.0000000000005
 40
6.000000000009085
 50
73.89315441405958
 51
89.9999999999783
  0
LINE
  5
DE
  8
CAMERA_RIG
 10
2107.768706468487
 20
223.9999999999999
 30
235.0000000000005
 11
2089.0
 21
223.9999999999999
 31
235.0000000000005
  0
LINE
  5
DF
  8
CAMERA_RIG
 10
2089.0
 20
223.9999999999999
 30
235.0000000000005
 11
2089.0
 21
306.0511058816143
 31
235.0000000000005
  0
LINE
  5
E0
  8
CAMERA_RIG
 10
2089.0
 20
306.0511058816143
 30
235.0000000000005
 11
2107.768706468487
 21
306.0511058816141
 31
235.0000000000005
  0
ARC
  5
E1
  8
CAMERA_RIG
 10
2107.768706468486
 20
312.0511058816124
 30
235.0000000000005
 40
5.999999999998295
 50
270.000000000013
 51
286.1068455859567
  0
LINE
  5
E2
  8
CAMERA_RIG
 10
2109.433283128334
 20
306.2866297958377
 30
235.0000000000005
 11
2110.51495598072
 21
306.5847510799215
 31
235.0000000000004
  0
LINE
  5
E3
  8
CAMERA_RIG
 10
2110.51495598072
 20
306.5847510799215
 30
235.0000000000004
 11
2111.688204970648
 21
306.8788014550553
 31
235.0000000000004
  0
LINE
  5
E4
  8
CAMERA_RIG
 10
2111.688204970648
 20
306.8788014550553
 30
235.0000000000004
 11
2112.901149312131
 21
307.1527874512757
 31
235.0000000000005
  0
LINE
  5
E5
  8
CAMERA_RIG
 10
2112.901149312131
 20
307.1527874512757
 30
235.0000000000005
 11
2114.09186775662
 21
307.3910408200994
 31
235.0000000000005
  0
LINE
  5
E6
  8
CAMERA_RIG
 10
2114.09186775662
 20
307.3910408200994
 30
235.0000000000005
 11
2115.19820093198
 21
307.5809711113615
 31
235.0000000000005
  0
LINE
  5
E7
  8
CAMERA_RIG
 10
2115.19820093198
 20
307.5809711113615
 30
235.0000000000005
 11
2115.702850920662
 21
307.6552750520355
 31
235.0000000000004
  0
LINE
  5
E8
  8
CAMERA_RIG
 10
2115.702850920662
 20
307.6552750520355
 30
235.0000000000004
 11
2116.168200897837
 21
307.7152068810295
 31
235.0000000000005
  0
LINE
  5
E9
  8
CAMERA_RIG
 10
2116.168200897837
 20
307.7152068810295
 30
235.0000000000005
 11
2116.590601322187
 21
307.760791858099
 31
235.0000000000005
  0
LINE
  5
EA
  8
CAMERA_RIG
 10
2116.590601322187
 20
307.760791858099
 30
235.0000000000005
 11
2116.967716963711
 21
307.7923982769639
 31
235.0000000000004
  0
LINE
  5
EB
  8
CAMERA_RIG
 10
2116.967716963711
 20
307.7923982769639
 30
235.0000000000004
 11
2117.29848189806
 21
307.8106876483366
 31
235.0000000000005
  0
LINE
  5
EC
  8
CAMERA_RIG
 10
2117.29848189806
 20
307.8106876483366
 30
235.0000000000005
 11
2117.446470583164
 21
307.815110714549
 31
235.0000000000005
  0
LINE
  5
ED
  8
CAMERA_RIG
 10
2117.446470583164
 20
307.815110714549
 30
235.0000000000005
 11
2117.582988613073
 21
307.8165548474615
 31
235.0000000000005
  0
LINE
  5
EE
  8
CAMERA_RIG
 10
2117.582988613073
 20
307.8165548474615
 30
235.0000000000005
 11
2117.719506642982
 21
307.815110714549
 31
235.0000000000005
  0
LINE
  5
EF
  8
CAMERA_RIG
 10
2117.719506642982
 20
307.815110714549
 30
235.0000000000005
 11
2117.867495328087
 21
307.8106876483367
 31
235.0000000000005
  0
LINE
  5
F0
  8
CAMERA_RIG
 10
2117.867495328087
 20
307.8106876483367
 30
235.0000000000005
 11
2118.198260262434
 21
307.7923982769639
 31
235.0000000000005
  0
LINE
  5
F1
  8
CAMERA_RIG
 10
2118.198260262434
 20
307.7923982769639
 30
235.0000000000005
 11
2118.575375903959
 21
307.7607918580991
 31
235.0000000000005
  0
LINE
  5
F2
  8
CAMERA_RIG
 10
2118.575375903959
 20
307.7607918580991
 30
235.0000000000005
 11
2118.997776328308
 21
307.7152068810295
 31
235.0000000000005
  0
LINE
  5
F3
  8
CAMERA_RIG
 10
2118.997776328308
 20
307.7152068810295
 30
235.0000000000005
 11
2119.463126305484
 21
307.6552750520356
 31
235.0000000000005
  0
LINE
  5
F4
  8
CAMERA_RIG
 10
2119.463126305484
 20
307.6552750520356
 30
235.0000000000005
 11
2119.967776294166
 21
307.5809711113615
 31
235.0000000000005
  0
LINE
  5
F5
  8
CAMERA_RIG
 10
2119.967776294166
 20
307.5809711113615
 30
235.0000000000005
 11
2121.074109469525
 21
307.3910408200995
 31
235.0000000000005
  0
LINE
  5
F6
  8
CAMERA_RIG
 10
2121.074109469525
 20
307.3910408200995
 30
235.0000000000005
 11
2122.264827914013
 21
307.152787451276
 31
235.0000000000005
  0
LINE
  5
F7
  8
CAMERA_RIG
 10
2122.264827914013
 20
307.152787451276
 30
235.0000000000005
 11
2123.477772255497
 21
306.8788014550558
 31
235.0000000000005
  0
LINE
  5
F8
  8
CAMERA_RIG
 10
2123.477772255497
 20
306.8788014550558
 30
235.0000000000005
 11
2124.651021245425
 21
306.5847510799221
 31
235.0000000000006
  0
LINE
  5
F9
  8
CAMERA_RIG
 10
2124.651021245425
 20
306.5847510799221
 30
235.0000000000006
 11
2125.732694097811
 21
306.2866297958383
 31
235.0000000000005
  0
ARC
  5
FA
  8
CAMERA_RIG
 10
2127.397270757661
 20
312.0511058816137
 30
235.0000000000133
 40
5.999999999999473
 50
253.893154414033
 51
270.0000000000173
  0
LINE
  5
FB
  8
CAMERA_RIG
 10
2127.397270757662
 20
306.0511058816141
 30
235.0000000000005
 11
2146.165977226146
 21
306.0511058816141
 31
235.0000000000005
  0
LINE
  5
FC
  8
CAMERA_RIG
 10
2146.165977226146
 20
306.0511058816141
 30
235.0000000000005
 11
2146.165977226146
 21
223.9999999999999
 31
235.0000000000005
  0
LINE
  5
FD
  8
CAMERA_RIG
 10
2146.165977226146
 20
223.9999999999999
 30
235.0000000000005
 11
2127.397270757662
 21
223.9999999999999
 31
235.0000000000005
  0
ARC
  5
FE
  8
CAMERA_RIG
 10
2127.397270757661
 20
218.0000000000018
 30
235.0000000000005
 40
5.999999999998124
 50
89.99999999999567
 51
106.1068455859752
  0
ARC
  5
FF
  8
CAMERA_RIG
 10
-2111.560709441347
 20
273.129128684111
 30
-234.9999999999208
 40
51.35868062224132
 50
253.981878524973
 51
258.2721973887577
210
0.0
220
0.0
230
-1.0
  0
LINE
  5
100
  8
CAMERA_RIG
 10
2113.0
 20
156.0
 30
234.9999999999989
 11
2113.0
 21
179.0
 31
234.9999999999989
  0
LINE
  5
101
  8
CAMERA_RIG
 10
2113.0
 20
179.0
 30
234.9999999999989
 11
2122.0
 21
179.0
 31
234.9999999999989
  0
LINE
  5
102
  8
CAMERA_RIG
 10
2122.0
 20
179.0
 30
234.9999999999989
 11
2122.0
 21
156.0
 31
234.9999999999989
  0
LINE
  5
103
  8
CAMERA_RIG
 10
2122.0
 20
156.0
 30
234.9999999999989
 11
2113.0
 21
156.0
 31
234.9999999999989
  0
LINE
  5
104
  8
CAMERA_RIG
 10
2122.0
 20
82.0
 30
234.9999999999989
 11
2122.0
 21
59.0
 31
234.9999999999989
  0
LINE
  5
105
  8
CAMERA_RIG
 10
2122.0
 20
59.0
 30
234.9999999999989
 11
2113.0
 21
59.0
 31
234.9999999999989
  0
LINE
  5
106
  8
CAMERA_RIG
 10
2113.0
 20
59.0
 30
234.9999999999989
 11
2113.0
 21
82.0
 31
234.9999999999989
  0
LINE
  5
107
  8
CAMERA_RIG
 10
2113.0
 20
82.0
 30
234.9999999999989
 11
2122.0
 21
82.0
 31
234.9999999999989
  0
ENDSEC
  0
EOF
